<?xml version="1.0" encoding="UTF-8" standalone="no"?>
<svg
   xmlns:dc="http://purl.org/dc/elements/1.1/"
   xmlns:cc="http://creativecommons.org/ns#"
   xmlns:rdf="http://www.w3.org/1999/02/22-rdf-syntax-ns#"
   xmlns:svg="http://www.w3.org/2000/svg"
   xmlns="http://www.w3.org/2000/svg"
   xmlns:xlink="http://www.w3.org/1999/xlink"
   xmlns:sodipodi="http://sodipodi.sourceforge.net/DTD/sodipodi-0.dtd"
   xmlns:inkscape="http://www.inkscape.org/namespaces/inkscape"
   id="maplibre"
   width="280.1969"
   height="53.542484"
   viewBox="0 0 280.1969 53.542484"
   version="1.1"
   sodipodi:docname="maplibre-komoot-logo.svg"
   inkscape:version="0.92.5 (2060ec1f9f, 2020-04-08)"
   style="fill:none"
   inkscape:export-filename="/home/wipfli/maps/maplibre.github.io/static/img/maplibre-aws-logo.png"
   inkscape:export-xdpi="96"
   inkscape:export-ydpi="96">
  <metadata
     id="metadata27">
    <rdf:RDF>
      <cc:Work
         rdf:about="">
        <dc:format>image/svg+xml</dc:format>
        <dc:type
           rdf:resource="http://purl.org/dc/dcmitype/StillImage" />
        <dc:title></dc:title>
      </cc:Work>
    </rdf:RDF>
  </metadata>
  <defs
     id="defs25">
    <style
       id="style872">.cls-1{fill:none;}.cls-2{fill:#1c2b33;}.cls-3{clip-path:url(#clip-path);}.cls-4{clip-path:url(#clip-path-2);}.cls-5{fill:url(#linear-gradient);}</style>
    <clipPath
       id="clip-path">
      <path
         id="path874"
         d="m 2079.9949,1000 c -123.3911,0 -219.8478,92.936 -307.164,210.9931 C 1652.8424,1058.2153 1552.4949,1000 1432.4089,1000 c -244.8276,0 -432.4138,318.6207 -432.4138,655.8621 0,211.0344 102.0956,344.1379 273.1035,344.1379 123.0805,0 211.6,-58.0259 368.9655,-333.1034 0,0 65.5973,-115.8413 110.7249,-195.6386 q 23.72,38.2978 49.9647,82.5351 l 73.7931,124.1379 C 2020.294,1918.4789 2100.3854,2000 2245.5123,2000 c 166.5959,0 259.31,-134.9233 259.31,-350.3448 C 2504.8227,1296.5517 2313.0069,1000 2079.9949,1000 Z m -557.9308,592.4138 c -127.5862,200 -171.7242,244.8276 -242.7587,244.8276 -73.1034,0 -116.5517,-64.1784 -116.5517,-178.6207 0,-244.8276 122.069,-495.1724 267.5862,-495.1724 78.8013,0 144.6539,45.51 245.5224,189.9131 -95.7792,146.9109 -153.7982,239.0524 -153.7982,239.0524 z m 481.5283,-25.178 -88.23,-147.1481 q -35.8152,-58.2482 -68.8384,-107.23 c 79.52,-122.7353 145.1135,-183.8919 223.1261,-183.8919 162.0691,0 291.7243,238.6207 291.7243,531.7241 0,111.7242 -36.5935,176.5518 -112.4139,176.5518 -72.6705,-3e-4 -107.3867,-47.9943 -245.3681,-270.0059 z"
         class="cls-1"
         inkscape:connector-curvature="0"
         style="fill:none" />
    </clipPath>
    <clipPath
       id="clip-path-2">
      <rect
         id="rect877"
         height="1010"
         width="1514.828"
         y="994.99982"
         x="994.99487"
         class="cls-1"
         style="fill:none" />
    </clipPath>
    <linearGradient
       gradientUnits="userSpaceOnUse"
       y2="987.27722"
       x2="1449.0802"
       y1="1532.9408"
       x1="1865.507"
       id="linear-gradient"
       gradientTransform="matrix(58.441333,0,0,58.441333,-232391.7,-55884.815)">
      <stop
         id="stop880"
         stop-color="#0869e1"
         offset="0.1336" />
      <stop
         id="stop882"
         stop-color="#0064e0"
         offset="0.8727" />
    </linearGradient>
    <linearGradient
       gradientUnits="userSpaceOnUse"
       y2="102.001"
       x2="47.999599"
       y1="6.0071602"
       x1="47.999599"
       id="paint0_linear_45_177">
      <stop
         id="stop860"
         stop-color="#8FCE3C" />
      <stop
         id="stop862"
         stop-color="#64A322"
         offset="1" />
    </linearGradient>
    <linearGradient
       inkscape:collect="always"
       xlink:href="#paint0_linear_45_177"
       id="linearGradient891"
       gradientUnits="userSpaceOnUse"
       x1="47.999599"
       y1="6.0071602"
       x2="47.999599"
       y2="102.001"
       gradientTransform="matrix(2.8620422,0,0,2.8620422,-565.51966,-572.47417)" />
    <linearGradient
       inkscape:collect="always"
       xlink:href="#paint0_linear_45_177"
       id="linearGradient893"
       gradientUnits="userSpaceOnUse"
       x1="47.999599"
       y1="6.0071602"
       x2="47.999599"
       y2="102.001"
       gradientTransform="matrix(2.8620422,0,0,2.8620422,-565.51966,-572.47417)" />
  </defs>
  <sodipodi:namedview
     pagecolor="#ffffff"
     bordercolor="#666666"
     borderopacity="1"
     objecttolerance="10"
     gridtolerance="10"
     guidetolerance="10"
     inkscape:pageopacity="0"
     inkscape:pageshadow="2"
     inkscape:window-width="1920"
     inkscape:window-height="1135"
     id="namedview23"
     showgrid="false"
     inkscape:zoom="1.4363636"
     inkscape:cx="122.97496"
     inkscape:cy="177.40633"
     inkscape:window-x="0"
     inkscape:window-y="0"
     inkscape:window-maximized="1"
     inkscape:current-layer="maplibre"
     fit-margin-top="10"
     fit-margin-left="10"
     fit-margin-right="10"
     fit-margin-bottom="10" />
  <g
     id="g847"
     transform="translate(10,16.321495)">
    <path
       id="path2"
       d="M 22.9348,10.8303 21.9375,8.57549 21.4822,10.8303 20.0079,18.2669 H 17.6013 L 20.8968,2.33136 h 0.2602 l 4.3796,8.60734 1.3008,2.8836 1.3009,-2.8836 4.2928,-8.60734 h 0.2385 l 3.4256,15.93554 h -2.3849 l -1.6044,-7.4366 -0.477,-2.25481 -0.8672,2.25481 -3.8592,7.4366 h -0.1301 z"
       inkscape:connector-curvature="0"
       style="fill:#285daa" />
    <path
       id="path4"
       d="m 42.4809,18.4837 c -0.8961,0 -1.7272,-0.2096 -2.4933,-0.6287 -0.7516,-0.4337 -1.3586,-1.0407 -1.8212,-1.8213 -0.4481,-0.7949 -0.6721,-1.72 -0.6721,-2.7751 0,-1.0407 0.1951,-1.9513 0.5854,-2.7318 0.4047,-0.78054 0.9756,-1.38761 1.7128,-1.82123 0.7372,-0.43362 1.6044,-0.65043 2.6017,-0.65043 0.5782,0 1.1202,0.10118 1.6261,0.30354 0.5059,0.20235 0.9323,0.4553 1.2792,0.75883 0.3469,0.28908 0.5781,0.57816 0.6938,0.86724 l 0.0433,-1.66944 h 2.2332 v 9.95159 h -2.2115 l -0.0434,-1.7562 c -0.2457,0.5204 -0.6937,0.9829 -1.3442,1.3876 -0.6504,0.3903 -1.3803,0.5854 -2.1898,0.5854 z m 0.3903,-1.9513 c 0.8239,0 1.5177,-0.2818 2.0814,-0.8455 0.5637,-0.5782 0.8455,-1.3298 0.8455,-2.2549 v -0.1517 c 0,-0.6216 -0.1301,-1.178 -0.3902,-1.6695 -0.2602,-0.4914 -0.6143,-0.8744 -1.0624,-1.1491 -0.4481,-0.2746 -0.9395,-0.4119 -1.4743,-0.4119 -0.9251,0 -1.6405,0.3035 -2.1464,0.9106 -0.5059,0.5926 -0.7589,1.3659 -0.7589,2.3199 0,0.9684 0.2458,1.7561 0.7372,2.3632 0.5059,0.5926 1.2286,0.8889 2.1681,0.8889 z"
       inkscape:connector-curvature="0"
       style="fill:#285daa" />
    <path
       id="path6"
       d="m 51.462,8.31531 h 2.2548 v 1.84289 c 0.7949,-1.40204 2.038,-2.10306 3.7291,-2.10306 1.402,0 2.5367,0.44808 3.4039,1.34422 0.8673,0.88174 1.3009,2.16084 1.3009,3.83754 0,1.0407 -0.2168,1.9585 -0.6504,2.7535 -0.4192,0.795 -0.9974,1.4093 -1.7345,1.8429 -0.7227,0.4336 -1.5321,0.6504 -2.4283,0.6504 -0.8383,0 -1.5683,-0.1445 -2.1898,-0.4336 -0.607,-0.3036 -1.084,-0.7299 -1.4309,-1.2792 l 0.0217,6.7645 H 51.462 Z m 5.3335,8.19539 c 0.9395,0 1.6622,-0.2963 2.1681,-0.8889 0.5059,-0.6071 0.7588,-1.3803 0.7588,-2.3199 0,-0.9828 -0.2529,-1.7633 -0.7588,-2.3415 -0.4915,-0.5926 -1.2142,-0.8889 -2.1681,-0.8889 -0.5204,0 -1.0118,0.1301 -1.4743,0.3902 -0.4481,0.2458 -0.8095,0.6071 -1.0841,1.0841 -0.2601,0.4625 -0.3902,1.0045 -0.3902,1.6261 v 0.1517 c 0,0.6215 0.1301,1.178 0.3902,1.6695 0.2746,0.4769 0.636,0.8527 1.0841,1.1274 0.448,0.2601 0.9395,0.3902 1.4743,0.3902 z"
       inkscape:connector-curvature="0"
       style="fill:#285daa" />
    <path
       id="path8"
       d="m 64.6924,2.33124 h 2.4499 V 16.0987 h 4.5747 v 2.1681 h -7.0246 z"
       inkscape:connector-curvature="0"
       style="fill:#95befa" />
    <path
       id="path10"
       d="m 74.0725,8.31519 h 2.4282 v 9.95161 h -2.4282 z m 1.1924,-1.86456 c -0.4481,0 -0.8239,-0.15177 -1.1274,-0.4553 -0.3035,-0.30354 -0.4553,-0.67934 -0.4553,-1.12742 0,-0.40471 0.1518,-0.7516 0.4553,-1.04068 0.3035,-0.28908 0.6793,-0.43362 1.1274,-0.43362 0.4336,0 0.8022,0.14454 1.1057,0.43362 0.3036,0.28908 0.4553,0.63597 0.4553,1.04068 0,0.44808 -0.1517,0.82388 -0.4553,1.12742 -0.289,0.30353 -0.6576,0.4553 -1.1057,0.4553 z"
       inkscape:connector-curvature="0"
       style="fill:#95befa" />
    <path
       id="path12"
       d="m 85.6399,18.4836 c -0.8094,0 -1.5393,-0.1951 -2.1897,-0.5854 -0.636,-0.4047 -1.0769,-0.8672 -1.3226,-1.3876 l -0.0433,1.7562 H 79.8294 V 2.33124 h 2.2982 v 6.13572 l -0.1084,1.69114 c 0.2457,-0.57818 0.7227,-1.06962 1.431,-1.47433 0.7227,-0.41917 1.5032,-0.62875 2.3415,-0.62875 0.9829,0 1.8357,0.22404 2.5584,0.67211 0.7371,0.43362 1.3008,1.04792 1.6911,1.84287 0.3902,0.7805 0.5854,1.6911 0.5854,2.7318 0,1.0552 -0.2313,1.973 -0.6938,2.7535 -0.4481,0.7805 -1.0552,1.3804 -1.8212,1.7995 -0.7516,0.4192 -1.5755,0.6288 -2.4717,0.6288 z m -0.3902,-1.9513 c 0.9395,0 1.6622,-0.2963 2.1681,-0.8889 0.5059,-0.6071 0.7588,-1.3876 0.7588,-2.3416 0,-0.9684 -0.2529,-1.7489 -0.7588,-2.3415 -0.4914,-0.6071 -1.2141,-0.9106 -2.1681,-0.9106 -0.8239,0 -1.5177,0.2891 -2.0814,0.8672 -0.5637,0.5637 -0.8455,1.3081 -0.8455,2.2332 v 0.1517 c 0,0.6215 0.13,1.178 0.3902,1.6695 0.2746,0.4914 0.6288,0.8744 1.0624,1.1491 0.4481,0.2746 0.9395,0.4119 1.4743,0.4119 z"
       inkscape:connector-curvature="0"
       style="fill:#95befa" />
    <path
       id="path14"
       d="m 93.0589,8.31519 h 2.3416 v 1.95131 c 0.2312,-0.6649 0.607,-1.1997 1.1274,-1.60441 0.5203,-0.40471 1.1129,-0.60707 1.7778,-0.60707 0.4625,0 0.7805,0.04336 0.954,0.13009 l -0.3252,2.36319 c -0.1301,-0.0867 -0.412,-0.1301 -0.8456,-0.1301 -0.6793,0 -1.3009,0.2169 -1.8646,0.6505 -0.5492,0.4336 -0.8238,1.1274 -0.8238,2.0814 v 5.1167 h -2.3416 z"
       inkscape:connector-curvature="0"
       style="fill:#95befa" />
    <path
       id="path16"
       d="m 105.62,18.4836 c -1.185,0 -2.175,-0.2313 -2.97,-0.6938 -0.795,-0.477 -1.38,-1.1057 -1.756,-1.8863 -0.376,-0.7949 -0.564,-1.6622 -0.564,-2.6017 0,-1.0551 0.217,-1.9802 0.651,-2.7751 0.448,-0.79502 1.062,-1.40208 1.842,-1.82125 0.781,-0.43362 1.663,-0.65043 2.646,-0.65043 1.532,0 2.666,0.42639 3.403,1.27918 0.752,0.8383 1.128,2.0236 1.128,3.5557 0,0.3902 -0.022,0.795 -0.065,1.2141 h -7.155 c 0.159,0.8817 0.47,1.5177 0.932,1.9079 0.477,0.3903 1.135,0.5854 1.973,0.5854 0.694,0 1.265,-0.0578 1.713,-0.1734 0.448,-0.1156 0.86,-0.2746 1.236,-0.477 l 0.715,1.6694 c -0.361,0.2313 -0.852,0.4337 -1.474,0.6071 -0.621,0.1735 -1.373,0.2602 -2.255,0.2602 z m 2.103,-6.0057 c 0.015,-0.8961 -0.18,-1.5249 -0.585,-1.8862 -0.405,-0.3758 -0.983,-0.5637 -1.734,-0.5637 -1.518,0 -2.393,0.8166 -2.624,2.4499 z"
       inkscape:connector-curvature="0"
       style="fill:#95befa" />
    <path
       id="path18"
       d="M 0,6.09306 C 0,2.73343 2.91762,-6.10352e-5 6.5043,-6.10352e-5 c 3.5867,0 6.5043,2.7334910352 6.5043,6.0931210352 0,5.04844 -5.31905,9.31084 -6.15498,9.98064 -0.05198,0.0417 -0.08663,0.0695 -0.10158,0.0827 -0.06989,0.0611 -0.15882,0.0919 -0.24774,0.0919 -0.08893,0 -0.17785,-0.0308 -0.24771,-0.0919 C 6.24164,16.1432 6.20702,16.1154 6.15508,16.0738 5.31935,15.4041 0,11.1417 0,6.09306 Z m 6.50432,3.53032 c 1.77602,0 3.21576,-1.46138 3.21576,-3.26407 0,-1.80269 -1.43974,-3.26406 -3.21576,-3.26406 -1.77602,0 -3.21577,1.46137 -3.21577,3.26406 0,1.80269 1.43975,3.26407 3.21577,3.26407 z"
       inkscape:connector-curvature="0"
       style="clip-rule:evenodd;fill:#95befa;fill-rule:evenodd" />
    <path
       id="path20"
       d="m 2.83883,17.1496 c -0.47905,0 -0.86739,0.3883 -0.86739,0.8674 v 2.4248 c 0,0.479 0.38834,0.8673 0.86739,0.8673 h 7.33337 c 0.4791,0 0.8674,-0.3883 0.8674,-0.8673 V 18.017 c 0,-0.4791 -0.3883,-0.8674 -0.8674,-0.8674 z m 6.36253,1.5278 H 3.80972 v 1.1039 h 5.39164 z"
       inkscape:connector-curvature="0"
       style="clip-rule:evenodd;fill:#285daa;fill-rule:evenodd" />
  </g>
  <g
     id="Artboard_outline"
     data-name="Artboard outline"
     transform="translate(-3855.3175,-955.42891)">
    <rect
       style="fill:none"
       y="0"
       class="cls-1"
       x="-0.0049000001"
       width="6962.3647"
       height="3000"
       id="rect887" />
  </g>
  <g
     style="fill:none;stroke-width:2.86204195"
     id="g889"
     transform="matrix(0.34940086,0,0,0.34940086,145.1114,7.9035948)">
    <path
       id="path844"
       d="m 136.537,41.5078 h 12.291 l -14.721,16.3246 16.166,18.1192 h -12.069 c -0.286,0 -12.847,-14.7208 -12.847,-14.7208 v 14.7049 h -9.703 V 31.4716 h 9.703 v 23.8518 z"
       inkscape:connector-curvature="0"
       style="fill:#6aa127;stroke-width:2.86204195" />
    <path
       id="path846"
       d="m 149.447,58.6423 c 0,-10.0203 8.115,-18.1509 18.119,-18.1509 10.005,0 18.119,8.1306 18.119,18.1509 0,10.0203 -8.114,18.1509 -18.119,18.1509 -10.004,0 -18.119,-8.1147 -18.119,-18.1509 z m 9.528,0.0159 c 0,5.0022 3.843,9.0516 8.591,9.0516 4.748,0 8.591,-4.0494 8.591,-9.0516 0,-5.0022 -3.843,-9.0516 -8.591,-9.0516 -4.748,0 -8.591,4.0494 -8.591,9.0516 z"
       inkscape:connector-curvature="0"
       style="clip-rule:evenodd;fill:#6aa127;fill-rule:evenodd;stroke-width:2.86204195" />
    <path
       id="path848"
       d="m 251.699,58.6423 c 0,-10.0203 8.115,-18.1509 18.119,-18.1509 10.004,0 18.119,8.1306 18.119,18.1509 0,10.0203 -8.115,18.1509 -18.119,18.1509 -10.004,0 -18.119,-8.1147 -18.119,-18.1509 z m 9.528,0.0159 c 0,5.034 3.843,9.1152 8.591,9.1152 4.748,0 8.591,-4.0812 8.591,-9.1152 0,-5.034 -3.843,-9.1151 -8.591,-9.1151 -4.748,0 -8.591,4.0811 -8.591,9.1151 z"
       inkscape:connector-curvature="0"
       style="clip-rule:evenodd;fill:#6aa127;fill-rule:evenodd;stroke-width:2.86204195" />
    <path
       id="path850"
       d="m 311.201,40.4914 c -10.004,0 -18.119,8.1306 -18.119,18.1509 0,10.0362 8.115,18.1509 18.119,18.1509 10.005,0 18.12,-8.1306 18.12,-18.1509 0,-10.0203 -8.115,-18.1509 -18.12,-18.1509 z m 0,27.282 c -4.748,0 -8.591,-4.0812 -8.591,-9.1152 0,-5.034 3.843,-9.1151 8.591,-9.1151 4.749,0 8.592,4.0811 8.592,9.1151 0,5.034 -3.859,9.1152 -8.592,9.1152 z"
       inkscape:connector-curvature="0"
       style="clip-rule:evenodd;fill:#6aa127;fill-rule:evenodd;stroke-width:2.86204195" />
    <path
       id="path852"
       d="m 356.047,68.2339 c -3.637,0.6193 -5.701,-0.8416 -6.559,-1.7309 -0.889,-0.9211 -1.54,-2.4138 -1.54,-3.3825 V 49.6701 H 357 v -8.1147 h -9.052 v -9.3692 h -9.592 v 9.3692 h -6.558 v 8.1147 h 6.558 v 13.4346 c 0,7.543 6.13,13.6727 13.673,13.6727 0,0 3.51,0.127 5.971,-0.8893 z"
       inkscape:connector-curvature="0"
       style="fill:#6aa127;stroke-width:2.86204195" />
    <path
       id="path854"
       d="m 201.645,58.0866 c -0.032,4.3353 0,17.8015 0,17.8015 V 75.904 H 191.99 V 41.5872 h 8.051 l 1.175,4.2241 c 1.684,-2.6202 3.811,-4.24 6.972,-4.8116 3.525,-0.6352 6.574,-0.2382 9.305,1.191 1.747,0.921 3.129,2.3661 4.113,4.3035 0.016,-0.0318 0.048,-0.0794 0.08,-0.1112 0.396,-0.5397 0.794,-1.0801 1.222,-1.588 1.7,-2.0009 3.923,-3.2554 6.607,-3.7636 2.667,-0.4923 5.224,-0.397 7.622,0.3176 2.747,0.8099 4.859,2.525 6.257,5.0816 1.048,1.9056 1.651,4.0812 1.858,6.622 0.095,1.2387 0.143,2.3503 0.143,3.4301 v 19.4372 h -9.608 c 0,0 0.032,-14.9908 0,-19.8659 -0.016,-1.4928 -0.365,-2.8267 -1,-3.9701 -0.667,-1.1751 -1.604,-1.8897 -2.89,-2.2073 -1.588,-0.397 -2.922,-0.3335 -4.32,0.2065 -1.794,0.6828 -3.001,2.0644 -3.7,4.2082 -0.365,1.1116 -0.54,2.3661 -0.54,3.7953 v 17.8015 h -9.385 V 56.3239 c 0,-1.1751 -0.063,-2.5567 -0.603,-3.8271 -0.747,-1.7944 -2.097,-2.7313 -4.145,-2.8584 -1.54,-0.0953 -2.843,0.1271 -3.986,0.667 -1.826,0.8734 -2.684,2.382 -3.192,4.5258 -0.238,1.0322 -0.381,2.1279 -0.381,3.2554 z"
       inkscape:connector-curvature="0"
       style="fill:#6aa127;stroke-width:2.86204195" />
    <path
       id="path856"
       d="M 0,54 C 0,27.5391 21.5391,6 48,6 74.4768,6 96,27.5391 96,54 96,64.6508 92.5816,74.7003 86.1246,83.1355 L 62.0534,59.0643 c 0.6014,-1.6459 0.9021,-3.3551 0.9021,-5.0801 0,-8.2453 -6.7102,-14.9555 -14.9555,-14.9555 -8.2453,0 -14.9555,6.7102 -14.9555,14.9555 0,1.725 0.3007,3.4342 0.9021,5.0801 L 9.87537,83.1355 C 3.4184,74.7161 0,64.6508 0,54 Z"
       inkscape:connector-curvature="0"
       style="fill:url(#linearGradient891);stroke-width:2.86204195" />
    <path
       style="fill:url(#linearGradient893);stroke-width:2.86204195"
       id="path858"
       d="M 39.2008,65.3155 48,51.5945 56.7992,65.3155 80.6489,89.1652 C 71.7389,97.4421 60.1702,102 48,102 35.8299,102 24.2611,97.4421 15.3512,89.1652 Z"
       inkscape:connector-curvature="0" />
  </g>
</svg>
