<svg id="linkedin" width="16" height="16" viewBox="0 0 16 16" fill="none" xmlns="http://www.w3.org/2000/svg">
<path fill-rule="evenodd" clip-rule="evenodd" d="M3.5 1.75C3.5 2.7165 2.7165 3.5 1.75 3.5C0.783502 3.5 0 2.7165 0 1.75C0 0.783502 0.783502 0 1.75 0C2.7165 0 3.5 0.783502 3.5 1.75ZM0 5H3.578V16H0V5ZM13.2998 5.12119C13.2954 5.11973 13.2909 5.11825 13.2864 5.11678C13.2616 5.10856 13.2367 5.10033 13.21 5.093C13.162 5.082 13.114 5.073 13.065 5.065C12.875 5.027 12.667 5 12.423 5C10.337 5 9.014 6.517 8.578 7.103V5H5V16H8.578V10C8.578 10 11.282 6.234 12.423 9V16H16V8.577C16 6.915 14.861 5.53 13.324 5.129C13.3159 5.12643 13.3078 5.12382 13.2998 5.12119Z" fill="#979DA6"/>
</svg>
