<svg
  xmlns="http://www.w3.org/2000/svg"
  width="16"
  height="14"
  fill="none"
  viewBox="0 0 16 14"
>
  <path
    fill="#fff"
    d="M3.62 1.163C5.391 2.482 7.3 5.155 8 6.59c.7-1.434 2.607-4.108 4.38-5.427 1.28-.951 3.353-1.688 3.353.655 0 .468-.27 3.93-.43 4.492-.551 1.955-2.563 2.453-4.353 2.151 3.128.528 3.924 2.275 2.206 4.021-3.264 3.318-4.691-.832-5.057-1.895C8.032 10.392 8 10.3 8 10.378c0-.077-.032.014-.099.209-.366 1.063-1.793 5.213-5.057 1.895-1.718-1.746-.922-3.493 2.206-4.02-1.79.301-3.802-.197-4.354-2.152-.159-.562-.43-4.024-.43-4.492C.267-.525 2.34.212 3.62 1.163Z"
  ></path>
</svg>
