<?xml version="1.0" encoding="UTF-8" standalone="no"?>
<svg
   xmlns:dc="http://purl.org/dc/elements/1.1/"
   xmlns:cc="http://creativecommons.org/ns#"
   xmlns:rdf="http://www.w3.org/1999/02/22-rdf-syntax-ns#"
   xmlns:svg="http://www.w3.org/2000/svg"
   xmlns="http://www.w3.org/2000/svg"
   xmlns:sodipodi="http://sodipodi.sourceforge.net/DTD/sodipodi-0.dtd"
   xmlns:inkscape="http://www.inkscape.org/namespaces/inkscape"
   id="maplibre"
   width="266.5748"
   height="161.47096"
   viewBox="0 0 266.5748 161.47096"
   version="1.1"
   sodipodi:docname="maplibre-mierune-logo.svg"
   inkscape:version="0.92.5 (2060ec1f9f, 2020-04-08)"
   style="fill:none"
   inkscape:export-filename="/home/wipfli/maps/maplibre.github.io/static/img/maplibre-aws-logo.png"
   inkscape:export-xdpi="96"
   inkscape:export-ydpi="96">
  <metadata
     id="metadata27">
    <rdf:RDF>
      <cc:Work
         rdf:about="">
        <dc:format>image/svg+xml</dc:format>
        <dc:type
           rdf:resource="http://purl.org/dc/dcmitype/StillImage" />
        <dc:title />
      </cc:Work>
    </rdf:RDF>
  </metadata>
  <defs
     id="defs25">
    <style
       id="style872">.cls-1{fill:none;}.cls-2{fill:#1c2b33;}.cls-3{clip-path:url(#clip-path);}.cls-4{clip-path:url(#clip-path-2);}.cls-5{fill:url(#linear-gradient);}</style>
    <clipPath
       id="clip-path">
      <path
         id="path874"
         d="m 2079.9949,1000 c -123.3911,0 -219.8478,92.936 -307.164,210.9931 C 1652.8424,1058.2153 1552.4949,1000 1432.4089,1000 c -244.8276,0 -432.4138,318.6207 -432.4138,655.8621 0,211.0344 102.0956,344.1379 273.1035,344.1379 123.0805,0 211.6,-58.0259 368.9655,-333.1034 0,0 65.5973,-115.8413 110.7249,-195.6386 q 23.72,38.2978 49.9647,82.5351 l 73.7931,124.1379 C 2020.294,1918.4789 2100.3854,2000 2245.5123,2000 c 166.5959,0 259.31,-134.9233 259.31,-350.3448 C 2504.8227,1296.5517 2313.0069,1000 2079.9949,1000 Z m -557.9308,592.4138 c -127.5862,200 -171.7242,244.8276 -242.7587,244.8276 -73.1034,0 -116.5517,-64.1784 -116.5517,-178.6207 0,-244.8276 122.069,-495.1724 267.5862,-495.1724 78.8013,0 144.6539,45.51 245.5224,189.9131 -95.7792,146.9109 -153.7982,239.0524 -153.7982,239.0524 z m 481.5283,-25.178 -88.23,-147.1481 q -35.8152,-58.2482 -68.8384,-107.23 c 79.52,-122.7353 145.1135,-183.8919 223.1261,-183.8919 162.0691,0 291.7243,238.6207 291.7243,531.7241 0,111.7242 -36.5935,176.5518 -112.4139,176.5518 -72.6705,-3e-4 -107.3867,-47.9943 -245.3681,-270.0059 z"
         class="cls-1"
         inkscape:connector-curvature="0"
         style="fill:none" />
    </clipPath>
    <clipPath
       id="clip-path-2">
      <rect
         id="rect877"
         height="1010"
         width="1514.828"
         y="994.99982"
         x="994.99487"
         class="cls-1"
         style="fill:none" />
    </clipPath>
    <linearGradient
       gradientUnits="userSpaceOnUse"
       y2="987.27722"
       x2="1449.0802"
       y1="1532.9408"
       x1="1865.507"
       id="linear-gradient"
       gradientTransform="translate(-3855.3184,-955.45267)">
      <stop
         id="stop880"
         stop-color="#0869e1"
         offset="0.1336" />
      <stop
         id="stop882"
         stop-color="#0064e0"
         offset="0.8727" />
    </linearGradient>
  </defs>
  <sodipodi:namedview
     pagecolor="#ffffff"
     bordercolor="#666666"
     borderopacity="1"
     objecttolerance="10"
     gridtolerance="10"
     guidetolerance="10"
     inkscape:pageopacity="0"
     inkscape:pageshadow="2"
     inkscape:window-width="1920"
     inkscape:window-height="1135"
     id="namedview23"
     showgrid="false"
     inkscape:zoom="2.8727272"
     inkscape:cx="140.98656"
     inkscape:cy="105.45777"
     inkscape:window-x="0"
     inkscape:window-y="0"
     inkscape:window-maximized="1"
     inkscape:current-layer="maplibre"
     fit-margin-top="0"
     fit-margin-left="0"
     fit-margin-right="0"
     fit-margin-bottom="0" />
  <rect
     y="0"
     x="0"
     height="161.47096"
     width="266.5748"
     id="rect857"
     style="opacity:1;fill:#ffffff;fill-opacity:1;stroke:none;stroke-width:1.13385832;stroke-linecap:butt;stroke-linejoin:bevel;stroke-miterlimit:4;stroke-dasharray:none;stroke-dashoffset:0;stroke-opacity:1" />
  <text
     id="text865"
     y="82.458488"
     x="-23.876041"
     style="font-style:normal;font-variant:normal;font-weight:normal;font-stretch:normal;font-size:48px;line-height:1.25;font-family:serif;-inkscape-font-specification:serif;font-variant-ligatures:normal;font-variant-caps:normal;font-variant-numeric:normal;font-feature-settings:normal;text-align:start;letter-spacing:0px;word-spacing:0px;writing-mode:lr-tb;text-anchor:start;fill:#000000;fill-opacity:1;stroke:none"
     xml:space="preserve"><tspan
       y="126.1325"
       x="-23.876041"
       id="tspan863"
       sodipodi:role="line" /></text>
  <g
     id="Artboard_outline"
     data-name="Artboard outline"
     transform="translate(-3838.6305,-909.04318)">
    <rect
       style="fill:none"
       y="0"
       class="cls-1"
       x="-0.0049000001"
       width="6962.3647"
       height="3000"
       id="rect887" />
  </g>
  <text
     xml:space="preserve"
     style="font-style:normal;font-variant:normal;font-weight:normal;font-stretch:normal;font-size:10.66666698px;line-height:1.25;font-family:serif;-inkscape-font-specification:serif;font-variant-ligatures:normal;font-variant-caps:normal;font-variant-numeric:normal;font-feature-settings:normal;text-align:start;letter-spacing:0px;word-spacing:0px;writing-mode:lr-tb;text-anchor:start;fill:#646464;fill-opacity:1;stroke:none"
     x="98.745735"
     y="137.38303"
     id="text1053"><tspan
       sodipodi:role="line"
       id="tspan1051"
       x="98.745735"
       y="137.38303"
       style="font-style:normal;font-variant:normal;font-weight:normal;font-stretch:normal;font-family:arial;-inkscape-font-specification:arial;fill:#646464;fill-opacity:1">official sponsor</tspan></text>
  <text
     xml:space="preserve"
     style="font-style:normal;font-variant:normal;font-weight:normal;font-stretch:normal;font-size:10.66666698px;line-height:1.25;font-family:serif;-inkscape-font-specification:serif;font-variant-ligatures:normal;font-variant-caps:normal;font-variant-numeric:normal;font-feature-settings:normal;text-align:start;letter-spacing:0px;word-spacing:0px;writing-mode:lr-tb;text-anchor:start;fill:#000000;fill-opacity:1;stroke:none"
     x="143.06963"
     y="137.80008"
     id="text1075"><tspan
       sodipodi:role="line"
       id="tspan1073"
       x="143.06963"
       y="147.50542" /></text>
  <g
     transform="translate(184.59977,51.085006)"
     id="g24">
    <path
       inkscape:connector-curvature="0"
       class="st1"
       d="M 52.2,61.7 C 48,61.5 43.7,61.4 39.5,61.4 c -4.2,0 -8.5,0.1 -12.7,0.3 -1.2,0.1 -2.3,0.1 -3.5,0.2 0.2,-2.6 0.4,-5.1 0.5,-7.7 0.1,-2.7 0.2,-5.4 0.3,-8.2 0,-1.2 0,-2.4 0,-3.6 0,-1.2 0,-2.4 0,-3.6 0,-2.7 -0.1,-5.4 -0.3,-8.2 C 23.7,28 23.5,25.5 23.3,22.9 23.1,20.2 22.8,17.4 22.5,14.7 19.7,14.5 17,14.3 14.2,14 c 0.3,2.8 0.6,5.5 0.8,8.3 0.6,6.7 0.8,13.4 0.8,20.1 0,6.6 -0.3,13.4 -0.8,20.1 -0.1,1 -0.2,1.9 -0.3,2.9 -0.2,1.8 -0.4,3.6 -0.6,5.4 2.8,-0.3 5.5,-0.5 8.3,-0.7 5.7,-0.4 11.4,-0.6 17,-0.6 4.5,0 9,0.1 13.5,0.4 -0.3,-2.6 -0.5,-5.2 -0.7,-7.7 0,-0.2 0,-0.3 0,-0.5"
       id="path6-6" />
    <path
       inkscape:connector-curvature="0"
       class="st1"
       d="m 63.1,42.5 c 0,-6.6 0.3,-13.4 0.8,-20.1 0.1,-1 0.2,-1.9 0.3,-2.9 0.2,-1.8 0.3,-3.6 0.6,-5.4 -2.8,0.3 -5.5,0.5 -8.3,0.7 -5.7,0.4 -11.4,0.6 -17,0.6 -4.5,0 -9,-0.1 -13.5,-0.4 0.3,2.6 0.5,5.2 0.7,7.7 0,0.2 0,0.3 0,0.5 4.2,0.2 8.5,0.3 12.7,0.3 4.2,0 8.5,-0.1 12.7,-0.3 1.2,-0.1 2.3,-0.1 3.5,-0.2 -0.2,2.6 -0.4,5.1 -0.5,7.7 h -3.5 -17 -7.4 c 0.1,2.7 0.2,5.4 0.2,8.1 0,0 0,0 0,0.1 h 7.3 16.7 3.6 c 0,1.2 0,2.4 0,3.6 0,1.2 0,2.4 0,3.6 h -3.5 -24 c 0,0 0,0 0,0.1 0,2.7 -0.1,5.4 -0.2,8.1 h 24.5 3.5 c 0.1,2.6 0.3,5.1 0.5,7.7 0.2,2.7 0.5,5.5 0.8,8.2 2.8,0.2 5.5,0.4 8.3,0.7 -0.3,-2.8 -0.6,-5.5 -0.8,-8.3 -0.7,-6.7 -1,-13.4 -1,-20.1"
       id="path8-0" />
    <path
       inkscape:connector-curvature="0"
       class="st1"
       d="m 201.5,49 c -0.5,1 -1.1,1.8 -1.8,2.5 -0.8,0.7 -1.7,1.2 -2.7,1.6 -1,0.4 -2.1,0.6 -3.3,0.6 -1.2,0 -2.3,-0.2 -3.3,-0.6 -1,-0.4 -1.9,-0.9 -2.7,-1.6 -0.8,-0.7 -1.4,-1.5 -1.8,-2.5 -0.4,-1 -0.7,-2.1 -0.7,-3.3 V 30.8 h 5.5 v 14.7 c 0,1 0.3,1.9 0.8,2.4 0.5,0.6 1.2,0.8 2.2,0.8 0.9,0 1.7,-0.3 2.2,-0.8 0.5,-0.6 0.8,-1.4 0.8,-2.4 V 30.8 h 5.5 v 14.8 c 0,1.3 -0.2,2.4 -0.7,3.4"
       id="path10-6" />
    <path
       inkscape:connector-curvature="0"
       class="st1"
       d="m 108.2,30.8 h -6 l -5,9.9 -5,-9.9 h -6 c 0.5,3.7 0.8,7.4 0.8,11.2 0,3.8 -0.3,7.5 -0.8,11.2 h 6.1 V 42.5 L 95.5,48 H 99 l 3.2,-5.5 v 10.7 h 6.1 c -0.5,-3.7 -0.8,-7.4 -0.8,-11.2 -0.2,-3.8 0.1,-7.5 0.7,-11.2"
       id="path12-2" />
    <path
       inkscape:connector-curvature="0"
       class="st1"
       d="m 124.3,30.8 h -6.9 c 0.5,3.7 0.8,7.4 0.8,11.2 0,3.8 -0.3,7.5 -0.8,11.2 h 6.9 c -0.5,-3.7 -0.8,-7.4 -0.8,-11.2 0,-3.8 0.3,-7.5 0.8,-11.2"
       id="path14-6" />
    <path
       inkscape:connector-curvature="0"
       class="st1"
       d="m 134.4,42 c 0,3.8 -0.3,7.5 -0.8,11.2 h 15.8 v -4.9 h -9.7 v -3.9 h 8.3 v -4.9 h -8.3 v -3.7 h 9.7 v -4.9 h -15.8 c 0.5,3.6 0.8,7.3 0.8,11.1"
       id="path16-1" />
    <path
       inkscape:connector-curvature="0"
       class="st1"
       d="m 173.4,43.1 c 0.4,-0.4 0.8,-0.8 1.2,-1.3 0.3,-0.5 0.6,-1 0.9,-1.7 0.2,-0.6 0.3,-1.3 0.3,-2.1 0,-0.9 -0.2,-1.8 -0.5,-2.7 -0.3,-0.9 -0.8,-1.6 -1.5,-2.3 -0.6,-0.7 -1.4,-1.2 -2.4,-1.6 -1,-0.4 -2.1,-0.6 -3.3,-0.6 h -9.4 c 0.5,3.7 0.8,7.4 0.8,11.2 0,3.8 -0.3,7.5 -0.8,11.2 h 6.1 v -8.3 h 1.9 l 4,8.3 h 6.4 l -4.8,-9.3 c 0.2,-0.2 0.7,-0.5 1.1,-0.8 m -3.8,-3.5 c -0.4,0.5 -1,0.7 -1.8,0.7 h -3.1 v -4.5 h 3.1 c 0.8,0 1.3,0.2 1.8,0.7 0.4,0.5 0.6,1 0.6,1.6 0,0.5 -0.2,1 -0.6,1.5"
       id="path18" />
    <path
       inkscape:connector-curvature="0"
       class="st1"
       d="M 230.1,30.8 H 224 v 11.3 l -7.2,-11.3 h -5.4 c 0.5,3.7 0.8,7.4 0.8,11.2 0,3.8 -0.3,7.5 -0.8,11.2 h 6.1 V 42 l 7.2,11.3 h 5.4 c -0.5,-3.7 -0.8,-7.4 -0.8,-11.2 0,-3.9 0.2,-7.6 0.8,-11.3"
       id="path20-8" />
    <path
       inkscape:connector-curvature="0"
       class="st1"
       d="m 255.2,35.8 v -4.9 h -15.8 c 0.5,3.7 0.8,7.4 0.8,11.2 0,3.8 -0.3,7.5 -0.8,11.2 h 15.8 v -4.9 h -9.7 v -3.9 h 8.3 v -4.9 h -8.3 v -3.7 h 9.7 z"
       id="path22" />
  </g>
  <g
     id="g1042"
     transform="translate(-7.2027561,-4)">
    <g
       transform="matrix(0.77275402,0,0,0.77275402,20.064706,14.165103)"
       id="g1021"
       style="stroke-width:1.29407287">
      <path
         style="fill:#285daa;fill-opacity:1;stroke-width:1.29407287"
         inkscape:connector-curvature="0"
         d="m 49.621758,73.537507 -0.9973,-2.25481 -0.4553,2.25481 -1.4743,7.4366 h -2.4066 l 3.2955,-15.93554 h 0.2602 l 4.3796,8.60734 1.3008,2.8836 1.3009,-2.8836 4.2928,-8.60734 h 0.2385 l 3.4256,15.93554 h -2.3849 l -1.6044,-7.4366 -0.477,-2.25481 -0.8672,2.25481 -3.8592,7.4366 h -0.1301 z"
         id="path2" />
      <path
         style="fill:#285daa;fill-opacity:1;stroke-width:1.29407287"
         inkscape:connector-curvature="0"
         d="m 69.167858,81.190907 c -0.8961,0 -1.7272,-0.2096 -2.4933,-0.6287 -0.7516,-0.4337 -1.3586,-1.0407 -1.8212,-1.8213 -0.4481,-0.7949 -0.6721,-1.72 -0.6721,-2.7751 0,-1.0407 0.1951,-1.9513 0.5854,-2.7318 0.4047,-0.78054 0.9756,-1.38761 1.7128,-1.82123 0.7372,-0.43362 1.6044,-0.65043 2.6017,-0.65043 0.5782,0 1.1202,0.10118 1.6261,0.30354 0.5059,0.20235 0.9323,0.4553 1.2792,0.75883 0.3469,0.28908 0.5781,0.57816 0.6938,0.86724 l 0.0433,-1.66944 h 2.2332 v 9.95159 h -2.2115 l -0.0434,-1.7562 c -0.2457,0.5204 -0.6937,0.9829 -1.3442,1.3876 -0.6504,0.3903 -1.3803,0.5854 -2.1898,0.5854 z m 0.3903,-1.9513 c 0.8239,0 1.5177,-0.2818 2.0814,-0.8455 0.5637,-0.5782 0.8455,-1.3298 0.8455,-2.2549 v -0.1517 c 0,-0.6216 -0.1301,-1.178 -0.3902,-1.6695 -0.2602,-0.4914 -0.6143,-0.8744 -1.0624,-1.1491 -0.4481,-0.2746 -0.9395,-0.4119 -1.4743,-0.4119 -0.9251,0 -1.6405,0.3035 -2.1464,0.9106 -0.5059,0.5926 -0.7589,1.3659 -0.7589,2.3199 0,0.9684 0.2458,1.7561 0.7372,2.3632 0.5059,0.5926 1.2286,0.8889 2.1681,0.8889 z"
         id="path4" />
      <path
         style="fill:#285daa;fill-opacity:1;stroke-width:1.29407287"
         inkscape:connector-curvature="0"
         d="m 78.148958,71.022517 h 2.2548 v 1.84289 c 0.7949,-1.40204 2.038,-2.10306 3.7291,-2.10306 1.402,0 2.5367,0.44808 3.4039,1.34422 0.8673,0.88174 1.3009,2.16084 1.3009,3.83754 0,1.0407 -0.2168,1.9585 -0.6504,2.7535 -0.4192,0.795 -0.9974,1.4093 -1.7345,1.8429 -0.7227,0.4336 -1.5321,0.6504 -2.4283,0.6504 -0.8383,0 -1.5683,-0.1445 -2.1898,-0.4336 -0.607,-0.3036 -1.084,-0.7299 -1.4309,-1.2792 l 0.0217,6.7645 h -2.2765 z m 5.3335,8.19539 c 0.9395,0 1.6622,-0.2963 2.1681,-0.8889 0.5059,-0.6071 0.7588,-1.3803 0.7588,-2.3199 0,-0.9828 -0.2529,-1.7633 -0.7588,-2.3415 -0.4915,-0.5926 -1.2142,-0.8889 -2.1681,-0.8889 -0.5204,0 -1.0118,0.1301 -1.4743,0.3902 -0.4481,0.2458 -0.8095,0.6071 -1.0841,1.0841 -0.2601,0.4625 -0.3902,1.0045 -0.3902,1.6261 v 0.1517 c 0,0.6215 0.1301,1.178 0.3902,1.6695 0.2746,0.4769 0.636,0.8527 1.0841,1.1274 0.448,0.2601 0.9395,0.3902 1.4743,0.3902 z"
         id="path6" />
      <path
         style="fill:#95befa;stroke-width:1.29407287"
         inkscape:connector-curvature="0"
         d="m 91.379358,65.038447 h 2.4499 v 13.76746 h 4.5747 v 2.1681 h -7.0246 z"
         id="path8" />
      <path
         style="fill:#95befa;stroke-width:1.29407287"
         inkscape:connector-curvature="0"
         d="m 100.75946,71.022397 h 2.4282 v 9.95161 h -2.4282 z m 1.1924,-1.86456 c -0.4481,0 -0.8239,-0.15177 -1.1274,-0.4553 -0.3035,-0.30354 -0.4553,-0.67934 -0.4553,-1.12742 0,-0.40471 0.1518,-0.7516 0.4553,-1.04068 0.3035,-0.28908 0.6793,-0.43362 1.1274,-0.43362 0.4336,0 0.8022,0.14454 1.1057,0.43362 0.3036,0.28908 0.4553,0.63597 0.4553,1.04068 0,0.44808 -0.1517,0.82388 -0.4553,1.12742 -0.289,0.30353 -0.6576,0.4553 -1.1057,0.4553 z"
         id="path10" />
      <path
         style="fill:#95befa;stroke-width:1.29407287"
         inkscape:connector-curvature="0"
         d="m 112.32686,81.190807 c -0.8094,0 -1.5393,-0.1951 -2.1897,-0.5854 -0.636,-0.4047 -1.0769,-0.8672 -1.3226,-1.3876 l -0.0433,1.7562 h -2.2549 v -15.93556 h 2.2982 v 6.13572 l -0.1084,1.69114 c 0.2457,-0.57818 0.7227,-1.06962 1.431,-1.47433 0.7227,-0.41917 1.5032,-0.62875 2.3415,-0.62875 0.9829,0 1.8357,0.22404 2.5584,0.67211 0.7371,0.43362 1.3008,1.04792 1.6911,1.84287 0.3902,0.7805 0.5854,1.6911 0.5854,2.7318 0,1.0552 -0.2313,1.973 -0.6938,2.7535 -0.4481,0.7805 -1.0552,1.3804 -1.8212,1.7995 -0.7516,0.4192 -1.5755,0.6288 -2.4717,0.6288 z m -0.3902,-1.9513 c 0.9395,0 1.6622,-0.2963 2.1681,-0.8889 0.5059,-0.6071 0.7588,-1.3876 0.7588,-2.3416 0,-0.9684 -0.2529,-1.7489 -0.7588,-2.3415 -0.4914,-0.6071 -1.2141,-0.9106 -2.1681,-0.9106 -0.8239,0 -1.5177,0.2891 -2.0814,0.8672 -0.5637,0.5637 -0.8455,1.3081 -0.8455,2.2332 v 0.1517 c 0,0.6215 0.13,1.178 0.3902,1.6695 0.2746,0.4914 0.6288,0.8744 1.0624,1.1491 0.4481,0.2746 0.9395,0.4119 1.4743,0.4119 z"
         id="path12" />
      <path
         style="fill:#95befa;stroke-width:1.29407287"
         inkscape:connector-curvature="0"
         d="m 119.74586,71.022397 h 2.3416 v 1.95131 c 0.2312,-0.6649 0.607,-1.1997 1.1274,-1.60441 0.5203,-0.40471 1.1129,-0.60707 1.7778,-0.60707 0.4625,0 0.7805,0.04336 0.954,0.13009 l -0.3252,2.36319 c -0.1301,-0.0867 -0.412,-0.1301 -0.8456,-0.1301 -0.6793,0 -1.3009,0.2169 -1.8646,0.6505 -0.5492,0.4336 -0.8238,1.1274 -0.8238,2.0814 v 5.1167 h -2.3416 z"
         id="path14" />
      <path
         style="fill:#95befa;stroke-width:1.29407287"
         inkscape:connector-curvature="0"
         d="m 132.30696,81.190807 c -1.185,0 -2.175,-0.2313 -2.97,-0.6938 -0.795,-0.477 -1.38,-1.1057 -1.756,-1.8863 -0.376,-0.7949 -0.564,-1.6622 -0.564,-2.6017 0,-1.0551 0.217,-1.9802 0.651,-2.7751 0.448,-0.79502 1.062,-1.40208 1.842,-1.82125 0.781,-0.43362 1.663,-0.65043 2.646,-0.65043 1.532,0 2.666,0.42639 3.403,1.27918 0.752,0.8383 1.128,2.0236 1.128,3.5557 0,0.3902 -0.022,0.795 -0.065,1.2141 h -7.155 c 0.159,0.8817 0.47,1.5177 0.932,1.9079 0.477,0.3903 1.135,0.5854 1.973,0.5854 0.694,0 1.265,-0.0578 1.713,-0.1734 0.448,-0.1156 0.86,-0.2746 1.236,-0.477 l 0.715,1.6694 c -0.361,0.2313 -0.852,0.4337 -1.474,0.6071 -0.621,0.1735 -1.373,0.2602 -2.255,0.2602 z m 2.103,-6.0057 c 0.015,-0.8961 -0.18,-1.5249 -0.585,-1.8862 -0.405,-0.3758 -0.983,-0.5637 -1.734,-0.5637 -1.518,0 -2.393,0.8166 -2.624,2.4499 z"
         id="path16" />
      <path
         style="clip-rule:evenodd;fill:#285daa;fill-opacity:1;fill-rule:evenodd;stroke-width:1.29407287"
         inkscape:connector-curvature="0"
         d="m 29.525788,79.856807 c -0.47905,0 -0.86739,0.3883 -0.86739,0.8674 v 2.4248 c 0,0.479 0.38834,0.8673 0.86739,0.8673 h 7.33337 c 0.4791,0 0.8674,-0.3883 0.8674,-0.8673 v -2.4248 c 0,-0.4791 -0.3883,-0.8674 -0.8674,-0.8674 z m 6.36253,1.5278 h -5.39164 v 1.1039 h 5.39164 z"
         id="path20" />
      <path
         inkscape:connector-curvature="0"
         style="clip-rule:evenodd;fill:#95bef6;fill-opacity:1;fill-rule:evenodd;stroke-width:1.29407275"
         d="m 33.232121,62.724956 c -3.586793,-0.0234 -6.522238,2.69125 -6.544084,6.050921 -0.01942,2.97485 1.451661,4.427154 3.044596,5.999863 1.110531,1.096371 2.280291,2.251241 3.045727,4.021296 l 8.2e-5,7.9e-5 c 0.05162,0.04194 0.08601,0.0699 0.100817,0.08311 a 0.3757601,0.3757601 0 0 0 0.247108,0.09354 0.37624559,0.37624559 0 0 0 0.248403,-0.09029 c 0.0041,-0.0036 0.01128,-0.0067 0.02039,-0.01047 0.02468,-0.0107 0.0623,-0.02679 0.08172,-0.07153 0.762766,-1.753061 1.949195,-2.892399 3.08222,-3.980356 1.613405,-1.549322 3.118548,-2.994669 3.137887,-5.960535 0.02185,-3.359672 -2.878077,-6.112253 -6.46487,-6.135558 z m -0.06246,9.623475 c 1.77604,0.01151 3.225355,-1.440496 3.237087,-3.24324 0.01173,-1.802739 -1.418567,-3.273497 -3.194608,-3.285071 -1.776041,-0.01151 -3.225355,1.440498 -3.237088,3.243243 -0.01173,1.802738 1.418567,3.273495 3.194609,3.285068 z"
         id="path943" />
    </g>
    <g
       style="stroke-width:2.52992702"
       transform="matrix(0.39526834,0,0,0.39526834,73.89975,33.446765)"
       id="g973">
      <path
         style="fill:#005773;stroke-width:2.52992702"
         inkscape:connector-curvature="0"
         id="path6-5"
         d="m 217.9614,118.06273 c -4.2,-0.2 -8.5,-0.3 -12.7,-0.3 -4.2,0 -8.5,0.1 -12.7,0.3 -1.2,0.1 -2.3,0.1 -3.5,0.2 0.2,-2.6 0.4,-5.1 0.5,-7.7 0.1,-2.7 0.2,-5.4 0.3,-8.2 0,-1.2 0,-2.399996 0,-3.599996 0,-1.2 0,-2.4 0,-3.6 0,-2.7 -0.1,-5.4 -0.3,-8.2 -0.1,-2.6 -0.3,-5.1 -0.5,-7.7 -0.2,-2.7 -0.5,-5.5 -0.8,-8.2 -2.8,-0.2 -5.5,-0.4 -8.3,-0.7 0.3,2.8 0.6,5.5 0.8,8.3 0.6,6.7 0.8,13.4 0.8,20.1 0,6.599996 -0.3,13.399996 -0.8,20.099996 -0.1,1 -0.2,1.9 -0.3,2.9 -0.2,1.8 -0.4,3.6 -0.6,5.4 2.8,-0.3 5.5,-0.5 8.3,-0.7 5.7,-0.4 11.4,-0.6 17,-0.6 4.5,0 9,0.1 13.5,0.4 -0.3,-2.6 -0.5,-5.2 -0.7,-7.7 0,-0.2 0,-0.3 0,-0.5"
         class="st1" />
      <path
         style="fill:#005773;stroke-width:2.52992702"
         inkscape:connector-curvature="0"
         id="path8-9"
         d="m 228.8614,98.862734 c 0,-6.6 0.3,-13.4 0.8,-20.1 0.1,-1 0.2,-1.9 0.3,-2.9 0.2,-1.8 0.3,-3.6 0.6,-5.4 -2.8,0.3 -5.5,0.5 -8.3,0.7 -5.7,0.4 -11.4,0.6 -17,0.6 -4.5,0 -9,-0.1 -13.5,-0.4 0.3,2.6 0.5,5.2 0.7,7.7 0,0.2 0,0.3 0,0.5 4.2,0.2 8.5,0.3 12.7,0.3 4.2,0 8.5,-0.1 12.7,-0.3 1.2,-0.1 2.3,-0.1 3.5,-0.2 -0.2,2.6 -0.4,5.1 -0.5,7.7 h -3.5 -17 -7.4 c 0.1,2.7 0.2,5.4 0.2,8.1 0,0 0,0 0,0.1 h 7.3 16.7 3.6 c 0,1.2 0,2.4 0,3.6 0,1.199996 0,2.399996 0,3.599996 h -3.5 -24 c 0,0 0,0 0,0.1 0,2.7 -0.1,5.4 -0.2,8.1 h 24.5 3.5 c 0.1,2.6 0.3,5.1 0.5,7.7 0.2,2.7 0.5,5.5 0.8,8.2 2.8,0.2 5.5,0.4 8.3,0.7 -0.3,-2.8 -0.6,-5.5 -0.8,-8.3 -0.7,-6.7 -1,-13.4 -1,-20.099996"
         class="st1" />
      <path
         style="fill:#005773;stroke-width:2.52992702"
         inkscape:connector-curvature="0"
         id="path10-2"
         d="m 367.2614,105.36273 c -0.5,1 -1.1,1.8 -1.8,2.5 -0.8,0.7 -1.7,1.2 -2.7,1.6 -1,0.4 -2.1,0.6 -3.3,0.6 -1.2,0 -2.3,-0.2 -3.3,-0.6 -1,-0.4 -1.9,-0.9 -2.7,-1.6 -0.8,-0.7 -1.4,-1.5 -1.8,-2.5 -0.4,-1 -0.7,-2.1 -0.7,-3.3 V 87.162734 h 5.5 v 14.699996 c 0,1 0.3,1.9 0.8,2.4 0.5,0.6 1.2,0.8 2.2,0.8 0.9,0 1.7,-0.3 2.2,-0.8 0.5,-0.6 0.8,-1.4 0.8,-2.4 V 87.162734 h 5.5 v 14.799996 c 0,1.3 -0.2,2.4 -0.7,3.4"
         class="st1" />
      <path
         style="fill:#005773;stroke-width:2.52992702"
         inkscape:connector-curvature="0"
         id="path12-28"
         d="m 273.9614,87.162734 h -6 l -5,9.9 -5,-9.9 h -6 c 0.5,3.7 0.8,7.4 0.8,11.2 0,3.799996 -0.3,7.499996 -0.8,11.199996 h 6.1 V 98.862734 l 3.2,5.499996 h 3.5 l 3.2,-5.499996 v 10.699996 h 6.1 c -0.5,-3.7 -0.8,-7.4 -0.8,-11.199996 -0.2,-3.8 0.1,-7.5 0.7,-11.2"
         class="st1" />
      <path
         style="fill:#005773;stroke-width:2.52992702"
         inkscape:connector-curvature="0"
         id="path14-9"
         d="m 290.0614,87.162734 h -6.9 c 0.5,3.7 0.8,7.4 0.8,11.2 0,3.799996 -0.3,7.499996 -0.8,11.199996 h 6.9 c -0.5,-3.7 -0.8,-7.4 -0.8,-11.199996 0,-3.8 0.3,-7.5 0.8,-11.2"
         class="st1" />
      <path
         style="fill:#005773;stroke-width:2.52992702"
         inkscape:connector-curvature="0"
         id="path16-7"
         d="m 300.1614,98.362734 c 0,3.799996 -0.3,7.499996 -0.8,11.199996 h 15.8 v -4.9 h -9.7 v -3.9 h 8.3 v -4.899996 h -8.3 v -3.7 h 9.7 v -4.9 h -15.8 c 0.5,3.6 0.8,7.3 0.8,11.1"
         class="st1" />
      <path
         style="fill:#005773;stroke-width:2.52992702"
         inkscape:connector-curvature="0"
         id="path18-3"
         d="m 339.1614,99.462734 c 0.4,-0.4 0.8,-0.8 1.2,-1.3 0.3,-0.5 0.6,-1 0.9,-1.7 0.2,-0.6 0.3,-1.3 0.3,-2.1 0,-0.9 -0.2,-1.8 -0.5,-2.7 -0.3,-0.9 -0.8,-1.6 -1.5,-2.3 -0.6,-0.7 -1.4,-1.2 -2.4,-1.6 -1,-0.4 -2.1,-0.6 -3.3,-0.6 h -9.4 c 0.5,3.7 0.8,7.4 0.8,11.2 0,3.799996 -0.3,7.499996 -0.8,11.199996 h 6.1 v -8.3 h 1.9 l 4,8.3 h 6.4 l -4.8,-9.3 c 0.2,-0.2 0.7,-0.499996 1.1,-0.799996 m -3.8,-3.5 c -0.4,0.5 -1,0.7 -1.8,0.7 h -3.1 v -4.5 h 3.1 c 0.8,0 1.3,0.2 1.8,0.7 0.4,0.5 0.6,1 0.6,1.6 0,0.5 -0.2,1 -0.6,1.5"
         class="st1" />
      <path
         style="fill:#005773;stroke-width:2.52992702"
         inkscape:connector-curvature="0"
         id="path20-6"
         d="m 395.8614,87.162734 h -6.1 v 11.3 l -7.2,-11.3 h -5.4 c 0.5,3.7 0.8,7.4 0.8,11.2 0,3.799996 -0.3,7.499996 -0.8,11.199996 h 6.1 V 98.362734 l 7.2,11.299996 h 5.4 c -0.5,-3.7 -0.8,-7.4 -0.8,-11.199996 0,-3.9 0.2,-7.6 0.8,-11.3"
         class="st1" />
      <path
         style="fill:#005773;stroke-width:2.52992702"
         inkscape:connector-curvature="0"
         id="path22-1"
         d="m 420.9614,92.162734 v -4.9 h -15.8 c 0.5,3.7 0.8,7.4 0.8,11.2 0,3.799996 -0.3,7.499996 -0.8,11.199996 h 15.8 v -4.9 h -9.7 v -3.9 h 8.3 v -4.899996 h -8.3 v -3.7 h 9.7 z"
         class="st1" />
    </g>
  </g>
  <g
     id="g1124"
     transform="translate(0,-2)">
    <g
       transform="translate(-54.177039,5.202904)"
       id="g1112">
      <text
         id="text861"
         y="111.37709"
         x="146.33322"
         style="font-style:normal;font-variant:normal;font-weight:normal;font-stretch:normal;font-size:30.31994247px;line-height:1.25;font-family:serif;-inkscape-font-specification:serif;font-variant-ligatures:normal;font-variant-caps:normal;font-variant-numeric:normal;font-feature-settings:normal;text-align:start;letter-spacing:0px;word-spacing:0px;writing-mode:lr-tb;text-anchor:start;fill:#646464;fill-opacity:1;stroke:none;stroke-width:1"
         xml:space="preserve"
         transform="scale(1.0093925,0.99069492)"><tspan
           style="font-style:normal;font-variant:normal;font-weight:normal;font-stretch:normal;font-size:8.42220592px;font-family:Arial;-inkscape-font-specification:Arial;fill:#646464;fill-opacity:1;stroke-width:1"
           y="111.37709"
           x="146.33322"
           id="tspan859"
           sodipodi:role="line">2022</tspan></text>
      <rect
         ry="2.3"
         rx="2.3"
         y="101.42632"
         x="144.54031"
         height="11.93352"
         width="25.055155"
         id="rect885"
         style="opacity:1;fill:none;fill-opacity:1;stroke:#969696;stroke-width:0.79999995;stroke-linecap:butt;stroke-linejoin:bevel;stroke-miterlimit:4;stroke-dasharray:none;stroke-dashoffset:0;stroke-opacity:1" />
    </g>
    <g
       transform="translate(-54.985845,5.202904)"
       id="g1117">
      <text
         id="text861-83"
         y="111.37709"
         x="177.2482"
         style="font-style:normal;font-variant:normal;font-weight:normal;font-stretch:normal;font-size:30.31994247px;line-height:1.25;font-family:serif;-inkscape-font-specification:serif;font-variant-ligatures:normal;font-variant-caps:normal;font-variant-numeric:normal;font-feature-settings:normal;text-align:start;letter-spacing:0px;word-spacing:0px;writing-mode:lr-tb;text-anchor:start;fill:#646464;fill-opacity:1;stroke:none;stroke-width:1"
         xml:space="preserve"
         transform="scale(1.0093925,0.99069494)"><tspan
           style="font-style:normal;font-variant:normal;font-weight:normal;font-stretch:normal;font-size:8.42220592px;font-family:Arial;-inkscape-font-specification:Arial;fill:#646464;fill-opacity:1;stroke-width:1"
           y="111.37709"
           x="177.2482"
           id="tspan859-8"
           sodipodi:role="line">2023</tspan></text>
      <rect
         ry="2.3"
         rx="2.3"
         y="101.42632"
         x="175.74567"
         height="11.93352"
         width="25.055155"
         id="rect885-3"
         style="opacity:1;fill:none;fill-opacity:1;stroke:#969696;stroke-width:0.79999995;stroke-linecap:butt;stroke-linejoin:bevel;stroke-miterlimit:4;stroke-dasharray:none;stroke-dashoffset:0;stroke-opacity:1" />
    </g>
    <g
       transform="translate(-1.1420016,-10.061684)"
       id="g1084">
      <text
         id="text861-83-7"
         y="126.78505"
         x="154.01909"
         style="font-style:normal;font-variant:normal;font-weight:normal;font-stretch:normal;font-size:30.31994247px;line-height:1.25;font-family:serif;-inkscape-font-specification:serif;font-variant-ligatures:normal;font-variant-caps:normal;font-variant-numeric:normal;font-feature-settings:normal;text-align:start;letter-spacing:0px;word-spacing:0px;writing-mode:lr-tb;text-anchor:start;fill:#646464;fill-opacity:1;stroke:none;stroke-width:1"
         xml:space="preserve"
         transform="scale(1.0093925,0.99069492)"><tspan
           style="font-style:normal;font-variant:normal;font-weight:normal;font-stretch:normal;font-size:8.42220592px;font-family:Arial;-inkscape-font-specification:Arial;fill:#646464;fill-opacity:1;stroke-width:1"
           y="126.78505"
           x="154.01909"
           id="tspan859-8-8"
           sodipodi:role="line">2024</tspan></text>
      <rect
         ry="2.3"
         rx="2.3"
         y="116.69091"
         x="152.29837"
         height="11.93352"
         width="25.055155"
         id="rect885-3-6"
         style="opacity:1;fill:none;fill-opacity:1;stroke:#969696;stroke-width:0.79999995;stroke-linecap:butt;stroke-linejoin:bevel;stroke-miterlimit:4;stroke-dasharray:none;stroke-dashoffset:0;stroke-opacity:1" />
    </g>
  </g>
</svg>
