<svg width="200" height="48" viewBox="0 0 200 48" fill="none" xmlns="http://www.w3.org/2000/svg">
<g clip-path="url(#clip0_355_200)">
<path d="M28.2477 14.2261H23.2985C22.0494 14.2261 21.4494 14.7801 21.4494 15.9852V31.142L11.3765 15.5591C10.6765 14.4784 10.2273 14.2773 8.82734 14.2261H3.95446C2.65446 14.2261 2.05615 14.7801 2.05615 15.9852V44.7665C2.05615 45.9716 2.65446 46.5256 3.95446 46.5256H8.90361C10.2019 46.5256 10.8019 45.9716 10.8019 44.7665V29.6847L20.9239 45.1926C21.6748 46.3244 22.0748 46.5256 23.4731 46.5256H28.2731C29.5714 46.5256 30.1714 45.9716 30.1714 44.7665V15.9852C30.1206 14.7801 29.5223 14.2261 28.2477 14.2261Z" fill="#293136"/>
<path d="M6.42889 10.9602C9.43837 10.9602 11.878 8.50669 11.878 5.48011C11.878 2.45353 9.43837 0 6.42889 0C3.4194 0 0.979736 2.45353 0.979736 5.48011C0.979736 8.50669 3.4194 10.9602 6.42889 10.9602Z" fill="#293136"/>
<path d="M62.7697 25.0449C64.2104 23.1903 66.0579 22.2051 68.5358 22.2051C73.0325 22.2051 75.7409 25.3347 75.7409 29.4511V39.2489C75.7986 39.7125 75.5104 39.9443 75.0494 39.9443H73.4935C73.0325 39.9443 72.7443 39.7125 72.8019 39.2489V29.5091C72.8019 27.1909 70.8986 25.2187 68.4782 25.2187C66.1138 25.2187 64.2121 27.133 64.2121 29.2773V39.2489C64.2697 39.7125 63.9816 39.9443 63.5206 39.9443H61.963C61.5019 39.9443 61.2714 39.7125 61.2714 39.2489V29.4511C61.2714 27.133 59.3697 25.2187 57.0053 25.2187C54.7003 25.2187 52.7392 27.075 52.7392 29.2773V39.3068C52.7969 39.7705 52.5087 40.0023 51.9901 40.0023H50.4918C50.0308 40.0023 49.7426 39.7705 49.7426 39.3068V23.25C49.685 22.7864 49.9731 22.4966 50.4918 22.4966H51.9325C52.3358 22.4966 52.5087 22.6705 52.5087 23.0182V24.2352C53.7206 22.9602 55.2189 22.2648 57.0053 22.2648C59.4274 22.2068 61.3291 23.192 62.7697 25.0466V25.0449ZM78.1053 31.2477C78.1053 26.3216 82.0816 22.2051 87.0986 22.2051C89.5189 22.2051 91.5935 23.1903 93.324 25.1608V23.1903C93.324 22.7267 93.5545 22.5528 94.0155 22.5528H95.3986C95.8596 22.5528 96.0901 22.7847 96.0901 23.3062V39.3648C96.0901 39.8284 95.8596 40.0602 95.3986 40.0602H94.0155C93.5545 40.0602 93.324 39.8284 93.324 39.4227V37.4523C91.6511 39.3648 89.5765 40.35 87.1545 40.35C82.0816 40.2341 78.1036 36.1773 78.1036 31.2477H78.1053ZM93.0935 31.2477C93.0935 27.8284 90.4409 25.2187 87.0392 25.2187C83.7545 25.2187 81.1019 27.8864 81.1019 31.2477C81.1019 34.6688 83.7545 37.2784 87.0986 37.2784C87.8861 37.2789 88.666 37.1232 89.3936 36.8202C90.1213 36.5173 90.7824 36.0731 91.3392 35.513C91.896 34.9528 92.3375 34.2878 92.6385 33.556C92.9396 32.8241 93.0941 32.0397 93.0935 31.2477ZM101.971 37.3943V46.3807C102.029 46.8443 101.741 47.1341 101.278 47.1341H99.7223C99.2613 47.1341 98.9731 46.9023 98.9731 46.3807V23.1903C98.9731 22.7267 99.2036 22.4369 99.7223 22.4369H101.163C101.626 22.379 101.914 22.6687 101.914 23.0744V24.9869C103.585 23.0744 105.66 22.1472 108.024 22.1472C112.982 22.1472 117.017 26.2619 117.017 31.1898C117.017 36.1176 113.039 40.2341 108.024 40.2341C105.602 40.2341 103.583 39.3068 101.971 37.3943ZM107.966 25.2187C104.68 25.2187 102.029 27.8864 102.029 31.2477C102.029 34.6688 104.68 37.2784 108.024 37.2784C111.426 37.2784 114.019 34.6108 114.019 31.2477C114.019 27.8864 111.368 25.2187 107.966 25.2187ZM122.09 37.3943V46.3807C122.148 46.8443 121.86 47.1341 121.399 47.1341H119.841C119.38 47.1341 119.092 46.9023 119.092 46.3807V23.1903C119.092 22.7267 119.322 22.4369 119.841 22.4369H121.282C121.744 22.379 122.032 22.6687 122.032 23.0744V24.9869C123.704 23.0744 125.778 22.1472 128.143 22.1472C133.1 22.1472 137.136 26.2619 137.136 31.1898C137.136 36.1176 133.158 40.2341 128.143 40.2341C125.722 40.2341 123.761 39.3068 122.09 37.3943ZM128.085 25.2187C124.799 25.2187 122.148 27.8864 122.148 31.2477C122.148 34.6688 124.799 37.2784 128.143 37.2784C131.544 37.2784 134.138 34.6108 134.138 31.2477C134.138 27.8864 131.487 25.2187 128.087 25.2187H128.085ZM154.949 32.3506H142.034C142.322 35.2483 144.975 37.4523 148.144 37.4523C149.873 37.4523 151.373 37.0466 152.699 36.0597C152.987 35.8858 153.275 35.7699 153.332 35.7699C153.563 35.7699 153.736 35.8858 153.909 36.1773L154.485 37.1625C154.602 37.3364 154.66 37.4523 154.66 37.5682C154.66 37.8 154.487 38.0318 154.083 38.3216C152.238 39.5966 150.163 40.292 147.971 40.292C142.668 40.292 138.863 36.3511 138.863 31.2477C138.863 26.204 142.783 22.2051 147.683 22.2051C152.526 22.2051 155.697 25.7983 155.697 31.0176C155.697 31.5972 155.697 32.3506 154.948 32.3506H154.949ZM142.036 30.0324H152.7C152.412 26.8432 150.453 24.929 147.627 24.929C146.221 24.8904 144.854 25.3995 143.813 26.3501C142.771 27.3007 142.134 28.6194 142.036 30.0307V30.0324ZM157.312 31.2477C157.312 26.3216 161.29 22.2051 166.305 22.2051C168.727 22.2051 170.687 23.1324 172.3 25.0449V16.2324C172.243 15.7687 172.531 15.479 172.992 15.479H174.549C175.01 15.479 175.299 15.7108 175.299 16.2324V39.3068C175.299 39.7705 175.068 40.0023 174.549 40.0023H173.109C172.646 40.0602 172.358 39.7705 172.358 39.3648V37.3943C170.629 39.3068 168.612 40.292 166.248 40.292C161.29 40.2341 157.312 36.1773 157.312 31.2477ZM172.244 31.2477C172.244 27.8284 169.592 25.2187 166.19 25.2187C162.904 25.2187 160.253 27.8864 160.253 31.2477C160.253 34.6688 162.904 37.2784 166.248 37.2784C167.037 37.2838 167.819 37.1316 168.549 36.8304C169.279 36.5292 169.942 36.0852 170.499 35.5241C171.057 34.963 171.499 34.296 171.798 33.5619C172.097 32.8277 172.248 32.0411 172.243 31.2477H172.244ZM178.7 19.0739C178.695 18.8594 178.733 18.646 178.813 18.4468C178.892 18.2476 179.011 18.0667 179.161 17.915C179.312 17.7633 179.492 17.6439 179.69 17.5642C179.888 17.4845 180.101 17.446 180.314 17.4511C180.526 17.4507 180.736 17.4923 180.932 17.5737C181.128 17.6551 181.306 17.7746 181.456 17.9254C181.606 18.0762 181.725 18.2553 181.805 18.4523C181.886 18.6494 181.928 18.8606 181.927 19.0739C181.932 19.2884 181.894 19.5017 181.815 19.7009C181.736 19.9001 181.617 20.081 181.466 20.2327C181.315 20.3845 181.135 20.5038 180.937 20.5835C180.739 20.6633 180.527 20.7017 180.314 20.6966C179.392 20.7545 178.7 20.0591 178.7 19.0739ZM178.816 39.2489V23.1903C178.816 22.7267 179.046 22.4369 179.507 22.4369H181.063C181.524 22.4369 181.812 22.6687 181.755 23.1903V39.2489C181.812 39.7125 181.524 39.9443 181.063 39.9443H179.507C179.046 39.9443 178.816 39.7125 178.816 39.2489ZM187.924 23.0165V24.1756C189.192 22.8426 190.69 22.2051 192.477 22.2051C196.917 22.2051 199.626 25.2767 199.626 29.3932V39.2489C199.683 39.7125 199.395 39.9443 198.934 39.9443H197.378C196.916 39.9443 196.685 39.7125 196.685 39.2489V29.4511C196.685 27.133 194.783 25.2187 192.419 25.2187C190.114 25.2187 188.155 27.075 188.155 29.2773V39.3068C188.212 39.7705 187.924 40.0023 187.404 40.0023H185.848C185.387 40.0023 185.099 39.7705 185.099 39.3068V23.1903C185.041 22.7267 185.329 22.4949 185.848 22.4949H187.288C187.692 22.4949 187.924 22.6687 187.924 23.0165Z" fill="#293136"/>
</g>
<defs>
<clipPath id="clip0_355_200">
<rect width="200" height="47.7273" fill="white"/>
</clipPath>
</defs>
</svg>
