<?xml version="1.0" encoding="UTF-8"?>
<svg version="1.1" xmlns="http://www.w3.org/2000/svg" width="812" height="212">
<path d="M0 0 C3.58761157 3.05858361 6.89605068 6.3573638 10.20703125 9.7109375 C11.13545334 10.63790436 12.06387543 11.56487122 13.02043152 12.51992798 C14.97047917 14.46860248 16.91347042 16.42396064 18.85131836 18.38476562 C21.3182228 20.88011082 23.80045234 23.35951599 26.28795338 25.83431053 C28.68535772 28.2230372 31.07074226 30.6236058 33.45703125 33.0234375 C34.34042679 33.9038974 35.22382233 34.7843573 36.13398743 35.6914978 C46.87408405 46.59607528 52.34910979 57.65814295 52.4375 73.1875 C52.33632561 79.91315509 51.64317493 85.76345354 49 92 C48.69851044 92.74337112 48.39702087 93.48674225 48.08639526 94.25263977 C43.15490558 104.66196737 34.54555343 112.07892034 26.4453125 120.04296875 C24.816116 121.66282572 23.18803035 123.28380065 21.56100464 124.90583801 C17.30099428 129.14686888 13.02617956 133.37265998 8.74798584 137.59533691 C4.37494032 141.91699469 0.01622907 146.25305792 -4.34375 150.58789062 C-12.8819522 159.0726649 -21.43588133 167.54139084 -30 176 C-33.29815812 174.43388545 -35.49720472 172.7486877 -38.08203125 170.1484375 C-38.84966797 169.37886719 -39.61730469 168.60929688 -40.40820312 167.81640625 C-41.20162109 167.01074219 -41.99503906 166.20507812 -42.8125 165.375 C-43.59431641 164.59253906 -44.37613281 163.81007812 -45.18164062 163.00390625 C-48.61818067 159.54152756 -51.96149192 156.05665243 -55.13525391 152.3515625 C-59.6045826 147.2157756 -64.45872704 142.49167664 -69.31640625 137.7265625 C-70.30146173 136.75357058 -71.28598397 135.78003856 -72.27000427 134.80599976 C-76.40800686 130.71026005 -80.54875744 126.61742927 -84.70581055 122.54101562 C-87.26443009 120.031344 -89.81281102 117.51164699 -92.35511589 114.98545456 C-93.77581741 113.57923753 -95.20717184 112.18380873 -96.6388092 110.78872681 C-107.00240604 100.46680002 -113.02067569 89.64910124 -113.99609375 74.9140625 C-114.0251188 53.26137497 -102.2352055 40.03206816 -87.84458923 25.52627563 C-86.34615718 24.02519193 -84.84593431 22.5258939 -83.34399414 21.02832031 C-81.06180983 18.74931079 -78.79333611 16.45723186 -76.52539062 14.1640625 C-58.4089505 -4.03425606 -58.4089505 -4.03425606 -48.1875 -7.375 C-47.31480469 -7.67148438 -46.44210938 -7.96796875 -45.54296875 -8.2734375 C-29.2665712 -12.9238368 -13.77015905 -9.45635225 0 0 Z M-32.33509827 41.21484375 C-32.90135422 41.78332031 -33.46761017 42.35179687 -34.05102539 42.9375 C-34.69161392 43.57816406 -35.33220245 44.21882813 -35.99220276 44.87890625 C-36.68700241 45.57886719 -37.38180206 46.27882813 -38.09765625 47 C-39.16094398 48.06541016 -39.16094398 48.06541016 -40.24571228 49.15234375 C-42.52032021 51.43257148 -44.79143597 53.71624311 -47.0625 56 C-48.59938144 57.54189389 -50.13648782 59.08356362 -51.67382812 60.625 C-55.45183745 64.41406458 -59.22698153 68.20596604 -63 72 C-61.68623083 74.90543872 -60.27943508 76.96661059 -58.01904297 79.20800781 C-57.11833572 80.10848846 -57.11833572 80.10848846 -56.19943237 81.02716064 C-55.23059616 81.980513 -55.23059616 81.980513 -54.2421875 82.953125 C-53.57913605 83.61334656 -52.91608459 84.27356812 -52.23294067 84.95379639 C-50.11828168 87.05727824 -47.99676788 89.15369142 -45.875 91.25 C-44.43834443 92.67662261 -43.00214102 94.10370072 -41.56640625 95.53125 C-38.04949196 99.02613661 -34.52641453 102.51470062 -31 106 C-26.33125463 102.10023279 -21.90872191 98.04785356 -17.62890625 93.7265625 C-17.06171371 93.15795502 -16.49452118 92.58934753 -15.91014099 92.00350952 C-14.12520087 90.21303764 -12.34379744 88.41909516 -10.5625 86.625 C-9.34203061 85.39950677 -8.12132947 84.17424428 -6.90039062 82.94921875 C-3.93091244 79.96880226 -0.96459743 76.98527106 2 74 C0.68809387 71.10221359 -0.7164972 69.03448517 -2.96508789 66.79199219 C-3.5623317 66.19167175 -4.1595755 65.59135132 -4.7749176 64.97283936 C-5.41767136 64.33727112 -6.06042511 63.70170288 -6.72265625 63.046875 C-7.38333603 62.38665344 -8.04401581 61.72643188 -8.72471619 61.04620361 C-10.11855504 59.65538059 -11.5148183 58.26698355 -12.91333008 56.88085938 C-15.06326575 54.74924078 -17.20503116 52.60966748 -19.34570312 50.46875 C-20.7000486 49.11931755 -22.05485052 47.77034301 -23.41015625 46.421875 C-24.37732323 45.45637726 -24.37732323 45.45637726 -25.36402893 44.47137451 C-28.49838135 40.2922694 -28.49838135 40.2922694 -32.33509827 41.21484375 Z " fill="#761EE7" transform="translate(159,23)"/>
<path d="M0 0 C3.28071116 2.7928188 6.28392074 5.8137135 9.2890625 8.8984375 C10.11836273 9.73339752 10.94766296 10.56835754 11.80209351 11.42861938 C14.41936717 14.06808145 17.02229635 16.72117785 19.625 19.375 C21.40922213 21.17930961 23.19437001 22.98270429 24.98046875 24.78515625 C29.33106618 29.17958816 33.67000903 33.58526738 38 38 C33.97251947 42.83298806 29.75620587 47.38110004 25.2890625 51.80859375 C24.67606293 52.42017838 24.06306335 53.031763 23.43148804 53.66188049 C21.49835436 55.58947559 19.56175013 57.51353928 17.625 59.4375 C16.30315301 60.75432404 14.98153628 62.07137926 13.66015625 63.38867188 C10.44275701 66.59512373 7.22224319 69.79841629 4 73 C1.09456128 71.68623083 -0.96661059 70.27943508 -3.20800781 68.01904297 C-3.80832825 67.41857147 -4.40864868 66.81809998 -5.02716064 66.19943237 C-5.66272888 65.55354156 -6.29829712 64.90765076 -6.953125 64.2421875 C-7.61334656 63.57913605 -8.27356812 62.91608459 -8.95379639 62.23294067 C-11.05727824 60.11828168 -13.15369142 57.99676788 -15.25 55.875 C-16.67662261 54.43834443 -18.10370072 53.00214102 -19.53125 51.56640625 C-23.02613661 48.04949196 -26.51470062 44.52641453 -30 41 C-34.57371945 44.82175612 -38.9104695 48.77962988 -43.08984375 53.02734375 C-43.6380629 53.57934952 -44.18628204 54.13135529 -44.75111389 54.7000885 C-47.06216815 57.02725697 -49.36714766 59.36040648 -51.67260742 61.69311523 C-62.71025952 72.84956942 -62.71025952 72.84956942 -66.94140625 76.4453125 C-73.3242145 81.87686506 -79.09884911 87.99531513 -85 93.9375 C-86.2640885 95.20661373 -87.52840956 96.47549589 -88.79296875 97.74414062 C-91.86466724 100.8267632 -94.93320008 103.91250428 -98 107 C-104.30252116 104.07196729 -107.54212904 98.28675698 -110.3046875 92.05859375 C-115.35091783 77.9328322 -114.99242517 63.76043399 -108.62475586 50.0480957 C-102.66473602 38.86690145 -92.22434359 29.88285201 -83.34399414 21.02832031 C-81.06180983 18.74931079 -78.79333611 16.45723186 -76.52539062 14.1640625 C-58.4089505 -4.03425606 -58.4089505 -4.03425606 -48.1875 -7.375 C-47.31480469 -7.67148438 -46.44210938 -7.96796875 -45.54296875 -8.2734375 C-29.23806311 -12.93198197 -13.80836547 -9.42678723 0 0 Z " fill="#FA3A1B" transform="translate(159,23)"/>
<path d="M0 0 C6.35275701 2.95876209 9.47639431 8.68182667 12.33984375 14.91796875 C17.02841198 28.08266746 16.73844925 42.86195832 10.82492065 55.51411438 C7.1290938 62.70682779 2.66745479 68.00240923 -3.1171875 73.60546875 C-3.97434357 74.45555008 -4.83149963 75.30563141 -5.71463013 76.18147278 C-8.42312491 78.86224538 -11.14856855 81.52498436 -13.875 84.1875 C-15.72771729 86.01510613 -17.57929132 87.84387199 -19.4296875 89.67382812 C-23.94000374 94.12936935 -28.46432438 98.57028463 -33 103 C-37.71689961 99.05490136 -42.20284243 94.95634234 -46.5546875 90.61328125 C-47.14170441 90.02959274 -47.72872131 89.44590424 -48.33352661 88.8445282 C-49.55991383 87.62316037 -50.78498995 86.40047474 -52.00878906 85.17651367 C-53.88588573 83.30162708 -55.77087161 81.43491332 -57.65625 79.56835938 C-58.85205056 78.37548906 -60.04738032 77.18214656 -61.2421875 75.98828125 C-61.80565887 75.43199539 -62.36913025 74.87570953 -62.94967651 74.30256653 C-65.35101586 71.88696157 -66.9076047 70.27718591 -68 67 C-63.45039225 62.42485803 -58.89672678 57.85378313 -54.34033203 53.28540039 C-52.79351499 51.73358112 -51.24759993 50.18086219 -49.70263672 48.62719727 C-47.47084213 46.3831559 -45.23573155 44.14246196 -43 41.90234375 C-42.31945557 41.21663803 -41.63891113 40.53093231 -40.93774414 39.82444763 C-37.05882005 35.94507968 -33.06794648 32.27359259 -28.91552734 28.68968201 C-25.92453549 26.05133537 -23.11850791 23.24252965 -20.3125 20.41015625 C-19.43053955 19.52607338 -19.43053955 19.52607338 -18.53076172 18.62413025 C-16.68477639 16.77262382 -14.84233108 14.91764183 -13 13.0625 C-11.7359115 11.79338627 -10.47159044 10.52450411 -9.20703125 9.25585938 C-6.13533276 6.1732368 -3.06679992 3.08749572 0 0 Z " fill="#03A0C3" transform="translate(196,62)"/>
<path d="M0 0 C3.28071116 2.7928188 6.28392074 5.8137135 9.2890625 8.8984375 C10.11836273 9.73339752 10.94766296 10.56835754 11.80209351 11.42861938 C14.41936717 14.06808145 17.02229635 16.72117785 19.625 19.375 C21.40922213 21.17930961 23.19437001 22.98270429 24.98046875 24.78515625 C29.33106618 29.17958816 33.67000903 33.58526738 38 38 C33.97251947 42.83298806 29.75620587 47.38110004 25.2890625 51.80859375 C24.67606293 52.42017838 24.06306335 53.031763 23.43148804 53.66188049 C21.49835436 55.58947559 19.56175013 57.51353928 17.625 59.4375 C16.30315301 60.75432404 14.98153628 62.07137926 13.66015625 63.38867188 C10.44275701 66.59512373 7.22224319 69.79841629 4 73 C1.11206015 71.69149364 -0.95350175 70.29553519 -3.1887207 68.05419922 C-3.78646805 67.4595285 -4.38421539 66.86485779 -5.00007629 66.25216675 C-5.63555893 65.6094986 -6.27104156 64.96683044 -6.92578125 64.3046875 C-7.59159714 63.63841339 -8.25741302 62.97213928 -8.94340515 62.28567505 C-10.35193182 60.87412939 -11.75802933 59.46015619 -13.16186523 58.04394531 C-15.28911149 55.89858764 -17.42410443 53.76119566 -19.56054688 51.625 C-20.93276149 50.24786382 -22.30452063 48.8702736 -23.67578125 47.4921875 C-24.30519119 46.86166473 -24.93460114 46.23114197 -25.58308411 45.58151245 C-29.30624883 41.81922867 -32.8277385 37.9360509 -36.28999329 33.93338013 C-38.93820951 30.93923479 -41.75110349 28.12481551 -44.58984375 25.3125 C-45.47392662 24.43053955 -45.47392662 24.43053955 -46.37586975 23.53076172 C-48.22737618 21.68477639 -50.08235817 19.84233108 -51.9375 18 C-53.20661373 16.7359115 -54.47549589 15.47159044 -55.74414062 14.20703125 C-58.8267632 11.13533276 -61.91250428 8.06679992 -65 5 C-63.29240748 -0.12277757 -58.508265 -2.33630103 -54 -5 C-35.39738565 -13.2981036 -16.79254082 -11.46404401 0 0 Z " fill="#FEAA01" transform="translate(159,23)"/>
<path d="M0 0 C2.88716662 1.72131287 5.32294286 3.60680358 7.4375 6.25 C7.4375 6.91 7.4375 7.57 7.4375 8.25 C8.39849609 7.41855469 8.39849609 7.41855469 9.37890625 6.5703125 C17.21786399 0.0047473 23.05221773 -2.28574478 33.30859375 -2.0546875 C40.52029199 -1.35242475 46.44882088 0.67639991 51.4375 6.0625 C57.86622154 14.35216724 58.59434061 22.84384238 58.53515625 33.0234375 C58.5337413 33.9471817 58.53232635 34.8709259 58.53086853 35.82266235 C58.52529609 38.75680862 58.51274869 41.69087701 58.5 44.625 C58.49498144 46.62109264 58.49041915 48.61718649 58.48632812 50.61328125 C58.47533569 55.49221725 58.4580901 60.37109545 58.4375 65.25 C52.8275 65.25 47.2175 65.25 41.4375 65.25 C41.38142578 61.29193359 41.38142578 61.29193359 41.32421875 57.25390625 C41.27788556 54.672202 41.22669503 52.090636 41.17504883 49.5090332 C41.14198362 47.72754457 41.11389558 45.94595582 41.09106445 44.16430664 C41.05717693 41.58957614 41.00484857 39.0157482 40.94921875 36.44140625 C40.94282883 35.65665421 40.9364389 34.87190216 40.92985535 34.06336975 C40.76457338 27.71643273 39.96183132 20.77433132 35.3125 16.125 C31.13648516 14.85403896 27.61988015 15.01274417 23.4375 16.25 C19.19718542 19.40768107 17.77065569 22.22581009 16.4375 27.25 C16.12689139 30.21539388 16.06645275 33.16845956 16.0234375 36.1484375 C16.00407135 36.98339752 15.9847052 37.81835754 15.9647522 38.67861938 C15.90530386 41.32731126 15.85871106 43.97604743 15.8125 46.625 C15.77428818 48.42840364 15.73523461 50.23178966 15.6953125 52.03515625 C15.59805725 56.44000883 15.51821447 60.84468945 15.4375 65.25 C9.8275 65.25 4.2175 65.25 -1.5625 65.25 C-1.58828125 62.4553125 -1.6140625 59.660625 -1.640625 56.78125 C-1.67911342 54.05393702 -1.72425165 51.32680878 -1.77001953 48.59960938 C-1.79812497 46.71428346 -1.81939106 44.82884201 -1.83349609 42.94335938 C-1.85507089 40.222059 -1.90179349 37.50213269 -1.953125 34.78125 C-1.95435364 33.94758911 -1.95558228 33.11392822 -1.95684814 32.25500488 C-2.09458659 26.66527217 -3.07116425 21.768441 -6.5625 17.25 C-10.25865945 14.94196758 -13.23211068 14.87014129 -17.5625 15.25 C-21.25023373 16.92624261 -23.42033496 18.82253594 -25.5625 22.25 C-26.44815586 24.90696758 -26.7075262 26.53190083 -26.76782227 29.26245117 C-26.78776749 30.06305466 -26.80771271 30.86365814 -26.82826233 31.68852234 C-26.85333107 32.97772331 -26.85333107 32.97772331 -26.87890625 34.29296875 C-26.89968735 35.1765657 -26.92046844 36.06016266 -26.94187927 36.97053528 C-27.00725754 39.79277785 -27.06620528 42.61511335 -27.125 45.4375 C-27.16819637 47.35092106 -27.21181102 49.26433273 -27.25585938 51.17773438 C-27.36292695 55.86839437 -27.46422752 60.55914783 -27.5625 65.25 C-33.1725 65.25 -38.7825 65.25 -44.5625 65.25 C-44.5625 43.47 -44.5625 21.69 -44.5625 -0.75 C-39.2825 -0.75 -34.0025 -0.75 -28.5625 -0.75 C-28.5625 0.9 -28.5625 2.55 -28.5625 4.25 C-28.01980469 3.90066406 -27.47710937 3.55132812 -26.91796875 3.19140625 C-26.20253906 2.73636719 -25.48710937 2.28132813 -24.75 1.8125 C-24.04230469 1.36003906 -23.33460938 0.90757813 -22.60546875 0.44140625 C-16.20110396 -3.29345276 -6.62356785 -3.18681094 0 0 Z " fill="#333359" transform="translate(304.5625,73.75)"/>
<path d="M0 0 C1.12426392 0.01244751 1.12426392 0.01244751 2.27124023 0.02514648 C11.29237112 0.30041392 17.24750887 3.39186082 23.8359375 9.5078125 C31.41277747 17.68021194 33.49986311 26.50053565 33.625 37.4375 C32.91917124 47.39752807 29.57318314 54.93988786 22.3125 61.8125 C14.51403803 68.33933256 5.58917241 70.06937435 -4.375 69.4375 C-10.65049918 68.62075464 -15.79344601 67.01905399 -20.375 62.4375 C-20.705 72.9975 -21.035 83.5575 -21.375 94.4375 C-26.985 94.4375 -32.595 94.4375 -38.375 94.4375 C-38.375 63.7475 -38.375 33.0575 -38.375 1.4375 C-33.095 1.4375 -27.815 1.4375 -22.375 1.4375 C-21.715 3.4175 -21.055 5.3975 -20.375 7.4375 C-19.3540625 6.5403125 -19.3540625 6.5403125 -18.3125 5.625 C-12.36557856 1.19644148 -7.25954822 -0.10364954 0 0 Z M-15.125 21.5625 C-18.50198966 25.87754234 -20.54403614 30.23109573 -20.25 35.80859375 C-19.2062045 41.33511812 -17.355913 46.26771979 -12.65234375 49.69140625 C-7.66705539 52.53589484 -3.04366078 53.30149663 2.625 52.4375 C7.84737666 50.52932391 11.78392696 47.39866643 14.7421875 42.640625 C16.73633429 37.66408169 16.5260309 31.31977497 14.9375 26.23828125 C12.43609095 21.43349137 8.67072703 18.61649111 3.6875 16.6875 C-3.81871237 15.77765608 -9.06940907 16.88317973 -15.125 21.5625 Z " fill="#333359" transform="translate(497.375,71.5625)"/>
<path d="M0 0 C0 -1.98 0 -3.96 0 -6 C5.28 -6 10.56 -6 16 -6 C16 15.78 16 37.56 16 60 C10.72 60 5.44 60 0 60 C0 57.69 0 55.38 0 53 C-0.66 53 -1.32 53 -2 53 C-2.33 53.99 -2.66 54.98 -3 56 C-4.92578125 57.3515625 -4.92578125 57.3515625 -7.3125 58.625 C-8.09238281 59.05039063 -8.87226563 59.47578125 -9.67578125 59.9140625 C-17.80979799 63.71449385 -28.32091378 63.01026998 -36.65234375 60.09765625 C-45.8394463 55.802189 -50.36686877 49.43861063 -54.10546875 40.296875 C-56.7003756 30.73311352 -56.33982016 18.35794231 -52.3203125 9.29296875 C-47.65175073 1.18514106 -41.3779121 -4.10744448 -32.3671875 -6.78125 C-19.89487836 -9.48180696 -10.47776841 -6.98517894 0 0 Z M-34.375 14.5 C-38.36553478 20.63928428 -38.91767406 25.69606358 -38 33 C-35.97403048 38.19050043 -32.6539524 41.93818921 -28 45 C-22.90393486 46.69868838 -17.00710632 47.01153119 -11.86328125 45.28125 C-7.14504183 42.74302142 -4.30820364 39.35476655 -1.75 34.75 C0.10655791 27.942621 -0.64254808 22.23526786 -4 16 C-6.76085873 11.81111089 -9.24637045 9.67257336 -14 8 C-22.14547151 6.87931432 -28.65166149 8.47543315 -34.375 14.5 Z " fill="#333359" transform="translate(430,79)"/>
<path d="M0 0 C11.33333333 11.33333333 22.66666667 22.66666667 34 34 C32.67005617 36.95265112 31.22220684 39.02350216 28.92724609 41.29980469 C28.30675385 41.92014587 27.6862616 42.54048706 27.04696655 43.17962646 C26.37920197 43.83706848 25.71143738 44.4945105 25.0234375 45.171875 C24.33819 45.8542926 23.6529425 46.53671021 22.94692993 47.23980713 C20.76094155 49.41461598 18.56809571 51.58236072 16.375 53.75 C14.89016745 55.2247999 13.40578694 56.70005506 11.921875 58.17578125 C8.2864709 61.78915448 4.64490176 65.39620853 1 69 C-2.29815812 67.43388545 -4.49720472 65.7486877 -7.08203125 63.1484375 C-7.84966797 62.37886719 -8.61730469 61.60929687 -9.40820312 60.81640625 C-10.59833008 59.60791016 -10.59833008 59.60791016 -11.8125 58.375 C-12.59431641 57.59253906 -13.37613281 56.81007812 -14.18164062 56.00390625 C-18.98740751 51.16200578 -23.57429924 46.18991552 -28 41 C-30.97 37.535 -30.97 37.535 -34 34 C-22.78 22.78 -11.56 11.56 0 0 Z " fill="#3A1888" transform="translate(128,130)"/>
<path d="M0 0 C2.12109375 1.66015625 2.12109375 1.66015625 6.12109375 6.66015625 C-5.09890625 17.88015625 -16.31890625 29.10015625 -27.87890625 40.66015625 C-35.75390625 33.91015625 -35.75390625 33.91015625 -38.24389648 31.40869141 C-38.80394882 30.84856354 -39.36400116 30.28843567 -39.94102478 29.71133423 C-40.5173616 29.12983612 -41.09369843 28.54833801 -41.6875 27.94921875 C-42.29908463 27.33621918 -42.91066925 26.7232196 -43.54078674 26.09164429 C-45.46838184 24.15851061 -47.39244553 22.22190638 -49.31640625 20.28515625 C-50.63323029 18.96330926 -51.95028551 17.64169253 -53.26757812 16.3203125 C-56.47402998 13.10291326 -59.67732254 9.88239944 -62.87890625 6.66015625 C-61.17131373 1.53737868 -56.38717125 -0.67614478 -51.87890625 -3.33984375 C-34.24137728 -11.20744988 -16.53137771 -10.00803474 0 0 Z " fill="#FBC834" transform="translate(156.87890625,21.33984375)"/>
<path d="M0 0 C7.2097088 3.6048544 10.787408 10.55899434 13.4375 18 C17.70287356 33.53552007 15.19752637 47.65199177 7.59765625 61.5546875 C5.96460156 64.05417951 4.18249147 65.97306408 2 68 C-0.88905436 66.69189672 -2.94699807 65.29916484 -5.17626953 63.05078125 C-5.77013458 62.45676514 -6.36399963 61.86274902 -6.9758606 61.25073242 C-7.91980179 60.29130737 -7.91980179 60.29130737 -8.8828125 59.3125 C-9.86602982 58.32503784 -9.86602982 58.32503784 -10.86911011 57.31762695 C-12.95915492 55.2164061 -15.04213811 53.10833886 -17.125 51 C-18.5346947 49.58027073 -19.94484587 48.16099455 -21.35546875 46.7421875 C-24.45704685 43.62095604 -27.55419007 40.49540023 -30.64749146 37.3659668 C-31.76168244 36.24068896 -32.88025186 35.11974814 -34 34 C-22.78 22.78 -11.56 11.56 0 0 Z " fill="#06CFDD" transform="translate(196,62)"/>
<path d="M0 0 C2.99943905 1.34572887 5.08076179 2.83537101 7.39160156 5.16455078 C8.35214447 6.12532028 8.35214447 6.12532028 9.33209229 7.10549927 C10.01140808 7.79513763 10.69072388 8.484776 11.390625 9.1953125 C12.09523865 9.90275604 12.79985229 10.61019958 13.52581787 11.33908081 C15.7719539 13.59639862 18.01103009 15.86057633 20.25 18.125 C21.77297717 19.65800953 23.29640939 21.19056715 24.8203125 22.72265625 C28.55216815 26.47654573 32.27825351 30.23608914 36 34 C32.03627475 38.75085867 27.90205218 43.23613112 23.5078125 47.58984375 C22.91700897 48.17923233 22.32620544 48.76862091 21.71749878 49.37586975 C19.85569596 51.23213727 17.99042255 53.08487085 16.125 54.9375 C14.85132989 56.20614672 13.57789029 57.4750249 12.3046875 58.74414062 C9.20577957 61.83210554 6.10375699 64.91690929 3 68 C-3.30252116 65.07196729 -6.54212904 59.28675698 -9.3046875 53.05859375 C-14.48120413 38.56812568 -13.6996731 24.81318312 -7.44140625 10.74609375 C-5.37647005 6.8120825 -2.88426286 3.36992912 0 0 Z " fill="#F0175D" transform="translate(58,62)"/>
<path d="M0 0 C6.16041346 5.10835044 12.00817201 11.46259124 13.74609375 19.45703125 C13.77066192 21.45688035 13.77379192 23.45722306 13.74609375 25.45703125 C6.27316041 27.45777848 -1.20179799 29.4508158 -8.67822266 31.43847656 C-11.22199158 32.11573272 -13.76528961 32.79476013 -16.30810547 33.47558594 C-19.96069286 34.45321955 -23.61491985 35.42449521 -27.26953125 36.39453125 C-28.40819641 36.70076416 -29.54686157 37.00699707 -30.72003174 37.32250977 C-31.78082947 37.60280029 -32.8416272 37.88309082 -33.93457031 38.171875 C-34.86722717 38.4205835 -35.79988403 38.66929199 -36.76080322 38.92553711 C-39.25390625 39.45703125 -39.25390625 39.45703125 -43.25390625 39.45703125 C-40.49587691 46.52448143 -35.3680091 50.60054686 -29.00390625 54.39453125 C-21.76252592 56.44625568 -14.88362537 56.58949597 -7.94140625 53.45703125 C-1.91158092 50.05857897 1.95996448 45.13622515 5.74609375 39.45703125 C7.72609375 40.11703125 9.70609375 40.77703125 11.74609375 41.45703125 C10.89095819 47.46409463 7.91716899 51.18054977 3.74609375 55.45703125 C-5.69767329 62.48772217 -14.57799055 64.48801718 -26.25390625 63.45703125 C-36.01847486 61.10283389 -43.77123605 55.39098706 -49 46.87109375 C-53.68810226 37.84540154 -54.66064869 28.33405215 -52.25390625 18.45703125 C-49.08955856 9.21419241 -43.24428672 2.08170807 -34.6171875 -2.4609375 C-23.30855686 -7.63860806 -10.39545257 -7.11647099 0 0 Z M-40.55859375 11.1875 C-45.5362109 17.85108425 -46.78047231 24.29525732 -46.25390625 32.45703125 C-35.30846812 30.8775426 -24.71498349 27.73510706 -14.06640625 24.83203125 C-12.14138818 24.31078362 -10.21625882 23.78994676 -8.29101562 23.26953125 C-3.61068195 22.0034333 1.06810788 20.73177524 5.74609375 19.45703125 C2.67195714 11.4321866 -2.50761674 6.1109414 -10.25390625 2.45703125 C-21.71779612 -0.99847934 -32.57860047 2.48058425 -40.55859375 11.1875 Z " fill="#333359" transform="translate(694.25390625,77.54296875)"/>
<path d="M0 0 C0 6.6 0 13.2 0 20 C7.59 20 15.18 20 23 20 C23 21.98 23 23.96 23 26 C15.41 26 7.82 26 0 26 C0.09716416 31.99605122 0.20003867 37.99144811 0.31738281 43.98706055 C0.35555836 46.02476105 0.39043077 48.06252631 0.421875 50.1003418 C0.46777432 53.03718134 0.52572716 55.97357941 0.5859375 58.91015625 C0.59748871 59.81459976 0.60903992 60.71904327 0.62094116 61.65089417 C0.73945585 66.78261608 1.21163127 71.16856449 3 76 C6.37834895 79.08025934 9.47782021 79.40117916 13.99609375 79.23828125 C16.82911069 78.90141179 19.36014081 78.05594367 22 77 C25 81.75 25 81.75 25 84 C18.01661776 87.1622863 11.19009969 88.53363547 3.66015625 86.30859375 C-1.05732089 84.20900895 -3.6132443 81.67804117 -6 77 C-6.81785315 73.6873598 -7.12290699 70.61523571 -7.11352539 67.2097168 C-7.11344986 66.28913986 -7.11337433 65.36856293 -7.11329651 64.42008972 C-7.10813522 63.4397023 -7.10297394 62.45931488 -7.09765625 61.44921875 C-7.0962413 60.43527542 -7.09482635 59.42133209 -7.09336853 58.37666321 C-7.08778328 55.14691179 -7.07523345 51.91723038 -7.0625 48.6875 C-7.0574831 46.49414163 -7.05292052 44.30078217 -7.04882812 42.10742188 C-7.03781867 36.73825439 -7.02056414 31.36913905 -7 26 C-11.62 26 -16.24 26 -21 26 C-21 24.02 -21 22.04 -21 20 C-16.38 20 -11.76 20 -7 20 C-7 13.73 -7 7.46 -7 1 C-4 0 -4 0 0 0 Z " fill="#333359" transform="translate(559,53)"/>
<path d="M0 0 C-0.33 1.98 -0.66 3.96 -1 6 C-3.74527409 7.05587465 -4.82297037 7.06743986 -7.625 6 C-13.7263683 4.19218717 -19.68594404 4.93808831 -25.3125 7.9375 C-30.05351902 11.51426067 -32.31550909 15.30319214 -34 21 C-34.94858212 28.32257104 -34.79270044 35.75476488 -34.8125 43.125 C-34.83567081 45.15106827 -34.86104146 47.17711264 -34.88867188 49.203125 C-34.95118761 54.13550591 -34.98378852 59.06725843 -35 64 C-37.64 64 -40.28 64 -43 64 C-43 42.22 -43 20.44 -43 -2 C-40.36 -2 -37.72 -2 -35 -2 C-34.67 0.31 -34.34 2.62 -34 5 C-33.50371094 4.59007813 -33.00742187 4.18015625 -32.49609375 3.7578125 C-22.27520663 -4.34907709 -11.87311861 -4.81807712 0 0 Z " fill="#333359" transform="translate(766,75)"/>
<path d="M0 0 C2.64 0 5.28 0 8 0 C8 30.69 8 61.38 8 93 C5.36 93 2.72 93 0 93 C0 62.31 0 31.62 0 0 Z " fill="#333359" transform="translate(620,46)"/>
<path d="M0 0 C2.64 0 5.28 0 8 0 C8 21.78 8 43.56 8 66 C5.36 66 2.72 66 0 66 C0 44.22 0 22.44 0 0 Z " fill="#333359" transform="translate(595,73)"/>
<path d="M0 0 C2 2 2 2 2.3125 4.9375 C2 8 2 8 0.9375 9.9375 C-2.15212727 11.63181173 -4.67217418 10.73951685 -8 10 C-9 9 -9 9 -9.3125 5.625 C-9 2 -9 2 -7.3125 0 C-4.39120636 -1.26326211 -2.98201353 -1.02016252 0 0 Z " fill="#333359" transform="translate(603,47)"/>
</svg>
