<?xml version="1.0" encoding="UTF-8"?>
<svg width="221px" height="40px" viewBox="0 0 221 40" version="1.1" xmlns="http://www.w3.org/2000/svg" xmlns:xlink="http://www.w3.org/1999/xlink">
    <!-- Generator: Sketch 57.1 (83088) - https://sketch.com -->
    <title>Misc/Logo/JawgMaps/Blue@2x</title>
    <desc>Created with Sketch.</desc>
    <g id="Misc/Logo/JawgMaps/Blue" stroke="none" stroke-width="1" fill="none" fill-rule="evenodd">
        <g id="logo" transform="translate(0.000000, -0.000000)" fill="#0094FF">
            <path d="M23.1472081,18.3756345 C23.1472081,20.1143281 21.7383311,21.5228426 20.0002335,21.5228426 C18.2621359,21.5228426 16.8527919,20.1143281 16.8527919,18.3756345 C16.8527919,16.637408 18.2621359,15.2284264 20.0002335,15.2284264 C21.7383311,15.2284264 23.1472081,16.637408 23.1472081,18.3756345 M31.2276036,3.44811497 L31.2276036,7.76642404 L31.2276036,18.4378499 C31.2276036,18.9557671 31.0638298,21.7758492 27.8200821,26.4231056 C27.5191303,26.8542367 27.1915827,27.3007652 26.835573,27.7612915 C26.6372714,28.0188503 26.4175065,28.2801418 26.2070735,28.5400336 C25.7110862,29.1522023 25.1880366,29.769037 24.6253266,30.3919373 C23.6832773,31.4333707 22.6581747,32.4864688 21.5425532,33.5446995 L20.0027996,35.0037327 L19.9972004,35.0093318 L18.4527809,33.5446995 C13.9842292,29.3122434 8.76633072,22.8158828 8.76633072,18.4378499 C8.76633072,18.3342665 8.77799552,18.2320829 8.78079507,18.1284994 C8.7849944,17.9511945 8.79292647,17.7752893 8.80552445,17.6003173 C8.81252333,17.5018664 8.81765584,17.4029489 8.82792087,17.3049645 C8.85591639,17.0142777 8.89744308,16.726857 8.94783501,16.4427025 C8.95483389,16.4067749 8.960433,16.3703807 8.96743188,16.3344532 C9.38969765,14.0812803 10.4899216,12.0637365 12.0506719,10.5067189 C12.2275103,10.3275476 12.4094811,10.152109 12.6003173,9.98506906 C12.662374,9.93141097 12.7286301,9.88428518 12.7911534,9.83249347 C12.8616088,9.77370287 12.933464,9.71771183 13.0048526,9.6612542 C13.2176185,9.49234789 13.4345838,9.33137365 13.6571482,9.17879806 C13.6809444,9.16246734 13.7052072,9.14567003 13.7290034,9.1298059 C14.3854983,8.68747667 15.0779209,8.30813736 15.8090705,8.01465099 C15.8837253,7.9847891 15.960713,7.96892497 16.0367675,7.94746174 C17.2447742,7.49720045 18.5507652,7.25037327 19.9136805,7.25037327 C21.1506159,7.25037327 22.1533221,8.25261292 22.1533221,9.49001493 C22.1533221,10.7269504 21.1506159,11.72919 19.9136805,11.72919 C18.9986935,11.72919 18.1270997,11.9148936 17.3329601,12.2503733 C17.3231616,12.254106 17.3128966,12.2592385 17.3026316,12.2634378 C17.1421239,12.3320269 16.9862822,12.4094811 16.8323068,12.4902016 C16.7767824,12.5200635 16.7207913,12.5489922 16.6657335,12.5802538 C16.5593505,12.6404442 16.4562337,12.7048339 16.3531168,12.7706234 C16.2835946,12.8149496 16.212206,12.8569429 16.1445502,12.9040687 C16.0997574,12.9343972 16.0586973,12.9693916 16.0148376,13.0011198 C15.8137365,13.1480963 15.621034,13.303938 15.4385965,13.470978 C15.4068682,13.4994401 15.3746734,13.5279022 15.3429451,13.5572975 C15.2388951,13.6566816 15.1376446,13.7593318 15.0401269,13.8652482 C15.0256626,13.8806458 15.0111982,13.8969765 14.9962673,13.9128406 C13.8983763,15.1245801 13.2586786,16.7212579 13.2586786,18.4378499 C13.2586786,18.8694476 13.3664614,19.3612355 13.5885592,19.9407428 C13.6156215,20.0116648 13.6496827,20.0867861 13.6846771,20.162374 C13.7215379,20.2388951 13.7537327,20.3172826 13.7915267,20.3933371 C14.8259612,22.7020343 17.2676372,25.7946062 19.3173759,28.0193169 L19.9673386,28.7252706 L19.9673386,28.7252706 C20.293953,28.3739268 20.9611795,27.7067003 20.9611795,27.7067003 C21.2411348,27.3964166 21.5196902,27.0847331 21.7907801,26.7707167 C23.2778089,25.048059 26.7352557,20.7876073 26.7352557,18.4378499 L26.7352557,6.65500187 L26.7352557,1.16601344 C24.6304591,0.413400523 22.3637551,0 20,0 C8.9543673,0 0,8.9543673 0,20 C0,31.0460993 8.9543673,40 20,40 C31.0456327,40 40,31.0460993 40,20 C40,13.1168346 36.5215566,7.04647256 31.2276036,3.44811497" id="intermediaire"></path>
            <path d="M62.132,8.628 L66.62,8.628 L66.62,24.336 C66.62,26.614 65.94,28.348 64.546,29.606 C63.152,30.864 61.52,31.51 59.616,31.51 C57.814,31.51 56.25,30.932 54.89,29.81 C53.496,28.688 52.714,27.124 52.51,25.084 L56.862,24.268 C57.066,26.308 57.95,27.328 59.548,27.328 C61.078,27.328 62.132,26.274 62.132,24.234 L62.132,8.628 Z M76.6651111,27.6 C77.8551111,27.6 78.9091111,27.158 79.7931111,26.274 C80.6771111,25.424 81.1191111,24.268 81.1191111,22.84 C81.1191111,20.086 79.1811111,18.148 76.7671111,18.148 C75.5771111,18.148 74.5571111,18.59 73.7071111,19.44 C72.8571111,20.324 72.4491111,21.48 72.4491111,22.908 C72.4491111,24.336 72.8571111,25.458 73.6731111,26.308 C74.4891111,27.158 75.4751111,27.6 76.6651111,27.6 Z M87.8511111,27.124 L89.1771111,29.742 C88.4631111,30.796 87.3411111,31.306 85.8451111,31.306 C83.9071111,31.306 82.1391111,29.98 81.9691111,28.11 C80.8471111,30.048 78.7731111,31.34 76.0871111,31.34 C73.9111111,31.34 72.0411111,30.592 70.4771111,29.096 C68.9131111,27.6 68.1311111,25.56 68.1311111,23.01 C68.1311111,20.358 68.9471111,18.284 70.6131111,16.754 C72.2791111,15.224 74.2171111,14.476 76.4271111,14.476 C78.7731111,14.476 80.3711111,15.224 81.2551111,16.754 L81.2551111,14.884 L85.5731111,14.884 L85.5731111,26.376 C85.5731111,27.158 85.9471111,27.566 86.6611111,27.566 C87.1371111,27.566 87.5451111,27.43 87.8511111,27.124 Z M103.098222,14.884 L106.600222,24.744 L109.762222,14.884 L114.590222,14.884 L108.606222,31 L104.492222,31 L100.990222,21.582 L97.4882222,31 L93.3742222,31 L87.4582222,14.884 L92.2522222,14.884 L95.4142222,24.71 L98.8822222,14.884 L103.098222,14.884 Z M122.255333,27.192 C124.737333,27.192 126.811333,25.458 126.811333,22.636 C126.811333,19.814 124.737333,18.114 122.255333,18.114 C119.807333,18.114 118.039333,19.746 118.039333,22.704 C118.039333,25.696 119.909333,27.192 122.255333,27.192 Z M126.845333,14.884 L131.163333,14.884 L131.163333,30.014 C131.163333,32.666 130.279333,34.74 128.545333,36.236 C126.777333,37.698 124.669333,38.446 122.221333,38.446 C118.379333,38.446 115.047333,36.44 113.823333,32.938 L117.801333,31.408 C118.447333,33.584 120.351333,34.74 122.493333,34.74 C125.043333,34.74 126.879333,33.074 126.879333,30.32 L126.879333,28.28 C125.825333,29.98 124.091333,30.83 121.711333,30.83 C119.569333,30.83 117.699333,30.116 116.101333,28.688 C114.503333,27.294 113.721333,25.288 113.721333,22.738 C113.721333,20.154 114.537333,18.114 116.203333,16.652 C117.835333,15.19 119.773333,14.476 121.983333,14.476 C124.329333,14.476 125.927333,15.258 126.845333,16.856 L126.845333,14.884 Z" id="Jawg" fill-rule="nonzero"></path>
            <path d="M135.06,31 L135.06,8.628 L137.848,8.628 L146.076,22.84 L154.304,8.628 L157.092,8.628 L157.092,31 L154.576,31 L154.576,13.422 L147.164,25.968 L144.988,25.968 L137.576,13.422 L137.576,31 L135.06,31 Z M164.111111,27.396 C166.423111,29.572 169.619111,29.572 171.931111,27.396 C173.053111,26.342 173.631111,24.846 173.631111,22.976 C173.631111,21.038 173.053111,19.542 171.863111,18.42 C170.673111,17.332 169.313111,16.788 167.817111,16.788 C166.355111,16.788 165.063111,17.332 164.009111,18.386 C162.921111,19.474 162.377111,20.97 162.377111,22.84 C162.377111,24.778 162.955111,26.308 164.111111,27.396 Z M178.663111,28.79 L179.479111,30.456 C178.867111,31 178.119111,31.272 177.269111,31.272 C175.501111,31.272 173.937111,30.184 173.767111,28.144 C172.679111,30.014 170.333111,31.306 167.851111,31.306 C165.777111,31.306 163.975111,30.558 162.377111,29.028 C160.779111,27.532 159.963111,25.458 159.963111,22.84 C159.963111,20.222 160.779111,18.182 162.377111,16.686 C163.975111,15.224 165.777111,14.476 167.851111,14.476 C170.061111,14.476 172.305111,15.496 173.631111,17.298 L173.631111,14.884 L176.045111,14.884 L176.045111,27.158 C176.045111,28.382 176.725111,29.096 177.575111,29.096 C177.881111,29.096 178.255111,28.994 178.663111,28.79 Z M188.878222,29.028 C190.408222,29.028 191.734222,28.484 192.924222,27.362 C194.080222,26.274 194.658222,24.744 194.658222,22.806 C194.658222,20.936 194.114222,19.508 193.026222,18.454 C191.938222,17.4 190.646222,16.89 189.150222,16.89 C187.620222,16.89 186.260222,17.434 185.138222,18.522 C183.982222,19.644 183.404222,21.14 183.404222,23.078 C183.404222,24.948 183.948222,26.376 185.036222,27.43 C186.090222,28.484 187.382222,29.028 188.878222,29.028 Z M189.456222,14.612 C191.530222,14.612 193.298222,15.326 194.828222,16.72 C196.324222,18.148 197.072222,20.154 197.072222,22.738 C197.072222,25.424 196.256222,27.532 194.658222,29.028 C193.026222,30.558 191.122222,31.306 188.946222,31.306 C186.532222,31.306 184.662222,30.456 183.404222,28.756 L183.404222,38.072 L180.990222,38.072 L180.990222,14.884 L183.404222,14.884 L183.404222,17.74 C184.900222,15.666 186.906222,14.612 189.456222,14.612 Z M211.299333,26.478 C211.299333,28.008 210.687333,29.198 209.463333,30.048 C208.205333,30.898 206.709333,31.34 204.907333,31.34 C202.357333,31.34 199.807333,30.388 198.073333,28.62 L199.773333,26.75 C200.997333,28.246 203.173333,29.096 205.213333,29.096 C207.355333,29.096 208.817333,28.178 208.817333,26.784 C208.817333,25.934 208.273333,25.492 207.627333,25.084 C207.287333,24.88 206.165333,24.608 205.791333,24.506 C205.621333,24.472 205.247333,24.37 204.703333,24.234 C202.969333,23.826 202.085333,23.52 200.827333,22.806 C199.569333,22.092 198.923333,20.936 198.923333,19.304 C198.923333,17.706 199.535333,16.516 200.725333,15.7 C201.915333,14.884 203.309333,14.476 204.941333,14.476 C206.981333,14.476 208.817333,15.088 210.449333,16.278 L209.225333,18.08 C208.001333,17.094 206.539333,16.618 204.805333,16.618 C202.765333,16.618 201.337333,17.536 201.337333,19.168 C201.337333,20.8 202.595333,21.412 205.145333,21.99 C207.219333,22.466 208.579333,22.874 209.225333,23.18 C210.619333,23.894 211.299333,25.016 211.299333,26.478 Z" id="Maps" fill-rule="nonzero"></path>
        </g>
    </g>
</svg>