<svg width="358" height="108" viewBox="0 0 358 108" fill="none" xmlns="http://www.w3.org/2000/svg">
<path d="M136.537 41.5078H148.828L134.107 57.8324L150.273 75.9516H138.204C137.918 75.9516 125.357 61.2308 125.357 61.2308V75.9357H115.654V31.4716H125.357V55.3234L136.537 41.5078Z" fill="#6AA127"/>
<path fill-rule="evenodd" clip-rule="evenodd" d="M149.447 58.6423C149.447 48.622 157.562 40.4914 167.566 40.4914C177.571 40.4914 185.685 48.622 185.685 58.6423C185.685 68.6626 177.571 76.7932 167.566 76.7932C157.562 76.7932 149.447 68.6785 149.447 58.6423ZM158.975 58.6582C158.975 63.6604 162.818 67.7098 167.566 67.7098C172.314 67.7098 176.157 63.6604 176.157 58.6582C176.157 53.656 172.314 49.6066 167.566 49.6066C162.818 49.6066 158.975 53.656 158.975 58.6582Z" fill="#6AA127"/>
<path fill-rule="evenodd" clip-rule="evenodd" d="M251.699 58.6423C251.699 48.622 259.814 40.4914 269.818 40.4914C279.822 40.4914 287.937 48.622 287.937 58.6423C287.937 68.6626 279.822 76.7932 269.818 76.7932C259.814 76.7932 251.699 68.6785 251.699 58.6423ZM261.227 58.6582C261.227 63.6922 265.07 67.7734 269.818 67.7734C274.566 67.7734 278.409 63.6922 278.409 58.6582C278.409 53.6242 274.566 49.5431 269.818 49.5431C265.07 49.5431 261.227 53.6242 261.227 58.6582Z" fill="#6AA127"/>
<path fill-rule="evenodd" clip-rule="evenodd" d="M311.201 40.4914C301.197 40.4914 293.082 48.622 293.082 58.6423C293.082 68.6785 301.197 76.7932 311.201 76.7932C321.206 76.7932 329.321 68.6626 329.321 58.6423C329.321 48.622 321.206 40.4914 311.201 40.4914ZM311.201 67.7734C306.453 67.7734 302.61 63.6922 302.61 58.6582C302.61 53.6242 306.453 49.5431 311.201 49.5431C315.95 49.5431 319.793 53.6242 319.793 58.6582C319.793 63.6922 315.934 67.7734 311.201 67.7734Z" fill="#6AA127"/>
<path d="M356.047 68.2339C352.41 68.8532 350.346 67.3923 349.488 66.503C348.599 65.5819 347.948 64.0892 347.948 63.1205V49.6701H357V41.5554H347.948V32.1862H338.356V41.5554H331.798V49.6701H338.356V63.1047C338.356 70.6477 344.486 76.7774 352.029 76.7774C352.029 76.7774 355.539 76.9044 358 75.8881L356.047 68.2339Z" fill="#6AA127"/>
<path d="M201.645 58.0866C201.613 62.4219 201.645 75.8881 201.645 75.8881V75.904H191.99V41.5872H200.041L201.216 45.8113C202.9 43.1911 205.027 41.5713 208.188 40.9997C211.713 40.3645 214.762 40.7615 217.493 42.1907C219.24 43.1117 220.622 44.5568 221.606 46.4942C221.622 46.4624 221.654 46.4148 221.686 46.383C222.082 45.8433 222.48 45.3029 222.908 44.795C224.608 42.7941 226.831 41.5396 229.515 41.0314C232.182 40.5391 234.739 40.6344 237.137 41.349C239.884 42.1589 241.996 43.874 243.394 46.4306C244.442 48.3362 245.045 50.5118 245.252 53.0526C245.347 54.2913 245.395 55.4029 245.395 56.4827V75.9199H235.787C235.787 75.9199 235.819 60.9291 235.787 56.054C235.771 54.5612 235.422 53.2273 234.787 52.0839C234.12 50.9088 233.183 50.1942 231.897 49.8766C230.309 49.4796 228.975 49.5431 227.577 50.0831C225.783 50.7659 224.576 52.1475 223.877 54.2913C223.512 55.4029 223.337 56.6574 223.337 58.0866V75.8881H213.952V56.3239C213.952 55.1488 213.889 53.7672 213.349 52.4968C212.602 50.7024 211.252 49.7655 209.204 49.6384C207.664 49.5431 206.361 49.7655 205.218 50.3054C203.392 51.1788 202.534 52.6874 202.026 54.8312C201.788 55.8634 201.645 56.9591 201.645 58.0866Z" fill="#6AA127"/>
<path d="M0 54C0 27.5391 21.5391 6 48 6C74.4768 6 96 27.5391 96 54C96 64.6508 92.5816 74.7003 86.1246 83.1355L62.0534 59.0643C62.6548 57.4184 62.9555 55.7092 62.9555 53.9842C62.9555 45.7389 56.2453 39.0287 48 39.0287C39.7547 39.0287 33.0445 45.7389 33.0445 53.9842C33.0445 55.7092 33.3452 57.4184 33.9466 59.0643L9.87537 83.1355C3.4184 74.7161 0 64.6508 0 54Z" fill="url(#paint0_linear_45_177)"/>
<path d="M39.2008 65.3155L48 51.5945L56.7992 65.3155L80.6489 89.1652C71.7389 97.4421 60.1702 102 48 102C35.8299 102 24.2611 97.4421 15.3512 89.1652L39.2008 65.3155Z" fill="url(#paint1_linear_45_177)"/>
<defs>
<linearGradient id="paint0_linear_45_177" x1="47.9996" y1="6.00716" x2="47.9996" y2="102.001" gradientUnits="userSpaceOnUse">
<stop stop-color="#8FCE3C"/>
<stop offset="1" stop-color="#64A322"/>
</linearGradient>
<linearGradient id="paint1_linear_45_177" x1="47.9996" y1="6.00716" x2="47.9996" y2="102.001" gradientUnits="userSpaceOnUse">
<stop stop-color="#8FCE3C"/>
<stop offset="1" stop-color="#64A322"/>
</linearGradient>
</defs>
</svg>
