<svg xmlns="http://www.w3.org/2000/svg" width="1356" height="318" fill="none" viewBox="0 0 1356 318">
  <g clip-path="url(#a)">
    <g clip-path="url(#b)">
      <path fill="#fff" d="m292.72 162.643-12.174-27.525-5.558 27.525-17.998 90.78h-29.377l40.229-194.529h3.176l53.462 105.072 15.88 35.201 15.88-35.201 52.403-105.072h2.912l41.817 194.529h-29.114l-19.585-90.78-5.822-27.525-10.587 27.525-47.11 90.78h-1.588l-46.846-90.78Zm238.604 93.427c-10.94 0-21.085-2.559-30.437-7.675-9.175-5.294-16.585-12.704-22.232-22.232-5.469-9.705-8.204-20.997-8.204-33.877 0-12.704 2.382-23.82 7.146-33.348 4.94-9.528 11.91-16.939 20.908-22.232 8.999-5.293 19.585-7.94 31.76-7.94 7.058 0 13.674 1.235 19.85 3.705 6.175 2.471 11.38 5.558 15.615 9.264 4.235 3.528 7.058 7.057 8.469 10.586l.53-20.379h27.26v121.481h-26.996l-.529-21.438c-3 6.352-8.469 11.998-16.409 16.939-7.94 4.764-16.851 7.146-26.731 7.146Zm4.764-23.82c10.057 0 18.526-3.441 25.407-10.322 6.882-7.058 10.322-16.233 10.322-27.525v-1.853c0-7.587-1.588-14.38-4.764-20.379-3.176-5.999-7.498-10.675-12.968-14.027-5.47-3.353-11.469-5.029-17.997-5.029-11.293 0-20.027 3.706-26.202 11.116-6.176 7.234-9.263 16.674-9.263 28.319 0 11.822 2.999 21.438 8.998 28.849 6.176 7.234 14.998 10.851 26.467 10.851Zm104.869-100.308h27.525v22.497c9.704-17.115 24.879-25.673 45.522-25.673 17.115 0 30.966 5.47 41.553 16.409 10.586 10.763 15.88 26.379 15.88 46.846 0 12.704-2.647 23.908-7.94 33.612-5.117 9.705-12.175 17.204-21.174 22.497-8.822 5.293-18.702 7.94-29.642 7.94-10.234 0-19.144-1.765-26.731-5.293-7.411-3.706-13.233-8.911-17.468-15.616l.265 82.576h-27.79V131.942Zm65.107 100.043c11.469 0 20.291-3.617 26.467-10.851 6.175-7.411 9.263-16.85 9.263-28.319 0-11.998-3.088-21.526-9.263-28.584-5.999-7.234-14.821-10.851-26.467-10.851-6.352 0-12.351 1.588-17.997 4.764-5.47 2.999-9.881 7.41-13.233 13.233-3.176 5.646-4.764 12.263-4.764 19.85v1.853c0 7.587 1.588 14.38 4.764 20.379 3.352 5.822 7.763 10.41 13.233 13.762 5.47 3.176 11.469 4.764 17.997 4.764Zm96.4-173.09h29.907v168.062h55.845v26.466h-85.752V58.894Zm114.505 73.047h29.642v121.481h-29.642V131.942Zm14.556-22.761c-5.469 0-10.057-1.853-13.762-5.558s-5.558-8.293-5.558-13.763c0-4.94 1.853-9.175 5.558-12.704s8.293-5.293 13.762-5.293c5.294 0 9.793 1.764 13.498 5.293 3.706 3.53 5.558 7.764 5.558 12.704 0 5.47-1.852 10.058-5.558 13.763-3.529 3.705-8.028 5.558-13.498 5.558ZM1058.18 256.07c-9.89 0-18.8-2.382-26.74-7.146-7.76-4.941-13.14-10.587-16.14-16.939l-.53 21.438h-27.524V58.894h28.054v74.901l-1.32 20.644c3-7.058 8.82-13.057 17.46-17.998 8.83-5.117 18.35-7.675 28.59-7.675 12 0 22.41 2.735 31.23 8.205 9 5.293 15.88 12.792 20.64 22.496 4.77 9.528 7.15 20.644 7.15 33.348 0 12.88-2.82 24.084-8.47 33.612-5.47 9.528-12.88 16.851-22.23 21.968-9.18 5.116-19.23 7.675-30.17 7.675Zm-4.77-23.82c11.47 0 20.29-3.617 26.47-10.851 6.17-7.411 9.26-16.939 9.26-28.584 0-11.822-3.09-21.35-9.26-28.584-6-7.411-14.82-11.116-26.47-11.116-10.06 0-18.52 3.529-25.41 10.587-6.88 6.881-10.32 15.968-10.32 27.26v1.853c0 7.587 1.59 14.38 4.77 20.379 3.35 5.999 7.67 10.675 12.96 14.027 5.47 3.353 11.47 5.029 18 5.029Zm95.33-100.308h28.58v23.82c2.83-8.117 7.42-14.645 13.77-19.585 6.35-4.941 13.58-7.411 21.7-7.411 5.65 0 9.53.529 11.64 1.588l-3.97 28.848c-1.58-1.058-5.02-1.588-10.32-1.588-8.29 0-15.88 2.647-22.76 7.94-6.7 5.294-10.06 13.763-10.06 25.408v62.461h-28.58V131.942Zm153.34 124.128c-14.47 0-26.55-2.823-36.26-8.469-9.7-5.823-16.85-13.498-21.44-23.026-4.58-9.705-6.88-20.291-6.88-31.76 0-12.88 2.65-24.173 7.94-33.877 5.47-9.705 12.97-17.115 22.5-22.232 9.53-5.293 20.29-7.94 32.29-7.94 18.7 0 32.55 5.205 41.55 15.615 9.18 10.234 13.76 24.702 13.76 43.405 0 4.764-.26 9.705-.79 14.821h-87.34c1.94 10.764 5.73 18.527 11.38 23.291 5.82 4.764 13.85 7.146 24.08 7.146 8.47 0 15.44-.706 20.91-2.117 5.47-1.412 10.5-3.353 15.09-5.823l8.73 20.379c-4.41 2.823-10.41 5.293-17.99 7.411-7.59 2.117-16.77 3.176-27.53 3.176Zm25.67-73.312c.18-10.94-2.2-18.615-7.14-23.026-4.94-4.588-12-6.881-21.18-6.881-18.52 0-29.2 9.969-32.02 29.907h60.34Z"/>
      <path fill="#82B4FE" fill-rule="evenodd" d="M91.32.578C41.994.258 1.624 37.59 1.323 83.793c-.266 40.912 19.964 60.885 41.871 82.513 15.273 15.078 31.36 30.96 41.885 55.302.71.577 1.185.962 1.389 1.144a5.163 5.163 0 0 0 3.398 1.286 5.173 5.173 0 0 0 3.416-1.241c.055-.049.156-.092.28-.145.34-.146.857-.368 1.124-.983 10.49-24.11 26.806-39.778 42.388-54.74 22.188-21.307 42.888-41.184 43.153-81.972C180.528 38.753 140.647.9 91.32.578Zm-.86 132.349c24.424.159 44.356-19.81 44.517-44.602.161-24.792-19.509-45.019-43.934-45.178-24.425-.159-44.356 19.81-44.518 44.602-.161 24.792 19.509 45.019 43.934 45.178Zm-31.97 105.41c-4.075-.026-7.408 4.48-7.445 10.065l-.183 28.269c-.037 5.585 3.237 10.134 7.313 10.161l62.385.406c4.075.026 7.408-4.48 7.444-10.065l.184-28.269c.037-5.585-3.238-10.135-7.313-10.161l-62.385-.406Zm54.01 18.164-45.866-.298-.084 12.871 45.866.298.084-12.871Z" clip-rule="evenodd"/>
      <path fill="#82B4FE" d="m62.952 251.461 53.027.345-.144 22.163-53.027-.345z"/>
    </g>
  </g>
  <defs>
    <clipPath id="a">
      <path fill="#fff" d="M0 0h1356v318H0z"/>
    </clipPath>
    <clipPath id="b">
      <path fill="#fff" d="M0 0h1355.33v317.795H0z"/>
    </clipPath>
  </defs>
</svg>
