<svg xmlns="http://www.w3.org/2000/svg" width="1514" height="355" fill="none" viewBox="0 0 1514 355">
  <g clip-path="url(#a)">
    <path fill="#fff" d="m326.989 181.686-13.6-30.748-6.209 30.748-20.104 101.408h-32.817l44.939-217.303h3.547l59.722 117.373 17.739 39.321 17.739-39.321 58.538-117.373h3.252l46.713 217.303h-32.521l-21.878-101.408-6.505-30.748-11.826 30.748-52.625 101.408h-1.774l-52.33-101.408ZM593.526 286.05c-12.22 0-23.553-2.858-33.999-8.574-10.25-5.913-18.528-14.191-24.835-24.834-6.11-10.841-9.165-23.455-9.165-37.843 0-14.192 2.661-26.609 7.982-37.252 5.519-10.644 13.305-18.922 23.357-24.835s21.878-8.869 35.478-8.869c7.884 0 15.275 1.379 22.173 4.139 6.899 2.759 12.713 6.208 17.444 10.347 4.73 3.942 7.884 7.884 9.461 11.826l.591-22.765h30.452v135.704h-30.156l-.592-23.948c-3.35 7.096-9.461 13.403-18.33 18.922-8.87 5.321-18.823 7.982-29.861 7.982Zm5.322-26.608c11.235 0 20.696-3.844 28.382-11.531 7.687-7.884 11.531-18.133 11.531-30.747v-2.07c0-8.475-1.774-16.063-5.322-22.765-3.548-6.701-8.377-11.924-14.487-15.669-6.11-3.745-12.811-5.618-20.104-5.618-12.614 0-22.371 4.139-29.269 12.418-6.899 8.081-10.348 18.626-10.348 31.634 0 13.206 3.351 23.948 10.052 32.226 6.899 8.081 16.754 12.122 29.565 12.122ZM715.995 147.39h30.747v25.131c10.841-19.119 27.791-28.678 50.852-28.678 19.119 0 34.591 6.11 46.417 18.33 11.826 12.023 17.739 29.466 17.739 52.33 0 14.191-2.956 26.707-8.869 37.547-5.716 10.841-13.6 19.218-23.652 25.131-9.855 5.913-20.893 8.869-33.113 8.869-11.432 0-21.385-1.971-29.861-5.913-8.278-4.139-14.782-9.953-19.513-17.443l.296 92.243h-31.043V147.39Zm72.73 111.756c12.811 0 22.666-4.04 29.565-12.122 6.898-8.278 10.347-18.823 10.347-31.634 0-13.403-3.449-24.046-10.347-31.93-6.702-8.081-16.557-12.122-29.565-12.122-7.096 0-13.797 1.774-20.105 5.322-6.11 3.35-11.037 8.278-14.782 14.782-3.548 6.307-5.322 13.699-5.322 22.174v2.07c0 8.475 1.774 16.063 5.322 22.765 3.745 6.504 8.672 11.628 14.782 15.373 6.11 3.548 12.812 5.322 20.105 5.322Z"/>
    <path fill="#74ABFF" d="M896.41 65.791h33.409v187.738h62.382v29.565H896.41V65.791Zm127.91 81.599h33.11v135.704h-33.11V147.39Zm16.26-25.425c-6.11 0-11.23-2.07-15.37-6.209-4.14-4.139-6.21-9.264-6.21-15.374 0-5.519 2.07-10.25 6.21-14.191 4.14-3.942 9.26-5.913 15.37-5.913 5.91 0 10.94 1.97 15.08 5.913 4.14 3.942 6.21 8.672 6.21 14.191 0 6.11-2.07 11.235-6.21 15.374-3.94 4.139-8.97 6.209-15.08 6.209Zm141.48 164.085c-11.04 0-20.99-2.661-29.86-7.982-8.67-5.519-14.69-11.826-18.04-18.922l-.59 23.948h-30.75V65.791h31.34v83.669l-1.47 23.061c3.35-7.884 9.85-14.586 19.51-20.105 9.85-5.715 20.5-8.573 31.93-8.573 13.4 0 25.03 3.055 34.89 9.165 10.05 5.913 17.73 14.289 23.06 25.13 5.32 10.643 7.98 23.061 7.98 37.252 0 14.388-3.16 26.904-9.46 37.547-6.11 10.644-14.39 18.823-24.84 24.539-10.25 5.716-21.48 8.574-33.7 8.574Zm-5.32-26.608c12.81 0 22.66-4.041 29.56-12.122 6.9-8.278 10.35-18.922 10.35-31.93 0-13.206-3.45-23.849-10.35-31.93-6.7-8.279-16.55-12.418-29.56-12.418-11.24 0-20.7 3.942-28.39 11.826-7.68 7.687-11.53 17.838-11.53 30.452v2.07c0 8.475 1.78 16.064 5.33 22.765 3.74 6.701 8.57 11.924 14.48 15.669 6.11 3.745 12.81 5.618 20.11 5.618Zm106.49-112.052h31.93v26.609c3.15-9.067 8.28-16.359 15.37-21.878 7.1-5.519 15.18-8.278 24.24-8.278 6.31 0 10.65.591 13.01 1.774l-4.43 32.225c-1.78-1.182-5.62-1.774-11.53-1.774-9.27 0-17.74 2.957-25.43 8.87-7.49 5.913-11.23 15.374-11.23 28.382v69.774h-31.93V147.39Zm171.29 138.66c-16.16 0-29.66-3.153-40.51-9.461-10.84-6.504-18.82-15.078-23.94-25.721-5.13-10.841-7.69-22.667-7.69-35.478 0-14.388 2.96-27.003 8.87-37.843 6.11-10.841 14.49-19.119 25.13-24.835 10.64-5.913 22.67-8.869 36.07-8.869 20.89 0 36.36 5.814 46.42 17.443 10.25 11.432 15.37 27.594 15.37 48.487 0 5.321-.3 10.84-.89 16.556h-97.56c2.17 12.023 6.4 20.695 12.71 26.017 6.51 5.322 15.47 7.983 26.91 7.983 9.46 0 17.24-.789 23.35-2.366 6.11-1.576 11.73-3.744 16.85-6.504l9.76 22.765c-4.93 3.154-11.63 5.913-20.1 8.278-8.48 2.366-18.73 3.548-30.75 3.548Zm28.68-81.895c.19-12.22-2.47-20.794-7.99-25.721-5.51-5.125-13.4-7.687-23.65-7.687-20.69 0-32.62 11.136-35.77 33.408h67.41Z"/>
    <path fill="#74ABFF" fill-rule="evenodd" d="M102.007.65C46.905.292 1.809 41.994 1.473 93.608c-.297 45.701 22.302 68.012 46.773 92.172 17.06 16.843 35.031 34.585 46.79 61.777.793.645 1.322 1.075 1.55 1.278a5.775 5.775 0 0 0 3.796 1.437 5.782 5.782 0 0 0 3.816-1.387c.062-.055.174-.103.313-.162.379-.163.957-.411 1.256-1.098 11.717-26.933 29.944-44.435 47.35-61.149 24.786-23.801 47.909-46.005 48.205-91.568.336-51.614-44.214-93.9-99.315-94.258Zm-.962 147.843c27.284.177 49.549-22.129 49.729-49.824.18-27.695-21.793-50.29-49.077-50.467-27.285-.177-49.55 22.13-49.73 49.824-.18 27.695 21.793 50.289 49.078 50.467Z" clip-rule="evenodd"/>
    <path fill="#fff" fill-rule="evenodd" d="M65.336 266.243c-4.552-.03-8.276 5.004-8.316 11.243l-.206 31.579c-.04 6.239 3.617 11.321 8.17 11.35l69.688.454c4.553.029 8.276-5.004 8.316-11.243l.206-31.579c.041-6.239-3.617-11.321-8.169-11.351l-69.689-.453Zm60.333 20.291-51.236-.333-.094 14.377 51.236.333.094-14.377Z" clip-rule="evenodd"/>
    <path fill="#fff" d="m70.321 280.904 59.235.386-.161 24.756-59.235-.386z"/>
  </g>
  <defs>
    <clipPath id="a">
      <path fill="#fff" d="M0 0h1514v355H0z"/>
    </clipPath>
  </defs>
</svg>
