<svg xmlns="http://www.w3.org/2000/svg" width="796" height="796" fill="none" viewBox="0 0 796 796">
  <path fill="#111725" d="M398.008 710.406c172.537 0 312.406-139.869 312.406-312.406S570.545 85.594 398.008 85.594 85.602 225.463 85.602 398 225.47 710.406 398.008 710.406Z"/>
  <path stroke="#74ABFF" stroke-width="53.606" d="M398.013 726.859c181.603 0 328.822-147.219 328.822-328.822 0-181.604-147.219-328.822-328.822-328.822-181.604 0-328.822 147.218-328.822 328.822 0 181.603 147.218 328.822 328.822 328.822Z"/>
  <path fill="#74ABFF" stroke="#74ABFF" stroke-linejoin="round" stroke-width="15.348" d="m749.771 420.967 38.236-22.933-38.236-22.932v45.865Zm-11.241 68.164 41.973-15.037-33.009-29.961-8.964 44.998Zm-24.307 64.69 44.108-6.561-26.558-35.834-17.55 42.395Zm-36.482 58.701 44.531 2.158-19.04-40.305-25.491 38.147Zm-47.223 50.439 43.263 10.81-10.811-43.263-32.452 32.453Zm-56.163 40.303 40.327 19.04-2.18-44.531-38.147 25.491Zm-62.928 28.529 35.812 26.536 6.562-44.108-42.374 17.572Zm-67.305 15.702 29.961 33.031 15.037-41.973-44.998 8.942Zm-69.065 2.31 22.955 38.236 22.932-38.236h-45.887Zm-68.174-11.252 15.036 41.973 29.962-33.031-44.998-8.942Zm-64.688-24.332 6.562 44.108 35.811-26.536-42.373-17.572Zm-58.696-36.448-2.18 44.531 40.327-19.04-38.147-25.491Zm-50.475-47.265-10.81 43.263 43.263-10.81-32.453-32.453ZM92.77 574.375 73.73 614.68l44.531-2.158-25.49-38.147Zm-28.54-62.949L37.673 547.26l44.109 6.561-17.55-42.395Zm-15.727-67.293-33.009 29.961 41.973 15.037-8.964-44.998Zm-2.267-69.031L8 398.034l38.236 22.933v-45.865Zm11.231-68.209-41.973 15.036 33.01 29.962 8.963-44.998Zm24.313-64.686-44.108 6.562 26.559 35.834 17.55-42.396Zm36.481-58.71-44.53-2.157 19.04 40.305 25.49-38.148Zm47.216-50.431-43.263-10.81 10.81 43.263 32.453-32.453Zm56.169-40.296-40.327-19.04 2.18 44.531 38.147-25.49Zm62.922-28.517-35.811-26.536-6.562 44.108 42.373-17.572Zm67.313-15.706-29.962-33.031-15.036 41.973 44.998-8.942Zm69.063-2.311L398.012 8l-22.955 38.236h45.887Zm68.176 11.253-15.037-41.973-29.961 33.03 44.998 8.943Zm64.681 24.336-6.562-44.108-35.812 26.536 42.374 17.572Zm58.701 36.436 2.18-44.53-40.327 19.04 38.147 25.49Zm50.468 47.258 10.811-43.263-43.263 10.81 32.452 32.453Zm40.262 56.126 19.04-40.305-44.531 2.157 25.491 38.148Zm28.541 62.958 26.558-35.834-44.108-6.562 17.55 42.396Zm15.721 67.288 33.009-29.962-41.973-15.036 8.964 44.998Z"/>
  <path fill="#95BEFA" stroke="#74ABFF" stroke-linejoin="round" stroke-width="30.696" d="m344.472 76.816 53.54 53.54 53.517-53.54H344.472Zm342.46 171.038-34.366 67.463 67.441 34.366-33.075-101.829Zm-56.828 378.544-74.781-11.834-11.834 74.76 86.615-62.926Zm-377.581 62.926-11.833-74.76-74.782 11.834 86.615 62.926ZM76 349.683l67.442-34.366-34.366-67.463-33.075 101.829Z"/>
  <path fill="#111725" d="M398.007 110.422c11.007 0 19.93-8.923 19.93-19.93s-8.923-19.93-19.93-19.93-19.93 8.923-19.93 19.93 8.923 19.93 19.93 19.93Z"/>
  <path fill="#111725" fill-rule="evenodd" d="M86.583 296.816c3.38-10.455 14.636-16.193 25.112-12.79 10.455 3.403 16.193 14.658 12.812 25.112-3.403 10.455-14.658 16.193-25.135 12.79-10.454-3.403-16.193-14.658-12.79-25.112Zm118.958 366.105c-8.898-6.473-10.877-18.952-4.405-27.849 6.473-8.897 18.929-10.877 27.827-4.404 8.897 6.45 10.877 18.929 4.404 27.826-6.473 8.898-18.951 10.877-27.826 4.427Zm503.873-366.105c3.403 10.454-2.336 21.709-12.79 25.112-10.476 3.403-21.732-2.335-25.135-12.79-3.381-10.454 2.358-21.709 12.812-25.112 10.477-3.403 21.732 2.335 25.113 12.79ZM590.482 662.921c-8.897 6.45-21.376 4.471-27.848-4.427-6.473-8.897-4.494-21.376 4.404-27.826 8.897-6.473 21.375-4.493 27.826 4.404 6.473 8.897 4.493 21.376-4.382 27.849Z" clip-rule="evenodd"/>
  <path fill="#74ABFF" fill-rule="evenodd" d="M398.684 209.692c-64.75-.422-117.743 48.583-118.138 109.235-.349 53.704 26.207 79.922 54.964 108.313 20.048 19.792 41.165 40.641 54.982 72.594.932.758 1.555 1.263 1.822 1.502a6.782 6.782 0 0 0 4.461 1.688 6.788 6.788 0 0 0 4.484-1.63c.073-.063.205-.12.368-.19.446-.191 1.125-.483 1.476-1.29 13.769-31.649 35.187-52.215 55.641-71.856 29.127-27.97 56.299-54.062 56.647-107.603.394-60.652-51.956-110.342-116.707-110.763Zm-1.127 173.726c32.062.208 58.226-26.005 58.438-58.549.212-32.544-25.609-59.095-57.671-59.304-32.063-.208-58.226 26.004-58.438 58.549-.212 32.544 25.608 59.095 57.671 59.304Z" clip-rule="evenodd"/>
  <path fill="#fff" fill-rule="evenodd" d="M355.592 521.79c-5.35-.035-9.725 5.88-9.773 13.211l-.241 37.109c-.048 7.332 4.25 13.303 9.6 13.338l81.892.533c5.349.034 9.724-5.881 9.772-13.212l.241-37.109c.048-7.331-4.25-13.303-9.599-13.338l-81.892-.532Zm70.898 23.843-60.208-.391-.11 16.895 60.208.392.11-16.896Z" clip-rule="evenodd"/>
  <path fill="#fff" d="m361.448 539.018 69.608.453-.19 29.093-69.607-.454z"/>
</svg>
