<svg xmlns="http://www.w3.org/2000/svg" width="546" height="546" fill="none" viewBox="0 0 546 546">
  <path fill="#3F52B5" d="M273.012 486.89c118.125 0 213.884-95.759 213.884-213.884 0-118.124-95.759-213.883-213.884-213.883-118.124 0-213.883 95.759-213.883 213.883 0 118.125 95.759 213.884 213.883 213.884Z"/>
  <path stroke="#95BEFA" stroke-width="36.7" d="M273.015 498.153c124.331 0 225.122-100.79 225.122-225.122 0-124.331-100.791-225.122-225.122-225.122-124.331 0-225.122 100.791-225.122 225.122 0 124.332 100.791 225.122 225.122 225.122Z"/>
  <path fill="#95BEFA" stroke="#95BEFA" stroke-linejoin="round" stroke-width="10.508" d="m513.84 288.73 26.178-15.7-26.178-15.701v31.401Zm-7.696 46.668 28.736-10.294-22.599-20.513-6.137 30.807Zm-16.642 44.288 30.198-4.492-18.182-24.533-12.016 29.025Zm-24.976 40.19 30.487 1.477-13.035-27.594-17.452 26.117Zm-32.331 34.531 29.62 7.401-7.401-29.62-22.219 22.219ZM393.745 482l27.609 13.035-1.493-30.487L393.745 482Zm-43.082 19.531 24.517 18.168 4.493-30.198-29.01 12.03Zm-46.08 10.751 20.513 22.614 10.294-28.736-30.807 6.122Zm-47.284 1.581 15.716 26.178 15.7-26.178h-31.416Zm-46.674-7.703 10.294 28.736 20.513-22.614-30.807-6.122Zm-44.288-16.659 4.493 30.198 24.518-18.168-29.011-12.03Zm-40.185-24.953-1.492 30.487L152.269 482l-26.117-17.452Zm-34.557-32.36-7.4 29.62 29.619-7.401-22.219-22.219Zm-27.558-38.429L51 421.353l30.487-1.477-17.451-26.117Zm-19.54-43.098-18.183 24.533 30.198 4.492-12.015-29.025Zm-10.767-46.07-22.6 20.513 28.737 10.294-6.137-30.807Zm-1.552-47.262L6 273.03l26.178 15.7v-31.401Zm7.689-46.697L11.13 220.926l22.599 20.513 6.137-30.807Zm16.645-44.286-30.198 4.492 18.183 24.533 12.015-29.025Zm24.976-40.195-30.487-1.477 13.036 27.594 17.451-26.117Zm32.326-34.526-29.62-7.401 7.401 29.619 22.219-22.218Zm38.455-27.588L124.66 51l1.492 30.487 26.117-17.451Zm43.079-19.525L170.83 26.345l-4.493 30.198 29.011-12.03Zm46.084-10.752-20.513-22.614-10.294 28.736 30.807-6.122Zm47.283-1.582L273.015 6l-15.716 26.178h31.416Zm46.675 7.704-10.294-28.736-20.513 22.614 30.807 6.122Zm44.283 16.661-4.493-30.198-24.517 18.167 29.01 12.03Zm40.188 24.945 1.493-30.487-27.609 13.036 26.116 17.451Zm34.553 32.355 7.401-29.62-29.62 7.402 22.219 22.218Zm27.564 38.425 13.035-27.594-30.487 1.477 17.452 26.117Zm19.54 43.103 18.182-24.533-30.198-4.492 12.016 29.025Zm10.763 46.068 22.599-20.513-28.736-10.294 6.137 30.807Z"/>
  <path fill="#95BEFA" stroke="#95BEFA" stroke-linejoin="round" stroke-width="21.015" d="m236.36 53.114 36.655 36.655 36.639-36.655H236.36Zm234.458 117.098L447.291 216.4l46.172 23.528-22.645-69.716Zm-38.905 259.163-51.198-8.102-8.102 51.183 59.3-43.081Zm-258.505 43.081-8.101-51.183-51.198 8.102 59.299 43.081ZM52.556 239.928 98.728 216.4 75.2 170.212l-22.644 69.716Z"/>
  <path fill="#3F52B5" d="M273.011 76.122c7.536 0 13.645-6.109 13.645-13.644 0-7.536-6.109-13.645-13.645-13.645-7.535 0-13.644 6.109-13.644 13.645 0 7.535 6.109 13.644 13.644 13.644Z"/>
  <path fill="#3F52B5" fill-rule="evenodd" d="M59.8 203.734c2.315-7.158 10.02-11.087 17.193-8.757 7.158 2.33 11.087 10.036 8.772 17.193-2.33 7.157-10.036 11.086-17.208 8.756-7.158-2.33-11.087-10.035-8.757-17.192Zm81.443 250.646c-6.092-4.431-7.447-12.974-3.015-19.066 4.431-6.091 12.959-7.447 19.05-3.015 6.092 4.416 7.447 12.959 3.016 19.051-4.432 6.091-12.975 7.446-19.051 3.03Zm344.968-250.646c2.33 7.157-1.599 14.862-8.757 17.192-7.172 2.33-14.878-1.599-17.208-8.756-2.314-7.157 1.614-14.863 8.772-17.193 7.172-2.33 14.878 1.599 17.193 8.757ZM404.786 454.38c-6.092 4.416-14.635 3.061-19.066-3.03-4.432-6.092-3.076-14.635 3.015-19.051 6.091-4.432 14.635-3.076 19.051 3.015 4.431 6.092 3.076 14.635-3 19.066Z" clip-rule="evenodd"/>
  <path fill="#fff" fill-rule="evenodd" d="M273.475 144.082c-44.331-.289-80.611 33.262-80.881 74.786-.24 36.767 17.941 54.717 37.63 74.154 13.725 13.551 28.182 27.824 37.642 49.7l.001.001c.638.518 1.063.864 1.247 1.028a4.643 4.643 0 0 0 3.054 1.155 4.642 4.642 0 0 0 3.069-1.116c.05-.043.141-.082.252-.13.306-.131.771-.33 1.011-.883 9.427-21.668 24.09-35.748 38.093-49.195 19.942-19.149 38.544-37.012 38.783-73.668.27-41.524-35.571-75.544-79.901-75.832Zm-.772 118.938c21.951.143 39.863-17.803 40.008-40.084.145-22.281-17.532-40.459-39.483-40.602-21.951-.142-39.864 17.804-40.009 40.084-.144 22.281 17.533 40.459 39.484 40.602Zm-28.73 94.736c-3.663-.024-6.658 4.026-6.691 9.045l-.165 25.406c-.033 5.019 2.91 9.108 6.572 9.132l56.066.364c3.662.024 6.658-4.026 6.69-9.045l.166-25.406c.032-5.019-2.91-9.107-6.573-9.131l-56.065-.365Zm48.539 16.324-41.221-.268-.075 11.567 41.22.268.076-11.567Z" clip-rule="evenodd"/>
  <path fill="#fff" d="m247.989 369.551 47.655.31-.13 19.918-47.655-.31z"/>
</svg>
