<svg xmlns="http://www.w3.org/2000/svg" width="37" height="37" fill="none" viewBox="0 0 37 37">
  <g clip-path="url(#a)">
    <path fill="#111725" d="M18.359 32.545c7.757 0 14.045-6.288 14.045-14.045S26.116 4.455 18.359 4.455 4.314 10.743 4.314 18.5s6.288 14.045 14.045 14.045Z"/>
    <path stroke="#74ABFF" stroke-width="2.41" d="M18.359 33.285c8.164 0 14.783-6.619 14.783-14.783 0-8.165-6.619-14.783-14.783-14.783-8.165 0-14.783 6.618-14.783 14.783 0 8.164 6.618 14.783 14.783 14.783Z"/>
    <path fill="#74ABFF" stroke="#74ABFF" stroke-linejoin="round" stroke-width=".69" d="m34.173 19.533 1.719-1.031-1.72-1.031v2.062Zm-.505 3.064 1.887-.676-1.484-1.347-.403 2.023Zm-1.093 2.909 1.983-.295-1.194-1.611-.789 1.906Zm-1.64 2.639 2.002.097-.856-1.812-1.146 1.715Zm-2.123 2.267 1.945.486-.486-1.945-1.459 1.46Zm-2.525 1.812 1.813.856-.098-2.002-1.715 1.146Zm-2.829 1.283 1.61 1.193.295-1.983-1.905.79Zm-3.026.705 1.347 1.485.676-1.887-2.023.402Zm-3.105.104 1.032 1.72 1.03-1.72h-2.062Zm-3.065-.506.676 1.887 1.347-1.485-2.023-.402Zm-2.908-1.093.295 1.983 1.61-1.193-1.905-.79Zm-2.639-1.639-.098 2.002 1.813-.856-1.715-1.146Zm-2.269-2.125-.486 1.945 1.945-.486-1.459-1.459Zm-1.81-2.523-.856 1.812 2.002-.097-1.146-1.715ZM3.353 23.6l-1.194 1.61 1.983.296-.79-1.906Zm-.707-3.026-1.484 1.347 1.887.676-.403-2.023Zm-.102-3.104L.825 18.503l1.719 1.03v-2.061Zm.505-3.066-1.887.676 1.484 1.347.403-2.023Zm1.093-2.908-1.983.295 1.194 1.611.789-1.906Zm1.64-2.639L3.78 8.76l.856 1.812 1.146-1.715ZM7.905 6.59 5.96 6.104l.486 1.945 1.459-1.46Zm2.525-1.812-1.813-.856.098 2.002 1.715-1.146Zm2.829-1.282-1.61-1.193-.295 1.983 1.905-.79Zm3.026-.706-1.347-1.485-.676 1.887 2.023-.402Zm3.105-.104L18.359.966l-1.032 1.72h2.063Zm3.065.506-.676-1.887-1.347 1.485 2.023.402Zm2.908 1.094-.295-1.983-1.61 1.193 1.905.79Zm2.639 1.638.098-2.002-1.813.856 1.715 1.146Zm2.269 2.125.486-1.945-1.945.486 1.459 1.459Zm1.81 2.523.856-1.812-2.002.097 1.146 1.715Zm1.283 2.83 1.194-1.61-1.983-.296.789 1.906Zm.707 3.025 1.484-1.347-1.887-.676.403 2.023Z"/>
    <path fill="#95BEFA" stroke="#74ABFF" stroke-linejoin="round" stroke-width="1.38" d="m15.952 4.06 2.407 2.408 2.406-2.407h-4.813Zm15.396 7.69-1.545 3.033 3.032 1.545-1.487-4.578Zm-2.555 17.018-3.362-.532-.532 3.361 3.894-2.829Zm-16.975 2.829-.532-3.36-3.362.531 3.894 2.83ZM3.882 16.328l3.032-1.545-1.545-3.033-1.487 4.578Z"/>
    <path fill="#111725" d="M18.36 5.571a.896.896 0 1 0 0-1.792.896.896 0 0 0 0 1.792Z"/>
    <path fill="#111725" fill-rule="evenodd" d="M4.358 13.951a.896.896 0 1 1 1.704.554.896.896 0 0 1-1.704-.554ZM9.706 30.41a.897.897 0 1 1 1.055-1.45.897.897 0 0 1-1.055 1.45Zm22.653-16.459a.897.897 0 1 1-1.706.553.897.897 0 0 1 1.706-.553ZM27.012 30.41a.895.895 0 1 1-1.055-1.451.895.895 0 0 1 1.055 1.451Z" clip-rule="evenodd"/>
    <path fill="#74ABFF" fill-rule="evenodd" d="M18.39 10.034c-2.912-.019-5.294 2.185-5.312 4.911-.016 2.415 1.178 3.593 2.471 4.87.901.89 1.85 1.827 2.472 3.263l.082.068a.305.305 0 0 0 .402.003.068.068 0 0 1 .016-.009c.02-.009.051-.022.067-.058.619-1.423 1.582-2.348 2.501-3.23 1.31-1.258 2.531-2.43 2.547-4.838.018-2.727-2.336-4.96-5.247-4.98Zm-.052 7.811c1.442.01 2.618-1.169 2.627-2.632.01-1.463-1.15-2.657-2.592-2.666-1.442-.01-2.618 1.169-2.628 2.632-.009 1.463 1.152 2.657 2.593 2.666Z" clip-rule="evenodd"/>
    <path fill="#fff" fill-rule="evenodd" d="M16.452 24.065c-.24-.001-.437.265-.44.594l-.01 1.669c-.002.33.19.598.431.6l3.682.023c.24.002.437-.264.44-.594l.01-1.668c.002-.33-.191-.598-.431-.6l-3.682-.024Zm3.187 1.072-2.707-.017-.005.76 2.707.017.005-.76Z" clip-rule="evenodd"/>
    <path fill="#fff" d="m16.715 24.84 3.129.02-.009 1.308-3.129-.02z"/>
  </g>
  <defs>
    <clipPath id="a">
      <path fill="#fff" d="M0 0h37v37H0z"/>
    </clipPath>
  </defs>
</svg>
