<svg xmlns="http://www.w3.org/2000/svg" width="534" height="534" fill="none" viewBox="0 0 534 534">
  <g clip-path="url(#a)">
    <path fill="#295DAA" d="M267.004 480.873c118.12 0 213.876-95.755 213.876-213.876 0-118.12-95.756-213.876-213.876-213.876-118.121 0-213.877 95.756-213.877 213.876 0 118.121 95.756 213.876 213.877 213.876Z"/>
    <path stroke="#82B4FE" stroke-width="36.699" d="M267.006 492.137c124.328 0 225.115-100.787 225.115-225.114 0-124.328-100.787-225.115-225.115-225.115-124.327 0-225.114 100.787-225.114 225.115 0 124.327 100.787 225.114 225.114 225.114Z"/>
    <path fill="#82B4FE" stroke="#82B4FE" stroke-linejoin="round" stroke-width="10.507" d="M507.823 282.72 534 267.02l-26.177-15.7v31.4Zm-7.696 46.666 28.735-10.294-22.598-20.512-6.137 30.806Zm-16.641 44.289 30.197-4.492-18.182-24.533-12.015 29.025Zm-24.976 40.187 30.487 1.477-13.035-27.593-17.452 26.116Zm-32.329 34.531 29.618 7.401-7.401-29.618-22.217 22.217Zm-38.449 27.591 27.608 13.035-1.492-30.486-26.116 17.451Zm-43.081 19.53 24.517 18.167 4.492-30.197-29.009 12.03Zm-46.078 10.75 20.512 22.614 10.294-28.735-30.806 6.121Zm-47.283 1.582 15.715 26.177 15.7-26.177H251.29Zm-46.672-7.703 10.294 28.735 20.512-22.614-30.806-6.121Zm-44.286-16.659 4.492 30.197 24.517-18.167-29.009-12.03Zm-40.184-24.951-1.492 30.486 27.608-13.035-26.116-17.451Zm-34.555-32.357-7.401 29.618 29.618-7.401-22.217-22.217Zm-27.558-38.43L45 415.339l30.486-1.477-17.451-26.116ZM38.496 344.65l-18.183 24.533 30.197 4.492-12.014-29.025ZM27.73 298.58l-22.6 20.512 28.736 10.294-6.137-30.806Zm-1.553-47.26L0 267.02l26.177 15.7v-31.4Zm7.689-46.697L5.13 214.917l22.598 20.512 6.137-30.806ZM50.51 160.34l-30.196 4.492 18.182 24.532L50.51 160.34Zm24.976-40.193-30.487-1.477 13.036 27.593 17.45-26.116ZM107.81 85.62l-29.618-7.401 7.4 29.618 22.218-22.218Zm38.454-27.583-27.608-13.035 1.492 30.486 26.116-17.45Zm43.077-19.527-24.517-18.166-4.492 30.197 29.009-12.03Zm46.083-10.754L214.912 5.143l-10.294 28.735 30.806-6.122Zm47.281-1.579L267.005 0 251.29 26.177h31.415Zm46.674 7.701L319.085 5.143l-20.512 22.613 30.806 6.122ZM373.66 50.54l-4.492-30.196-24.517 18.167 29.009 12.03Zm40.188 24.948 1.492-30.486-27.608 13.035 26.116 17.451Zm34.55 32.349 7.401-29.618-29.618 7.4 22.217 22.218Zm27.564 38.426 13.035-27.593-30.487 1.477 17.452 26.116Zm19.539 43.101 18.182-24.532-30.197-4.492 12.015 29.024Zm10.763 46.065 22.598-20.512-28.735-10.294 6.137 30.806Z"/>
    <path fill="#82B4FE" stroke="#82B4FE" stroke-linejoin="round" stroke-width="21.015" d="m230.353 47.113 36.653 36.654 36.639-36.654h-73.292Zm234.45 117.094-23.527 46.186 46.171 23.527-22.644-69.713Zm-38.904 259.156-51.196-8.101-8.101 51.181 59.297-43.08Zm-258.496 43.08-8.101-51.181-51.196 8.101 59.297 43.08ZM46.555 233.92l46.17-23.527L69.2 164.207 46.555 233.92Z"/>
    <path fill="#295DAA" d="M267.003 70.117c7.535 0 13.644-6.11 13.644-13.645 0-7.535-6.109-13.644-13.644-13.644-7.536 0-13.645 6.109-13.645 13.644 0 7.536 6.109 13.645 13.645 13.645Z"/>
    <path fill="#295DAA" fill-rule="evenodd" d="M53.799 197.724c2.315-7.157 10.02-11.086 17.192-8.756 7.157 2.33 11.086 10.036 8.772 17.193-2.33 7.157-10.036 11.086-17.208 8.756-7.157-2.33-11.086-10.035-8.756-17.193Zm81.44 250.638c-6.091-4.432-7.447-12.974-3.015-19.066 4.431-6.091 12.959-7.446 19.05-3.015 6.091 4.416 7.446 12.959 3.015 19.05-4.431 6.092-12.974 7.447-19.05 3.031Zm344.956-250.638c2.33 7.158-1.599 14.863-8.756 17.193-7.173 2.33-14.878-1.599-17.208-8.756-2.315-7.157 1.614-14.863 8.771-17.193 7.173-2.33 14.878 1.599 17.193 8.756Zm-81.422 250.638c-6.091 4.416-14.634 3.061-19.065-3.031-4.432-6.091-3.076-14.634 3.015-19.05 6.091-4.431 14.634-3.076 19.05 3.015 4.431 6.092 3.076 14.634-3 19.066Z" clip-rule="evenodd"/>
    <path fill="#BBD7FF" fill-rule="evenodd" d="M267.466 138.076c-44.329-.289-80.608 33.261-80.878 74.783-.24 36.766 17.941 54.715 37.628 74.152 13.725 13.55 28.182 27.823 37.642 49.699l.001.001c.638.518 1.063.864 1.246 1.027a4.644 4.644 0 0 0 3.054 1.156 4.65 4.65 0 0 0 3.07-1.116c.05-.044.14-.083.252-.13.305-.132.77-.331 1.01-.884 9.427-21.666 24.09-35.747 38.093-49.193 19.94-19.148 38.542-37.011 38.781-73.666.27-41.522-35.57-75.541-79.899-75.829Zm-.772 118.936c21.95.143 39.862-17.803 40.007-40.083.145-22.28-17.532-40.457-39.482-40.6-21.95-.143-39.862 17.803-40.007 40.083-.145 22.28 17.532 40.457 39.482 40.6Zm-28.729 94.73c-3.662-.023-6.657 4.026-6.69 9.045l-.165 25.405c-.033 5.019 2.909 9.108 6.572 9.131l56.064.365c3.662.024 6.657-4.026 6.69-9.045l.165-25.405c.033-5.019-2.91-9.107-6.572-9.131l-56.064-.365Zm48.537 16.324-41.219-.268-.075 11.566 41.219.269.075-11.567Z" clip-rule="evenodd"/>
    <path fill="#BBD7FF" d="m241.974 363.537 47.654.31-.13 19.917-47.654-.31z"/>
  </g>
  <defs>
    <clipPath id="a">
      <path fill="#fff" d="M0 0h534v534H0z"/>
    </clipPath>
  </defs>
</svg>
