<svg width="399" height="105" viewBox="0 0 399 105" fill="none" xmlns="http://www.w3.org/2000/svg">
<path d="M180.458 62.1176V70.7576H177.818C170.698 70.7576 166.938 67.1575 166.938 60.3575V46.9175C166.938 41.3175 163.418 37.6276 157.898 37.6276C152.138 37.6276 148.218 41.3875 148.218 47.0775V70.7576H139.258V46.9175C139.258 41.3175 135.738 37.6276 130.218 37.6276C124.458 37.6276 120.538 41.3875 120.538 47.0775V70.7576H111.578V29.9475H120.538V35.2275C123.498 31.1475 127.818 28.9875 133.178 28.9875C139.498 28.9875 144.298 31.9475 146.618 36.8275C149.658 31.7875 154.538 28.9875 160.858 28.9875C169.898 28.9875 175.898 35.0675 175.898 44.2775V58.3575C175.898 60.6775 177.338 62.1176 179.658 62.1176H180.458Z" fill="black"/>
<path d="M229.918 62.1176V70.7576H227.358C221.598 70.7576 217.998 68.3576 216.878 63.8776C213.598 68.6776 208.398 71.7175 202.158 71.7175C190.638 71.7175 182.078 62.5175 182.078 50.3475C182.078 38.1875 190.638 28.9875 202.158 28.9875C208.158 28.9875 213.198 31.7875 216.478 36.2675V29.9475H225.438V58.3575C225.438 60.6775 226.798 62.1176 229.198 62.1176H229.918ZM216.478 50.3575C216.478 43.1575 211.118 37.6375 203.918 37.6375C196.638 37.6375 191.278 43.1575 191.278 50.3575C191.278 57.5575 196.638 63.0775 203.918 63.0775C211.118 63.0775 216.478 57.5575 216.478 50.3575Z" fill="black"/>
<path d="M278.637 50.3576C278.637 62.5176 269.997 71.7275 258.557 71.7275C252.477 71.7275 247.437 68.9275 244.157 64.4475V85.9675H235.197V29.9575H244.157V36.2775C247.437 31.7975 252.477 28.9976 258.557 28.9976C269.997 28.9876 278.637 38.1876 278.637 50.3576ZM269.347 50.3576C269.347 43.1576 263.987 37.6375 256.787 37.6375C249.587 37.6375 244.147 43.1576 244.147 50.3576C244.147 57.5576 249.587 63.0775 256.787 63.0775C263.997 63.0775 269.347 57.5576 269.347 50.3576Z" fill="black"/>
<path d="M353.588 62.1176V70.7576H350.948C343.828 70.7576 340.068 67.1575 340.068 60.3575V46.9175C340.068 41.3175 336.548 37.6276 331.028 37.6276C325.268 37.6276 321.348 41.3875 321.348 47.0775V70.7576H312.388V46.9175C312.388 41.3175 308.868 37.6276 303.348 37.6276C297.588 37.6276 293.668 41.3875 293.668 47.0775V70.7576H284.708V29.9475H293.668V35.2275C296.628 31.1475 300.948 28.9875 306.308 28.9875C312.628 28.9875 317.428 31.9475 319.758 36.8275C322.798 31.7875 327.678 28.9875 333.998 28.9875C343.038 28.9875 349.038 35.0675 349.038 44.2775V58.3575C349.038 60.6775 350.478 62.1176 352.798 62.1176H353.588Z" fill="black"/>
<path d="M398.487 53.7975H364.717C365.997 59.7175 370.877 63.6375 377.277 63.6375C381.997 63.6375 386.077 61.4775 388.157 58.3575H398.077C394.797 66.3575 386.797 71.7175 377.117 71.7175C364.477 71.7175 355.117 62.5175 355.117 50.3475C355.117 38.1875 364.477 28.9875 376.887 28.9875C389.367 28.9875 398.727 38.1876 398.727 50.4376C398.727 51.3176 398.647 52.8375 398.487 53.7975ZM364.797 46.4376H389.047C387.607 40.8376 382.807 37.0775 376.887 37.0775C370.967 37.0675 366.327 40.8376 364.797 46.4376Z" fill="black"/>
<path d="M73.8375 12.6675C56.9475 -4.2225 29.5575 -4.2225 12.6675 12.6675C-4.2225 29.5575 -4.2225 56.9475 12.6675 73.8375L22.8675 63.6375C11.6075 52.3775 11.6075 34.1175 22.8675 22.8575C34.1275 11.5975 52.3875 11.5975 63.6475 22.8575C74.9075 34.1175 74.9075 52.3775 63.6475 63.6375L73.8475 73.8375C90.7275 56.9475 90.7275 29.5575 73.8375 12.6675Z" fill="#2DC8FF"/>
<path d="M33.0575 33.0575C27.4275 38.6875 27.4275 47.8174 33.0575 53.4474L43.2475 63.6474L53.4475 53.4474C59.0775 47.8174 59.0775 38.6875 53.4475 33.0575C47.8075 27.4275 38.6875 27.4275 33.0575 33.0575Z" fill="#34CA82"/>
<path d="M43.2474 84.0374L33.0574 73.8374L22.8574 84.0374L43.2474 104.427L63.6374 84.0374L53.4374 73.8374L43.2474 84.0374Z" fill="#2DC8FF"/>
</svg>
