<svg id="twt" width="16" height="16" viewBox="0 0 16 16" fill="none" xmlns="http://www.w3.org/2000/svg">
<path d="M16 2.87231C15.405 3.13331 14.771 3.30631 14.11 3.39031C14.79 2.98431 15.309 2.34631 15.553 1.57731C14.919 1.95531 14.219 2.22231 13.473 2.37131C12.871 1.73031 12.013 1.33331 11.077 1.33331C9.261 1.33331 7.799 2.80731 7.799 4.61431C7.799 4.87431 7.821 5.12431 7.875 5.36231C5.148 5.22931 2.735 3.92231 1.114 1.93131C0.831 2.42231 0.665 2.98431 0.665 3.58931C0.665 4.72531 1.25 5.73231 2.122 6.31531C1.595 6.30531 1.078 6.15231 0.64 5.91131C0.64 5.92131 0.64 5.93431 0.64 5.94731C0.64 7.54131 1.777 8.86531 3.268 9.17031C3.001 9.24331 2.71 9.27831 2.408 9.27831C2.198 9.27831 1.986 9.26631 1.787 9.22231C2.212 10.5213 3.418 11.4763 4.852 11.5073C3.736 12.3803 2.319 12.9063 0.785 12.9063C0.516 12.9063 0.258 12.8943 0 12.8613C1.453 13.7983 3.175 14.3333 5.032 14.3333C11.068 14.3333 14.368 9.33331 14.368 4.99931C14.368 4.85431 14.363 4.71431 14.356 4.57531C15.007 4.11331 15.554 3.53631 16 2.87231Z" fill="#979DA6"/>
</svg>
