<svg id="ytb" width="16" height="16" viewBox="0 0 16 16" fill="none" xmlns="http://www.w3.org/2000/svg">
<path fill-rule="evenodd" clip-rule="evenodd" d="M13.456 2.75869C14.415 2.81269 14.886 2.95469 15.32 3.72669C15.772 4.49769 16 5.82569 16 8.16469V8.16769V8.17269C16 10.5007 15.772 11.8387 15.321 12.6017C14.887 13.3737 14.416 13.5137 13.457 13.5787C12.498 13.6337 10.089 13.6667 8.002 13.6667C5.911 13.6667 3.501 13.6337 2.543 13.5777C1.586 13.5127 1.115 13.3727 0.677 12.6007C0.23 11.8377 0 10.4997 0 8.17169V8.16969V8.16669V8.16369C0 5.82569 0.23 4.49769 0.677 3.72669C1.115 2.95369 1.587 2.81269 2.544 2.75769C3.501 2.69369 5.911 2.66669 8.002 2.66669C10.089 2.66669 12.498 2.69369 13.456 2.75869ZM11 8.16669L6 5.16669V11.1667L11 8.16669Z" fill="#979DA6"/>
</svg>
