<?xml version="1.0" encoding="UTF-8" standalone="no"?>
<svg
   xmlns:dc="http://purl.org/dc/elements/1.1/"
   xmlns:cc="http://creativecommons.org/ns#"
   xmlns:rdf="http://www.w3.org/1999/02/22-rdf-syntax-ns#"
   xmlns:svg="http://www.w3.org/2000/svg"
   xmlns="http://www.w3.org/2000/svg"
   xmlns:sodipodi="http://sodipodi.sourceforge.net/DTD/sodipodi-0.dtd"
   xmlns:inkscape="http://www.inkscape.org/namespaces/inkscape"
   id="maplibre"
   width="201.49544"
   height="53.836769"
   viewBox="0 0 201.49544 53.836769"
   version="1.1"
   sodipodi:docname="maplibre-aws-logo.svg"
   inkscape:version="0.92.5 (2060ec1f9f, 2020-04-08)"
   style="fill:none"
   inkscape:export-filename="/home/wipfli/maps/maplibre.github.io/static/img/maplibre-aws-logo.png"
   inkscape:export-xdpi="96"
   inkscape:export-ydpi="96">
  <metadata
     id="metadata27">
    <rdf:RDF>
      <cc:Work
         rdf:about="">
        <dc:format>image/svg+xml</dc:format>
        <dc:type
           rdf:resource="http://purl.org/dc/dcmitype/StillImage" />
        <dc:title></dc:title>
      </cc:Work>
    </rdf:RDF>
  </metadata>
  <defs
     id="defs25" />
  <sodipodi:namedview
     pagecolor="#ffffff"
     bordercolor="#666666"
     borderopacity="1"
     objecttolerance="10"
     gridtolerance="10"
     guidetolerance="10"
     inkscape:pageopacity="0"
     inkscape:pageshadow="2"
     inkscape:window-width="1920"
     inkscape:window-height="1135"
     id="namedview23"
     showgrid="false"
     inkscape:zoom="5.7454545"
     inkscape:cx="118.66641"
     inkscape:cy="30.76091"
     inkscape:window-x="0"
     inkscape:window-y="0"
     inkscape:window-maximized="1"
     inkscape:current-layer="maplibre"
     fit-margin-top="10"
     fit-margin-left="10"
     fit-margin-right="10"
     fit-margin-bottom="10" />
  <g
     id="g847"
     transform="translate(10,10.000061)">
    <path
       id="path2"
       d="M 22.9348,10.8303 21.9375,8.57549 21.4822,10.8303 20.0079,18.2669 H 17.6013 L 20.8968,2.33136 h 0.2602 l 4.3796,8.60734 1.3008,2.8836 1.3009,-2.8836 4.2928,-8.60734 h 0.2385 l 3.4256,15.93554 h -2.3849 l -1.6044,-7.4366 -0.477,-2.25481 -0.8672,2.25481 -3.8592,7.4366 h -0.1301 z"
       inkscape:connector-curvature="0"
       style="fill:#285daa" />
    <path
       id="path4"
       d="m 42.4809,18.4837 c -0.8961,0 -1.7272,-0.2096 -2.4933,-0.6287 -0.7516,-0.4337 -1.3586,-1.0407 -1.8212,-1.8213 -0.4481,-0.7949 -0.6721,-1.72 -0.6721,-2.7751 0,-1.0407 0.1951,-1.9513 0.5854,-2.7318 0.4047,-0.78054 0.9756,-1.38761 1.7128,-1.82123 0.7372,-0.43362 1.6044,-0.65043 2.6017,-0.65043 0.5782,0 1.1202,0.10118 1.6261,0.30354 0.5059,0.20235 0.9323,0.4553 1.2792,0.75883 0.3469,0.28908 0.5781,0.57816 0.6938,0.86724 l 0.0433,-1.66944 h 2.2332 v 9.95159 h -2.2115 l -0.0434,-1.7562 c -0.2457,0.5204 -0.6937,0.9829 -1.3442,1.3876 -0.6504,0.3903 -1.3803,0.5854 -2.1898,0.5854 z m 0.3903,-1.9513 c 0.8239,0 1.5177,-0.2818 2.0814,-0.8455 0.5637,-0.5782 0.8455,-1.3298 0.8455,-2.2549 v -0.1517 c 0,-0.6216 -0.1301,-1.178 -0.3902,-1.6695 -0.2602,-0.4914 -0.6143,-0.8744 -1.0624,-1.1491 -0.4481,-0.2746 -0.9395,-0.4119 -1.4743,-0.4119 -0.9251,0 -1.6405,0.3035 -2.1464,0.9106 -0.5059,0.5926 -0.7589,1.3659 -0.7589,2.3199 0,0.9684 0.2458,1.7561 0.7372,2.3632 0.5059,0.5926 1.2286,0.8889 2.1681,0.8889 z"
       inkscape:connector-curvature="0"
       style="fill:#285daa" />
    <path
       id="path6"
       d="m 51.462,8.31531 h 2.2548 v 1.84289 c 0.7949,-1.40204 2.038,-2.10306 3.7291,-2.10306 1.402,0 2.5367,0.44808 3.4039,1.34422 0.8673,0.88174 1.3009,2.16084 1.3009,3.83754 0,1.0407 -0.2168,1.9585 -0.6504,2.7535 -0.4192,0.795 -0.9974,1.4093 -1.7345,1.8429 -0.7227,0.4336 -1.5321,0.6504 -2.4283,0.6504 -0.8383,0 -1.5683,-0.1445 -2.1898,-0.4336 -0.607,-0.3036 -1.084,-0.7299 -1.4309,-1.2792 l 0.0217,6.7645 H 51.462 Z m 5.3335,8.19539 c 0.9395,0 1.6622,-0.2963 2.1681,-0.8889 0.5059,-0.6071 0.7588,-1.3803 0.7588,-2.3199 0,-0.9828 -0.2529,-1.7633 -0.7588,-2.3415 -0.4915,-0.5926 -1.2142,-0.8889 -2.1681,-0.8889 -0.5204,0 -1.0118,0.1301 -1.4743,0.3902 -0.4481,0.2458 -0.8095,0.6071 -1.0841,1.0841 -0.2601,0.4625 -0.3902,1.0045 -0.3902,1.6261 v 0.1517 c 0,0.6215 0.1301,1.178 0.3902,1.6695 0.2746,0.4769 0.636,0.8527 1.0841,1.1274 0.448,0.2601 0.9395,0.3902 1.4743,0.3902 z"
       inkscape:connector-curvature="0"
       style="fill:#285daa" />
    <path
       id="path8"
       d="m 64.6924,2.33124 h 2.4499 V 16.0987 h 4.5747 v 2.1681 h -7.0246 z"
       inkscape:connector-curvature="0"
       style="fill:#95befa" />
    <path
       id="path10"
       d="m 74.0725,8.31519 h 2.4282 v 9.95161 h -2.4282 z m 1.1924,-1.86456 c -0.4481,0 -0.8239,-0.15177 -1.1274,-0.4553 -0.3035,-0.30354 -0.4553,-0.67934 -0.4553,-1.12742 0,-0.40471 0.1518,-0.7516 0.4553,-1.04068 0.3035,-0.28908 0.6793,-0.43362 1.1274,-0.43362 0.4336,0 0.8022,0.14454 1.1057,0.43362 0.3036,0.28908 0.4553,0.63597 0.4553,1.04068 0,0.44808 -0.1517,0.82388 -0.4553,1.12742 -0.289,0.30353 -0.6576,0.4553 -1.1057,0.4553 z"
       inkscape:connector-curvature="0"
       style="fill:#95befa" />
    <path
       id="path12"
       d="m 85.6399,18.4836 c -0.8094,0 -1.5393,-0.1951 -2.1897,-0.5854 -0.636,-0.4047 -1.0769,-0.8672 -1.3226,-1.3876 l -0.0433,1.7562 H 79.8294 V 2.33124 h 2.2982 v 6.13572 l -0.1084,1.69114 c 0.2457,-0.57818 0.7227,-1.06962 1.431,-1.47433 0.7227,-0.41917 1.5032,-0.62875 2.3415,-0.62875 0.9829,0 1.8357,0.22404 2.5584,0.67211 0.7371,0.43362 1.3008,1.04792 1.6911,1.84287 0.3902,0.7805 0.5854,1.6911 0.5854,2.7318 0,1.0552 -0.2313,1.973 -0.6938,2.7535 -0.4481,0.7805 -1.0552,1.3804 -1.8212,1.7995 -0.7516,0.4192 -1.5755,0.6288 -2.4717,0.6288 z m -0.3902,-1.9513 c 0.9395,0 1.6622,-0.2963 2.1681,-0.8889 0.5059,-0.6071 0.7588,-1.3876 0.7588,-2.3416 0,-0.9684 -0.2529,-1.7489 -0.7588,-2.3415 -0.4914,-0.6071 -1.2141,-0.9106 -2.1681,-0.9106 -0.8239,0 -1.5177,0.2891 -2.0814,0.8672 -0.5637,0.5637 -0.8455,1.3081 -0.8455,2.2332 v 0.1517 c 0,0.6215 0.13,1.178 0.3902,1.6695 0.2746,0.4914 0.6288,0.8744 1.0624,1.1491 0.4481,0.2746 0.9395,0.4119 1.4743,0.4119 z"
       inkscape:connector-curvature="0"
       style="fill:#95befa" />
    <path
       id="path14"
       d="m 93.0589,8.31519 h 2.3416 v 1.95131 c 0.2312,-0.6649 0.607,-1.1997 1.1274,-1.60441 0.5203,-0.40471 1.1129,-0.60707 1.7778,-0.60707 0.4625,0 0.7805,0.04336 0.954,0.13009 l -0.3252,2.36319 c -0.1301,-0.0867 -0.412,-0.1301 -0.8456,-0.1301 -0.6793,0 -1.3009,0.2169 -1.8646,0.6505 -0.5492,0.4336 -0.8238,1.1274 -0.8238,2.0814 v 5.1167 h -2.3416 z"
       inkscape:connector-curvature="0"
       style="fill:#95befa" />
    <path
       id="path16"
       d="m 105.62,18.4836 c -1.185,0 -2.175,-0.2313 -2.97,-0.6938 -0.795,-0.477 -1.38,-1.1057 -1.756,-1.8863 -0.376,-0.7949 -0.564,-1.6622 -0.564,-2.6017 0,-1.0551 0.217,-1.9802 0.651,-2.7751 0.448,-0.79502 1.062,-1.40208 1.842,-1.82125 0.781,-0.43362 1.663,-0.65043 2.646,-0.65043 1.532,0 2.666,0.42639 3.403,1.27918 0.752,0.8383 1.128,2.0236 1.128,3.5557 0,0.3902 -0.022,0.795 -0.065,1.2141 h -7.155 c 0.159,0.8817 0.47,1.5177 0.932,1.9079 0.477,0.3903 1.135,0.5854 1.973,0.5854 0.694,0 1.265,-0.0578 1.713,-0.1734 0.448,-0.1156 0.86,-0.2746 1.236,-0.477 l 0.715,1.6694 c -0.361,0.2313 -0.852,0.4337 -1.474,0.6071 -0.621,0.1735 -1.373,0.2602 -2.255,0.2602 z m 2.103,-6.0057 c 0.015,-0.8961 -0.18,-1.5249 -0.585,-1.8862 -0.405,-0.3758 -0.983,-0.5637 -1.734,-0.5637 -1.518,0 -2.393,0.8166 -2.624,2.4499 z"
       inkscape:connector-curvature="0"
       style="fill:#95befa" />
    <path
       id="path18"
       d="M 0,6.09306 C 0,2.73343 2.91762,-6.10352e-5 6.5043,-6.10352e-5 c 3.5867,0 6.5043,2.7334910352 6.5043,6.0931210352 0,5.04844 -5.31905,9.31084 -6.15498,9.98064 -0.05198,0.0417 -0.08663,0.0695 -0.10158,0.0827 -0.06989,0.0611 -0.15882,0.0919 -0.24774,0.0919 -0.08893,0 -0.17785,-0.0308 -0.24771,-0.0919 C 6.24164,16.1432 6.20702,16.1154 6.15508,16.0738 5.31935,15.4041 0,11.1417 0,6.09306 Z m 6.50432,3.53032 c 1.77602,0 3.21576,-1.46138 3.21576,-3.26407 0,-1.80269 -1.43974,-3.26406 -3.21576,-3.26406 -1.77602,0 -3.21577,1.46137 -3.21577,3.26406 0,1.80269 1.43975,3.26407 3.21577,3.26407 z"
       inkscape:connector-curvature="0"
       style="clip-rule:evenodd;fill:#95befa;fill-rule:evenodd" />
    <path
       id="path20"
       d="m 2.83883,17.1496 c -0.47905,0 -0.86739,0.3883 -0.86739,0.8674 v 2.4248 c 0,0.479 0.38834,0.8673 0.86739,0.8673 h 7.33337 c 0.4791,0 0.8674,-0.3883 0.8674,-0.8673 V 18.017 c 0,-0.4791 -0.3883,-0.8674 -0.8674,-0.8674 z m 6.36253,1.5278 H 3.80972 v 1.1039 h 5.39164 z"
       inkscape:connector-curvature="0"
       style="clip-rule:evenodd;fill:#285daa;fill-rule:evenodd" />
  </g>
  <g
     id="g879"
     transform="matrix(0.17717998,0,0,0.17717998,137.4746,32.290689)"
     style="stroke-width:5.64397812">
    <path
       class="st0"
       d="m 88.953501,-49.334177 c 0,3.7 0.4,6.7 1.1,8.9 0.8,2.2 1.8,4.6 3.2,7.2 0.5,0.8 0.7,1.6 0.7,2.3 0,1 -0.6,2 -1.9,3 l -6.3,4.2 c -0.9,0.6 -1.8,0.9 -2.6,0.9 -1,0 -2,-0.5 -3,-1.4 -1.4,-1.5 -2.6,-3.1 -3.6,-4.7 -1,-1.7 -2,-3.6 -3.1,-5.9 -7.8,9.2 -17.6,13.8 -29.4,13.8 -8.4,0 -15.1,-2.4 -20,-7.2 -4.9,-4.8 -7.4,-11.2 -7.4,-19.2 0,-8.5 3,-15.4 9.1,-20.6 6.1,-5.2 14.2,-7.8 24.5,-7.8 3.4,0 6.9,0.3 10.6,0.8 3.7,0.5 7.5,1.3 11.5,2.2 v -7.3 c 0,-7.6 -1.6,-12.9 -4.7,-16 -3.2,-3.1 -8.6,-4.600003 -16.3,-4.600003 -3.5,0 -7.1,0.4 -10.8,1.300003 -3.7,0.9 -7.3,2 -10.8,3.4 -1.6,0.7 -2.8,1.1 -3.5,1.3 -0.7,0.2 -1.2,0.3 -1.6,0.3 -1.4,0 -2.1,-1 -2.1,-3.1 v -4.900003 c 0,-1.6 0.2,-2.8 0.7,-3.5 0.5,-0.7 1.4,-1.4 2.8,-2.1 3.5,-1.8 7.7,-3.3 12.6,-4.5 4.9,-1.3 10.1,-1.9 15.6,-1.9 11.9,0 20.6,2.7 26.2,8.1 5.5,5.4 8.3,13.600003 8.3,24.600003 v 32.4 z m -40.6,15.2 c 3.3,0 6.7,-0.6 10.3,-1.8 3.6,-1.2 6.8,-3.4 9.5,-6.4 1.6,-1.9 2.8,-4 3.4,-6.4 0.6,-2.4 1,-5.3 1,-8.7 v -4.2 c -2.9,-0.7 -6,-1.3 -9.2,-1.7 -3.2,-0.4 -6.3,-0.6 -9.4,-0.6 -6.7,0 -11.6,1.3 -14.9,4 -3.3,2.7 -4.9,6.5 -4.9,11.5 0,4.7 1.2,8.2 3.7,10.6 2.4,2.5 5.9,3.7 10.5,3.7 z m 80.299999,10.8 c -1.8,0 -3,-0.3 -3.8,-1 -0.8,-0.6 -1.5,-2 -2.1,-3.9 L 99.253501,-105.53418 c -0.6,-2 -0.9,-3.3 -0.9,-4 0,-1.6 0.8,-2.5 2.399999,-2.5 h 9.8 c 1.9,0 3.2,0.3 3.9,1 0.8,0.6 1.4,2 2,3.9 l 16.8,66.200003 15.6,-66.200003 c 0.5,-2 1.1,-3.3 1.9,-3.9 0.8,-0.6 2.2,-1 4,-1 h 8 c 1.9,0 3.2,0.3 4,1 0.8,0.6 1.5,2 1.9,3.9 l 15.8,67.000003 17.3,-67.000003 c 0.6,-2 1.3,-3.3 2,-3.9 0.8,-0.6 2.1,-1 3.9,-1 h 9.3 c 1.6,0 2.5,0.8 2.5,2.5 0,0.5 -0.1,1 -0.2,1.6 -0.1,0.6 -0.3,1.4 -0.7,2.5 l -24.1,77.300003 c -0.6,2 -1.3,3.3 -2.1,3.9 -0.8,0.6 -2.1,1 -3.8,1 h -8.6 c -1.9,0 -3.2,-0.3 -4,-1 -0.8,-0.7 -1.5,-2 -1.9,-4 l -15.5,-64.5 -15.4,64.4 c -0.5,2 -1.1,3.3 -1.9,4 -0.8,0.7 -2.2,1 -4,1 z m 128.5,2.7 c -5.2,0 -10.4,-0.6 -15.4,-1.8 -5,-1.2 -8.9,-2.5 -11.5,-4 -1.6,-0.9 -2.7,-1.9 -3.1,-2.8 -0.4,-0.9 -0.6,-1.9 -0.6,-2.8 v -5.1 c 0,-2.1 0.8,-3.1 2.3,-3.1 0.6,0 1.2,0.1 1.8,0.3 0.6,0.2 1.5,0.6 2.5,1 3.4,1.5 7.1,2.7 11,3.5 4,0.8 7.9,1.2 11.9,1.2 6.3,0 11.2,-1.1 14.6,-3.3 3.4,-2.2 5.2,-5.4 5.2,-9.5 0,-2.8 -0.9,-5.1 -2.7,-7 -1.8,-1.9 -5.2,-3.6 -10.1,-5.2 l -14.5,-4.5 c -7.3,-2.3 -12.7,-5.7 -16,-10.2 -3.3,-4.4 -5,-9.3 -5,-14.5 0,-4.2 0.9,-7.9 2.7,-11.1 1.8,-3.200003 4.2,-6.000003 7.2,-8.200003 3,-2.3 6.4,-4 10.4,-5.2 4,-1.2 8.2,-1.7 12.6,-1.7 2.2,0 4.5,0.1 6.7,0.4 2.3,0.3 4.4,0.7 6.5,1.1 2,0.5 3.9,1 5.7,1.6 1.8,0.6 3.2,1.2 4.2,1.8 1.4,0.8 2.4,1.6 3,2.5 0.6,0.8 0.9,1.9 0.9,3.3 v 4.700003 c 0,2.1 -0.8,3.2 -2.3,3.2 -0.8,0 -2.1,-0.4 -3.8,-1.2 -5.7,-2.6 -12.1,-3.900003 -19.2,-3.900003 -5.7,0 -10.2,0.9 -13.3,2.800003 -3.1,1.9 -4.7,4.8 -4.7,8.9 0,2.8 1,5.2 3,7.1 2,1.9 5.7,3.8 11,5.5 l 14.2,4.5 c 7.2,2.3 12.4,5.5 15.5,9.6 3.1,4.1 4.6,8.8 4.6,14 0,4.3 -0.9,8.2 -2.6,11.6 -1.8,3.4 -4.2,6.4 -7.3,8.8 -3.1,2.5 -6.8,4.3 -11.1,5.6 -4.5,1.4 -9.2,2.1 -14.3,2.1 z"
       id="path4-8"
       inkscape:connector-curvature="0"
       style="fill:#252f3e;stroke-width:5.64397812" />
    <g
       id="g10"
       transform="translate(2.5535006,-115.73418)"
       style="stroke-width:5.64397812">
      <path
         class="st1"
         d="M 273.5,143.7 C 240.6,168 192.8,180.9 151.7,180.9 94.1,180.9 42.2,159.6 3,124.2 c -3.1,-2.8 -0.3,-6.6 3.4,-4.4 42.4,24.6 94.7,39.5 148.8,39.5 36.5,0 76.6,-7.6 113.5,-23.2 5.5,-2.5 10.2,3.6 4.8,7.6 z"
         id="path6-7"
         inkscape:connector-curvature="0"
         style="clip-rule:evenodd;fill:#ff9900;fill-rule:evenodd;stroke-width:5.64397812" />
      <path
         class="st1"
         d="m 287.2,128.1 c -4.2,-5.4 -27.8,-2.6 -38.5,-1.3 -3.2,0.4 -3.7,-2.4 -0.8,-4.5 18.8,-13.2 49.7,-9.4 53.3,-5 3.6,4.5 -1,35.4 -18.6,50.2 -2.7,2.3 -5.3,1.1 -4.1,-1.9 4,-9.9 12.9,-32.2 8.7,-37.5 z"
         id="path8-9"
         inkscape:connector-curvature="0"
         style="clip-rule:evenodd;fill:#ff9900;fill-rule:evenodd;stroke-width:5.64397812" />
    </g>
  </g>
</svg>
