<svg width="572" height="135" viewBox="0 0 572 135" fill="none" xmlns="http://www.w3.org/2000/svg">
<path d="M163.936 119H193.312V82.136H200.224L221.104 119H252.208L227.584 76.376C238.384 72.2 246.16 63.992 246.16 49.304V48.728C246.16 26.984 231.184 16.04 204.256 16.04H163.936V119ZM193.312 62.984V38.216H202.96C212.464 38.216 217.648 41.528 217.648 49.88V50.456C217.648 58.808 212.752 62.984 202.816 62.984H193.312Z" fill="#000257"/>
<path d="M282.503 120.728C294.599 120.728 301.223 115.688 304.823 110.216V119H329.879V70.184C329.879 50.168 316.631 41.672 295.895 41.672C275.303 41.672 261.047 50.6 259.895 68.744H284.087C284.663 63.992 287.255 59.816 294.311 59.816C302.519 59.816 304.247 64.568 304.247 71.768V73.496H297.047C271.991 73.496 257.015 80.408 257.015 98.12C257.015 114.104 268.967 120.728 282.503 120.728ZM291.431 103.304C285.383 103.304 282.503 100.568 282.503 96.248C282.503 90.056 287.111 88.04 297.479 88.04H304.247V92.648C304.247 99.128 298.775 103.304 291.431 103.304Z" fill="#000257"/>
<path d="M372.521 120.728C383.897 120.728 392.249 114.536 395.993 106.76V119H421.769V10.568H395.993V54.344C391.673 46.712 384.617 41.672 372.809 41.672C354.953 41.672 340.841 55.352 340.841 80.984V82.136C340.841 108.2 355.097 120.728 372.521 120.728ZM381.593 101C372.665 101 367.049 94.52 367.049 81.848V80.696C367.049 67.592 372.233 61.112 381.881 61.112C391.385 61.112 396.713 67.88 396.713 80.552V81.704C396.713 94.52 390.953 101 381.593 101Z" fill="#000257"/>
<path d="M458.144 120.728C470.24 120.728 476.864 115.688 480.464 110.216V119H505.52V70.184C505.52 50.168 492.272 41.672 471.536 41.672C450.944 41.672 436.688 50.6 435.536 68.744H459.728C460.304 63.992 462.896 59.816 469.952 59.816C478.16 59.816 479.888 64.568 479.888 71.768V73.496H472.688C447.632 73.496 432.656 80.408 432.656 98.12C432.656 114.104 444.608 120.728 458.144 120.728ZM467.072 103.304C461.024 103.304 458.144 100.568 458.144 96.248C458.144 90.056 462.752 88.04 473.12 88.04H479.888V92.648C479.888 99.128 474.416 103.304 467.072 103.304Z" fill="#000257"/>
<path d="M520.226 119H546.002V83.288C546.002 71.192 554.642 66.296 570.338 66.728V42.68C558.674 42.536 550.754 47.432 546.002 58.664V43.688H520.226V119Z" fill="#000257"/>
<path d="M110 135L55 0L0 135L55 112L110 135Z" fill="#000257"/>
</svg>
