<svg xmlns="http://www.w3.org/2000/svg" viewBox="0 0 120 44" fill="none">
  <path d="M12 12.584a4.325 4.325 0 0 1-4.32-4.32A4.325 4.325 0 0 1 12 3.944a4.325 4.325 0 0 1 4.32 4.32 4.325 4.325 0 0 1-4.32 4.32zM12 0C7.443 0 3.736 3.707 3.736 8.264c0 4.557 3.707 8.264 8.264 8.264 4.557 0 8.264-3.707 8.264-8.264C20.264 3.707 16.557 0 12 0m0 24 3.167-5.486H8.833Z" transform="translate(0, 10) scale(0.917)" fill="#DF1B12"/>
  <text x="28" y="32" font-family="Arial Black, Arial Bold, Arial, Helvetica, sans-serif" font-size="24" font-weight="900" fill="#DF1B12">TomTom</text>
</svg>
