<?xml version="1.0" encoding="UTF-8" standalone="no"?>
<svg
   id="maplibre"
   width="280.1969"
   height="53.542484"
   viewBox="0 0 280.1969 53.542484"
   version="1.1"
   sodipodi:docname="maplibre-komoot-logo.svg"
   inkscape:version="1.2.2 (b0a84865, 2022-12-01)"
   style="fill:none"
   inkscape:export-filename="/home/wipfli/maps/maplibre.github.io/static/img/maplibre-aws-logo.png"
   inkscape:export-xdpi="96"
   inkscape:export-ydpi="96"
   xmlns:inkscape="http://www.inkscape.org/namespaces/inkscape"
   xmlns:sodipodi="http://sodipodi.sourceforge.net/DTD/sodipodi-0.dtd"
   xmlns="http://www.w3.org/2000/svg"
   xmlns:svg="http://www.w3.org/2000/svg"
   xmlns:rdf="http://www.w3.org/1999/02/22-rdf-syntax-ns#"
   xmlns:cc="http://creativecommons.org/ns#"
   xmlns:dc="http://purl.org/dc/elements/1.1/">
  <metadata
     id="metadata27">
    <rdf:RDF>
      <cc:Work
         rdf:about="">
        <dc:format>image/svg+xml</dc:format>
        <dc:type
           rdf:resource="http://purl.org/dc/dcmitype/StillImage" />
        <dc:title />
      </cc:Work>
    </rdf:RDF>
  </metadata>
  <defs
     id="defs25">
    <style
       id="style872">.cls-1{fill:none;}.cls-2{fill:#1c2b33;}.cls-3{clip-path:url(#clip-path);}.cls-4{clip-path:url(#clip-path-2);}.cls-5{fill:url(#linear-gradient);}</style>
    <clipPath
       id="clip-path">
      <path
         id="path874"
         d="m 2079.9949,1000 c -123.3911,0 -219.8478,92.936 -307.164,210.9931 C 1652.8424,1058.2153 1552.4949,1000 1432.4089,1000 c -244.8276,0 -432.4138,318.6207 -432.4138,655.8621 0,211.0344 102.0956,344.1379 273.1035,344.1379 123.0805,0 211.6,-58.0259 368.9655,-333.1034 0,0 65.5973,-115.8413 110.7249,-195.6386 q 23.72,38.2978 49.9647,82.5351 l 73.7931,124.1379 C 2020.294,1918.4789 2100.3854,2000 2245.5123,2000 c 166.5959,0 259.31,-134.9233 259.31,-350.3448 C 2504.8227,1296.5517 2313.0069,1000 2079.9949,1000 Z m -557.9308,592.4138 c -127.5862,200 -171.7242,244.8276 -242.7587,244.8276 -73.1034,0 -116.5517,-64.1784 -116.5517,-178.6207 0,-244.8276 122.069,-495.1724 267.5862,-495.1724 78.8013,0 144.6539,45.51 245.5224,189.9131 -95.7792,146.9109 -153.7982,239.0524 -153.7982,239.0524 z m 481.5283,-25.178 -88.23,-147.1481 q -35.8152,-58.2482 -68.8384,-107.23 c 79.52,-122.7353 145.1135,-183.8919 223.1261,-183.8919 162.0691,0 291.7243,238.6207 291.7243,531.7241 0,111.7242 -36.5935,176.5518 -112.4139,176.5518 -72.6705,-3e-4 -107.3867,-47.9943 -245.3681,-270.0059 z"
         class="cls-1"
         inkscape:connector-curvature="0"
         style="fill:none" />
    </clipPath>
    <clipPath
       id="clip-path-2">
      <rect
         id="rect877"
         height="1010"
         width="1514.828"
         y="994.99982"
         x="994.99487"
         class="cls-1"
         style="fill:none" />
    </clipPath>
    <linearGradient
       gradientUnits="userSpaceOnUse"
       y2="987.27722"
       x2="1449.0802"
       y1="1532.9408"
       x1="1865.507"
       id="linear-gradient"
       gradientTransform="matrix(58.441333,0,0,58.441333,-232391.7,-55884.815)">
      <stop
         id="stop880"
         stop-color="#0869e1"
         offset="0.1336" />
      <stop
         id="stop882"
         stop-color="#0064e0"
         offset="0.8727" />
    </linearGradient>
    <linearGradient
       gradientUnits="userSpaceOnUse"
       y2="102.001"
       x2="47.999599"
       y1="6.0071602"
       x1="47.999599"
       id="paint0_linear_45_177">
      <stop
         id="stop860"
         stop-color="#8FCE3C" />
      <stop
         id="stop862"
         stop-color="#64A322"
         offset="1" />
    </linearGradient>
  </defs>
  <sodipodi:namedview
     pagecolor="#ffffff"
     bordercolor="#666666"
     borderopacity="1"
     objecttolerance="10"
     gridtolerance="10"
     guidetolerance="10"
     inkscape:pageopacity="0"
     inkscape:pageshadow="2"
     inkscape:window-width="1440"
     inkscape:window-height="847"
     id="namedview23"
     showgrid="false"
     inkscape:zoom="1.4363636"
     inkscape:cx="130.88608"
     inkscape:cy="55.348103"
     inkscape:window-x="0"
     inkscape:window-y="25"
     inkscape:window-maximized="0"
     inkscape:current-layer="Misc/Logo/JawgMaps/Blue"
     fit-margin-top="10"
     fit-margin-left="10"
     fit-margin-right="10"
     fit-margin-bottom="10"
     inkscape:showpageshadow="2"
     inkscape:pagecheckerboard="0"
     inkscape:deskcolor="#d1d1d1" />
  <g
     id="g847"
     transform="translate(10,16.321495)">
    <path
       id="path2"
       d="M 22.9348,10.8303 21.9375,8.57549 21.4822,10.8303 20.0079,18.2669 H 17.6013 L 20.8968,2.33136 h 0.2602 l 4.3796,8.60734 1.3008,2.8836 1.3009,-2.8836 4.2928,-8.60734 h 0.2385 l 3.4256,15.93554 h -2.3849 l -1.6044,-7.4366 -0.477,-2.25481 -0.8672,2.25481 -3.8592,7.4366 h -0.1301 z"
       inkscape:connector-curvature="0"
       style="fill:#285daa" />
    <path
       id="path4"
       d="m 42.4809,18.4837 c -0.8961,0 -1.7272,-0.2096 -2.4933,-0.6287 -0.7516,-0.4337 -1.3586,-1.0407 -1.8212,-1.8213 -0.4481,-0.7949 -0.6721,-1.72 -0.6721,-2.7751 0,-1.0407 0.1951,-1.9513 0.5854,-2.7318 0.4047,-0.78054 0.9756,-1.38761 1.7128,-1.82123 0.7372,-0.43362 1.6044,-0.65043 2.6017,-0.65043 0.5782,0 1.1202,0.10118 1.6261,0.30354 0.5059,0.20235 0.9323,0.4553 1.2792,0.75883 0.3469,0.28908 0.5781,0.57816 0.6938,0.86724 l 0.0433,-1.66944 h 2.2332 v 9.95159 h -2.2115 l -0.0434,-1.7562 c -0.2457,0.5204 -0.6937,0.9829 -1.3442,1.3876 -0.6504,0.3903 -1.3803,0.5854 -2.1898,0.5854 z m 0.3903,-1.9513 c 0.8239,0 1.5177,-0.2818 2.0814,-0.8455 0.5637,-0.5782 0.8455,-1.3298 0.8455,-2.2549 v -0.1517 c 0,-0.6216 -0.1301,-1.178 -0.3902,-1.6695 -0.2602,-0.4914 -0.6143,-0.8744 -1.0624,-1.1491 -0.4481,-0.2746 -0.9395,-0.4119 -1.4743,-0.4119 -0.9251,0 -1.6405,0.3035 -2.1464,0.9106 -0.5059,0.5926 -0.7589,1.3659 -0.7589,2.3199 0,0.9684 0.2458,1.7561 0.7372,2.3632 0.5059,0.5926 1.2286,0.8889 2.1681,0.8889 z"
       inkscape:connector-curvature="0"
       style="fill:#285daa" />
    <path
       id="path6"
       d="m 51.462,8.31531 h 2.2548 v 1.84289 c 0.7949,-1.40204 2.038,-2.10306 3.7291,-2.10306 1.402,0 2.5367,0.44808 3.4039,1.34422 0.8673,0.88174 1.3009,2.16084 1.3009,3.83754 0,1.0407 -0.2168,1.9585 -0.6504,2.7535 -0.4192,0.795 -0.9974,1.4093 -1.7345,1.8429 -0.7227,0.4336 -1.5321,0.6504 -2.4283,0.6504 -0.8383,0 -1.5683,-0.1445 -2.1898,-0.4336 -0.607,-0.3036 -1.084,-0.7299 -1.4309,-1.2792 l 0.0217,6.7645 H 51.462 Z m 5.3335,8.19539 c 0.9395,0 1.6622,-0.2963 2.1681,-0.8889 0.5059,-0.6071 0.7588,-1.3803 0.7588,-2.3199 0,-0.9828 -0.2529,-1.7633 -0.7588,-2.3415 -0.4915,-0.5926 -1.2142,-0.8889 -2.1681,-0.8889 -0.5204,0 -1.0118,0.1301 -1.4743,0.3902 -0.4481,0.2458 -0.8095,0.6071 -1.0841,1.0841 -0.2601,0.4625 -0.3902,1.0045 -0.3902,1.6261 v 0.1517 c 0,0.6215 0.1301,1.178 0.3902,1.6695 0.2746,0.4769 0.636,0.8527 1.0841,1.1274 0.448,0.2601 0.9395,0.3902 1.4743,0.3902 z"
       inkscape:connector-curvature="0"
       style="fill:#285daa" />
    <path
       id="path8"
       d="m 64.6924,2.33124 h 2.4499 V 16.0987 h 4.5747 v 2.1681 h -7.0246 z"
       inkscape:connector-curvature="0"
       style="fill:#95befa" />
    <path
       id="path10"
       d="m 74.0725,8.31519 h 2.4282 v 9.95161 h -2.4282 z m 1.1924,-1.86456 c -0.4481,0 -0.8239,-0.15177 -1.1274,-0.4553 -0.3035,-0.30354 -0.4553,-0.67934 -0.4553,-1.12742 0,-0.40471 0.1518,-0.7516 0.4553,-1.04068 0.3035,-0.28908 0.6793,-0.43362 1.1274,-0.43362 0.4336,0 0.8022,0.14454 1.1057,0.43362 0.3036,0.28908 0.4553,0.63597 0.4553,1.04068 0,0.44808 -0.1517,0.82388 -0.4553,1.12742 -0.289,0.30353 -0.6576,0.4553 -1.1057,0.4553 z"
       inkscape:connector-curvature="0"
       style="fill:#95befa" />
    <path
       id="path12"
       d="m 85.6399,18.4836 c -0.8094,0 -1.5393,-0.1951 -2.1897,-0.5854 -0.636,-0.4047 -1.0769,-0.8672 -1.3226,-1.3876 l -0.0433,1.7562 H 79.8294 V 2.33124 h 2.2982 v 6.13572 l -0.1084,1.69114 c 0.2457,-0.57818 0.7227,-1.06962 1.431,-1.47433 0.7227,-0.41917 1.5032,-0.62875 2.3415,-0.62875 0.9829,0 1.8357,0.22404 2.5584,0.67211 0.7371,0.43362 1.3008,1.04792 1.6911,1.84287 0.3902,0.7805 0.5854,1.6911 0.5854,2.7318 0,1.0552 -0.2313,1.973 -0.6938,2.7535 -0.4481,0.7805 -1.0552,1.3804 -1.8212,1.7995 -0.7516,0.4192 -1.5755,0.6288 -2.4717,0.6288 z m -0.3902,-1.9513 c 0.9395,0 1.6622,-0.2963 2.1681,-0.8889 0.5059,-0.6071 0.7588,-1.3876 0.7588,-2.3416 0,-0.9684 -0.2529,-1.7489 -0.7588,-2.3415 -0.4914,-0.6071 -1.2141,-0.9106 -2.1681,-0.9106 -0.8239,0 -1.5177,0.2891 -2.0814,0.8672 -0.5637,0.5637 -0.8455,1.3081 -0.8455,2.2332 v 0.1517 c 0,0.6215 0.13,1.178 0.3902,1.6695 0.2746,0.4914 0.6288,0.8744 1.0624,1.1491 0.4481,0.2746 0.9395,0.4119 1.4743,0.4119 z"
       inkscape:connector-curvature="0"
       style="fill:#95befa" />
    <path
       id="path14"
       d="m 93.0589,8.31519 h 2.3416 v 1.95131 c 0.2312,-0.6649 0.607,-1.1997 1.1274,-1.60441 0.5203,-0.40471 1.1129,-0.60707 1.7778,-0.60707 0.4625,0 0.7805,0.04336 0.954,0.13009 l -0.3252,2.36319 c -0.1301,-0.0867 -0.412,-0.1301 -0.8456,-0.1301 -0.6793,0 -1.3009,0.2169 -1.8646,0.6505 -0.5492,0.4336 -0.8238,1.1274 -0.8238,2.0814 v 5.1167 h -2.3416 z"
       inkscape:connector-curvature="0"
       style="fill:#95befa" />
    <path
       id="path16"
       d="m 105.62,18.4836 c -1.185,0 -2.175,-0.2313 -2.97,-0.6938 -0.795,-0.477 -1.38,-1.1057 -1.756,-1.8863 -0.376,-0.7949 -0.564,-1.6622 -0.564,-2.6017 0,-1.0551 0.217,-1.9802 0.651,-2.7751 0.448,-0.79502 1.062,-1.40208 1.842,-1.82125 0.781,-0.43362 1.663,-0.65043 2.646,-0.65043 1.532,0 2.666,0.42639 3.403,1.27918 0.752,0.8383 1.128,2.0236 1.128,3.5557 0,0.3902 -0.022,0.795 -0.065,1.2141 h -7.155 c 0.159,0.8817 0.47,1.5177 0.932,1.9079 0.477,0.3903 1.135,0.5854 1.973,0.5854 0.694,0 1.265,-0.0578 1.713,-0.1734 0.448,-0.1156 0.86,-0.2746 1.236,-0.477 l 0.715,1.6694 c -0.361,0.2313 -0.852,0.4337 -1.474,0.6071 -0.621,0.1735 -1.373,0.2602 -2.255,0.2602 z m 2.103,-6.0057 c 0.015,-0.8961 -0.18,-1.5249 -0.585,-1.8862 -0.405,-0.3758 -0.983,-0.5637 -1.734,-0.5637 -1.518,0 -2.393,0.8166 -2.624,2.4499 z"
       inkscape:connector-curvature="0"
       style="fill:#95befa" />
    <path
       id="path18"
       d="M 0,6.09306 C 0,2.73343 2.91762,-6.10352e-5 6.5043,-6.10352e-5 c 3.5867,0 6.5043,2.7334910352 6.5043,6.0931210352 0,5.04844 -5.31905,9.31084 -6.15498,9.98064 -0.05198,0.0417 -0.08663,0.0695 -0.10158,0.0827 -0.06989,0.0611 -0.15882,0.0919 -0.24774,0.0919 -0.08893,0 -0.17785,-0.0308 -0.24771,-0.0919 C 6.24164,16.1432 6.20702,16.1154 6.15508,16.0738 5.31935,15.4041 0,11.1417 0,6.09306 Z m 6.50432,3.53032 c 1.77602,0 3.21576,-1.46138 3.21576,-3.26407 0,-1.80269 -1.43974,-3.26406 -3.21576,-3.26406 -1.77602,0 -3.21577,1.46137 -3.21577,3.26406 0,1.80269 1.43975,3.26407 3.21577,3.26407 z"
       inkscape:connector-curvature="0"
       style="clip-rule:evenodd;fill:#95befa;fill-rule:evenodd" />
    <path
       id="path20"
       d="m 2.83883,17.1496 c -0.47905,0 -0.86739,0.3883 -0.86739,0.8674 v 2.4248 c 0,0.479 0.38834,0.8673 0.86739,0.8673 h 7.33337 c 0.4791,0 0.8674,-0.3883 0.8674,-0.8673 V 18.017 c 0,-0.4791 -0.3883,-0.8674 -0.8674,-0.8674 z m 6.36253,1.5278 H 3.80972 v 1.1039 h 5.39164 z"
       inkscape:connector-curvature="0"
       style="clip-rule:evenodd;fill:#285daa;fill-rule:evenodd" />
  </g>
  <g
     id="Artboard_outline"
     data-name="Artboard outline"
     transform="translate(-3855.3175,-955.42891)">
    <rect
       style="fill:none"
       y="0"
       class="cls-1"
       x="-0.0049000001"
       width="6962.3647"
       height="3000"
       id="rect887" />
  </g>
  <g
     id="Misc/Logo/JawgMaps/Blue"
     stroke="none"
     stroke-width="1.82848"
     fill="none"
     fill-rule="evenodd"
     transform="matrix(0.5469035,0,0,0.5469035,142.68277,18.652735)">
    <g
       id="logo"
       fill="#0094ff"
       style="stroke-width:2.46297"
       transform="matrix(1.1084424,0,0,1.1084424,-4.8631664,-5.5663954)">
      <path
         d="m 23.147208,18.375634 c 0,1.738694 -1.408877,3.147209 -3.146975,3.147209 -1.738097,0 -3.147441,-1.408515 -3.147441,-3.147209 0,-1.738226 1.409344,-3.147208 3.147441,-3.147208 1.738098,0 3.146975,1.408982 3.146975,3.147208 M 31.227604,3.448115 V 7.766424 18.43785 c 0,0.517917 -0.163774,3.337999 -3.407522,7.985256 -0.300952,0.431131 -0.628499,0.877659 -0.984509,1.338185 -0.198302,0.257559 -0.418067,0.518851 -0.6285,0.778743 -0.495987,0.612168 -1.019036,1.229003 -1.581746,1.851903 -0.94205,1.041434 -1.967152,2.094532 -3.082774,3.152762 L 20.0028,35.003733 19.9972,35.009333 18.452781,33.5447 C 13.984229,29.312243 8.7663307,22.815883 8.7663307,18.43785 c 0,-0.103584 0.011665,-0.205767 0.014464,-0.309351 0.0042,-0.177305 0.012131,-0.35321 0.024729,-0.528182 0.007,-0.09845 0.012131,-0.197368 0.022396,-0.295353 0.027995,-0.290686 0.069522,-0.578107 0.1199141,-0.862262 0.007,-0.03593 0.012598,-0.07232 0.019597,-0.108249 0.4222658,-2.253173 1.5224902,-4.270717 3.0832402,-5.827734 0.176838,-0.179171 0.358809,-0.35461 0.549645,-0.5216499 0.06206,-0.053658 0.128313,-0.1007839 0.190836,-0.1525756 0.07046,-0.058791 0.142311,-0.1147817 0.2137,-0.1712393 0.212766,-0.1689063 0.429731,-0.3298805 0.652295,-0.4824561 0.0238,-0.016331 0.04806,-0.033128 0.07186,-0.048992 0.656495,-0.4423292 1.348918,-0.8216685 2.080068,-1.1151549 0.07465,-0.029862 0.151642,-0.045726 0.227696,-0.067189 1.208007,-0.4502613 2.513998,-0.6970884 3.876914,-0.6970884 1.236935,0 2.239641,1.0022396 2.239641,2.2396416 0,1.2369346 -1.002706,2.2391756 -2.239641,2.2391756 -0.914987,0 -1.786581,0.185703 -2.580721,0.521183 -0.0098,0.0037 -0.02006,0.0089 -0.03033,0.01307 -0.160508,0.06859 -0.31635,0.146043 -0.470325,0.226764 -0.05552,0.02986 -0.111516,0.05879 -0.166573,0.09005 -0.106384,0.06019 -0.2095,0.12458 -0.312617,0.190369 -0.06952,0.04433 -0.140911,0.08632 -0.208567,0.133446 -0.04479,0.03033 -0.08585,0.06532 -0.129712,0.09705 -0.201102,0.146977 -0.393804,0.302819 -0.576242,0.469859 -0.03173,0.02846 -0.06392,0.05692 -0.09565,0.08632 -0.10405,0.09938 -0.2053,0.202034 -0.302818,0.30795 -0.01446,0.0154 -0.02893,0.03173 -0.04386,0.04759 -1.097891,1.211738 -1.737588,2.808416 -1.737588,4.525008 0,0.431598 0.107782,0.923385 0.32988,1.502893 0.02706,0.07092 0.06112,0.146043 0.09612,0.221631 0.03686,0.07652 0.06906,0.154909 0.10685,0.230963 1.034434,2.308697 3.47611,5.401269 5.525849,7.62598 l 0.649963,0.705954 v 0 c 0.326614,-0.351344 0.99384,-1.018571 0.99384,-1.018571 0.279956,-0.310283 0.558511,-0.621967 0.829601,-0.935983 1.487029,-1.722658 4.944476,-5.98311 4.944476,-8.332867 V 6.6550019 1.1660134 C 24.630459,0.41340052 22.363755,0 20,0 8.9543673,0 0,8.9543673 0,20 0,31.046099 8.9543673,40 20,40 31.045633,40 40,31.046099 40,20 40,13.116835 36.521557,7.0464726 31.227604,3.448115"
         id="intermediaire"
         style="stroke-width:1.64959" />
      <path
         d="m 62.132,8.628 h 4.488 v 15.708 c 0,2.278 -0.68,4.012 -2.074,5.27 -1.394,1.258 -3.026,1.904 -4.93,1.904 -1.802,0 -3.366,-0.578 -4.726,-1.7 -1.394,-1.122 -2.176,-2.686 -2.38,-4.726 l 4.352,-0.816 c 0.204,2.04 1.088,3.06 2.686,3.06 1.53,0 2.584,-1.054 2.584,-3.094 z M 76.665111,27.6 c 1.19,0 2.244,-0.442 3.128,-1.326 0.884,-0.85 1.326,-2.006 1.326,-3.434 0,-2.754 -1.938,-4.692 -4.352,-4.692 -1.19,0 -2.21,0.442 -3.06,1.292 -0.85,0.884 -1.258,2.04 -1.258,3.468 0,1.428 0.408,2.55 1.224,3.4 0.816,0.85 1.802,1.292 2.992,1.292 z m 11.186,-0.476 1.326,2.618 c -0.714,1.054 -1.836,1.564 -3.332,1.564 -1.938,0 -3.706,-1.326 -3.876,-3.196 -1.122,1.938 -3.196,3.23 -5.882,3.23 -2.176,0 -4.046,-0.748 -5.61,-2.244 -1.564,-1.496 -2.346,-3.536 -2.346,-6.086 0,-2.652 0.816,-4.726 2.482,-6.256 1.666,-1.53 3.604,-2.278 5.814,-2.278 2.346,0 3.944,0.748 4.828,2.278 v -1.87 h 4.318 v 11.492 c 0,0.782 0.374,1.19 1.088,1.19 0.476,0 0.884,-0.136 1.19,-0.442 z m 15.247109,-12.24 3.502,9.86 3.162,-9.86 h 4.828 L 108.60622,31 h -4.114 l -3.502,-9.418 L 97.488222,31 h -4.114 l -5.916,-16.116 h 4.794 l 3.162,9.826 3.468,-9.826 z m 19.15711,12.308 c 2.482,0 4.556,-1.734 4.556,-4.556 0,-2.822 -2.074,-4.522 -4.556,-4.522 -2.448,0 -4.216,1.632 -4.216,4.59 0,2.992 1.87,4.488 4.216,4.488 z m 4.59,-12.308 h 4.318 v 15.13 c 0,2.652 -0.884,4.726 -2.618,6.222 -1.768,1.462 -3.876,2.21 -6.324,2.21 -3.842,0 -7.174,-2.006 -8.398,-5.508 l 3.978,-1.53 c 0.646,2.176 2.55,3.332 4.692,3.332 2.55,0 4.386,-1.666 4.386,-4.42 v -2.04 c -1.054,1.7 -2.788,2.55 -5.168,2.55 -2.142,0 -4.012,-0.714 -5.61,-2.142 -1.598,-1.394 -2.38,-3.4 -2.38,-5.95 0,-2.584 0.816,-4.624 2.482,-6.086 1.632,-1.462 3.57,-2.176 5.78,-2.176 2.346,0 3.944,0.782 4.862,2.38 z"
         id="Jawg"
         fill-rule="nonzero"
         style="stroke-width:3.67742" />
      <path
         d="M 135.06,31 V 8.628 h 2.788 l 8.228,14.212 8.228,-14.212 h 2.788 V 31 h -2.516 V 13.422 l -7.412,12.546 h -2.176 L 137.576,13.422 V 31 Z m 29.05111,-3.604 c 2.312,2.176 5.508,2.176 7.82,0 1.122,-1.054 1.7,-2.55 1.7,-4.42 0,-1.938 -0.578,-3.434 -1.768,-4.556 -1.19,-1.088 -2.55,-1.632 -4.046,-1.632 -1.462,0 -2.754,0.544 -3.808,1.598 -1.088,1.088 -1.632,2.584 -1.632,4.454 0,1.938 0.578,3.468 1.734,4.556 z m 14.552,1.394 0.816,1.666 c -0.612,0.544 -1.36,0.816 -2.21,0.816 -1.768,0 -3.332,-1.088 -3.502,-3.128 -1.088,1.87 -3.434,3.162 -5.916,3.162 -2.074,0 -3.876,-0.748 -5.474,-2.278 -1.598,-1.496 -2.414,-3.57 -2.414,-6.188 0,-2.618 0.816,-4.658 2.414,-6.154 1.598,-1.462 3.4,-2.21 5.474,-2.21 2.21,0 4.454,1.02 5.78,2.822 v -2.414 h 2.414 v 12.274 c 0,1.224 0.68,1.938 1.53,1.938 0.306,0 0.68,-0.102 1.088,-0.306 z m 10.21511,0.238 c 1.53,0 2.856,-0.544 4.046,-1.666 1.156,-1.088 1.734,-2.618 1.734,-4.556 0,-1.87 -0.544,-3.298 -1.632,-4.352 -1.088,-1.054 -2.38,-1.564 -3.876,-1.564 -1.53,0 -2.89,0.544 -4.012,1.632 -1.156,1.122 -1.734,2.618 -1.734,4.556 0,1.87 0.544,3.298 1.632,4.352 1.054,1.054 2.346,1.598 3.842,1.598 z m 0.578,-14.416 c 2.074,0 3.842,0.714 5.372,2.108 1.496,1.428 2.244,3.434 2.244,6.018 0,2.686 -0.816,4.794 -2.414,6.29 -1.632,1.53 -3.536,2.278 -5.712,2.278 -2.414,0 -4.284,-0.85 -5.542,-2.55 v 9.316 h -2.414 V 14.884 h 2.414 v 2.856 c 1.496,-2.074 3.502,-3.128 6.052,-3.128 z m 21.84311,11.866 c 0,1.53 -0.612,2.72 -1.836,3.57 -1.258,0.85 -2.754,1.292 -4.556,1.292 -2.55,0 -5.1,-0.952 -6.834,-2.72 l 1.7,-1.87 c 1.224,1.496 3.4,2.346 5.44,2.346 2.142,0 3.604,-0.918 3.604,-2.312 0,-0.85 -0.544,-1.292 -1.19,-1.7 -0.34,-0.204 -1.462,-0.476 -1.836,-0.578 -0.17,-0.034 -0.544,-0.136 -1.088,-0.272 -1.734,-0.408 -2.618,-0.714 -3.876,-1.428 -1.258,-0.714 -1.904,-1.87 -1.904,-3.502 0,-1.598 0.612,-2.788 1.802,-3.604 1.19,-0.816 2.584,-1.224 4.216,-1.224 2.04,0 3.876,0.612 5.508,1.802 l -1.224,1.802 c -1.224,-0.986 -2.686,-1.462 -4.42,-1.462 -2.04,0 -3.468,0.918 -3.468,2.55 0,1.632 1.258,2.244 3.808,2.822 2.074,0.476 3.434,0.884 4.08,1.19 1.394,0.714 2.074,1.836 2.074,3.298 z"
         id="Maps"
         fill-rule="nonzero"
         style="stroke-width:3.67742" />
    </g>
  </g>
</svg>
