<?xml version="1.0" encoding="UTF-8" standalone="no"?>
<svg
   xmlns:dc="http://purl.org/dc/elements/1.1/"
   xmlns:cc="http://creativecommons.org/ns#"
   xmlns:rdf="http://www.w3.org/1999/02/22-rdf-syntax-ns#"
   xmlns:svg="http://www.w3.org/2000/svg"
   xmlns="http://www.w3.org/2000/svg"
   xmlns:sodipodi="http://sodipodi.sourceforge.net/DTD/sodipodi-0.dtd"
   xmlns:inkscape="http://www.inkscape.org/namespaces/inkscape"
   id="maplibre"
   width="266.5748"
   height="161.47096"
   viewBox="0 0 266.5748 161.47096"
   version="1.1"
   sodipodi:docname="maplibre-jawg-logo.svg"
   inkscape:version="0.92.5 (2060ec1f9f, 2020-04-08)"
   style="fill:none"
   inkscape:export-filename="/home/wipfli/maps/maplibre.github.io/static/img/maplibre-aws-logo.png"
   inkscape:export-xdpi="96"
   inkscape:export-ydpi="96">
  <metadata
     id="metadata27">
    <rdf:RDF>
      <cc:Work
         rdf:about="">
        <dc:format>image/svg+xml</dc:format>
        <dc:type
           rdf:resource="http://purl.org/dc/dcmitype/StillImage" />
        <dc:title></dc:title>
      </cc:Work>
    </rdf:RDF>
  </metadata>
  <defs
     id="defs25">
    <style
       id="style872">.cls-1{fill:none;}.cls-2{fill:#1c2b33;}.cls-3{clip-path:url(#clip-path);}.cls-4{clip-path:url(#clip-path-2);}.cls-5{fill:url(#linear-gradient);}</style>
    <clipPath
       id="clip-path">
      <path
         id="path874"
         d="m 2079.9949,1000 c -123.3911,0 -219.8478,92.936 -307.164,210.9931 C 1652.8424,1058.2153 1552.4949,1000 1432.4089,1000 c -244.8276,0 -432.4138,318.6207 -432.4138,655.8621 0,211.0344 102.0956,344.1379 273.1035,344.1379 123.0805,0 211.6,-58.0259 368.9655,-333.1034 0,0 65.5973,-115.8413 110.7249,-195.6386 q 23.72,38.2978 49.9647,82.5351 l 73.7931,124.1379 C 2020.294,1918.4789 2100.3854,2000 2245.5123,2000 c 166.5959,0 259.31,-134.9233 259.31,-350.3448 C 2504.8227,1296.5517 2313.0069,1000 2079.9949,1000 Z m -557.9308,592.4138 c -127.5862,200 -171.7242,244.8276 -242.7587,244.8276 -73.1034,0 -116.5517,-64.1784 -116.5517,-178.6207 0,-244.8276 122.069,-495.1724 267.5862,-495.1724 78.8013,0 144.6539,45.51 245.5224,189.9131 -95.7792,146.9109 -153.7982,239.0524 -153.7982,239.0524 z m 481.5283,-25.178 -88.23,-147.1481 q -35.8152,-58.2482 -68.8384,-107.23 c 79.52,-122.7353 145.1135,-183.8919 223.1261,-183.8919 162.0691,0 291.7243,238.6207 291.7243,531.7241 0,111.7242 -36.5935,176.5518 -112.4139,176.5518 -72.6705,-3e-4 -107.3867,-47.9943 -245.3681,-270.0059 z"
         class="cls-1"
         inkscape:connector-curvature="0"
         style="fill:none" />
    </clipPath>
    <clipPath
       id="clip-path-2">
      <rect
         id="rect877"
         height="1010"
         width="1514.828"
         y="994.99982"
         x="994.99487"
         class="cls-1"
         style="fill:none" />
    </clipPath>
    <linearGradient
       gradientUnits="userSpaceOnUse"
       y2="987.27722"
       x2="1449.0802"
       y1="1532.9408"
       x1="1865.507"
       id="linear-gradient"
       gradientTransform="translate(-3855.3184,-955.45267)">
      <stop
         id="stop880"
         stop-color="#0869e1"
         offset="0.1336" />
      <stop
         id="stop882"
         stop-color="#0064e0"
         offset="0.8727" />
    </linearGradient>
    <linearGradient
       id="paint0_linear_45_177"
       x1="47.999599"
       y1="6.0071602"
       x2="47.999599"
       y2="102.001"
       gradientUnits="userSpaceOnUse">
      <stop
         stop-color="#8FCE3C"
         id="stop18" />
      <stop
         offset="1"
         stop-color="#64A322"
         id="stop20" />
    </linearGradient>
  </defs>
  <sodipodi:namedview
     pagecolor="#ffffff"
     bordercolor="#666666"
     borderopacity="1"
     objecttolerance="10"
     gridtolerance="10"
     guidetolerance="10"
     inkscape:pageopacity="0"
     inkscape:pageshadow="2"
     inkscape:window-width="1920"
     inkscape:window-height="1135"
     id="namedview23"
     showgrid="false"
     inkscape:zoom="2.8727272"
     inkscape:cx="103.54218"
     inkscape:cy="75.245424"
     inkscape:window-x="0"
     inkscape:window-y="0"
     inkscape:window-maximized="1"
     inkscape:current-layer="maplibre"
     fit-margin-top="0"
     fit-margin-left="0"
     fit-margin-right="0"
     fit-margin-bottom="0" />
  <rect
     y="0"
     x="0"
     height="161.47096"
     width="266.5748"
     id="rect857"
     style="opacity:1;fill:#ffffff;fill-opacity:1;stroke:none;stroke-width:1.13385832;stroke-linecap:butt;stroke-linejoin:bevel;stroke-miterlimit:4;stroke-dasharray:none;stroke-dashoffset:0;stroke-opacity:1" />
  <text
     id="text865"
     y="82.458488"
     x="-23.876041"
     style="font-style:normal;font-variant:normal;font-weight:normal;font-stretch:normal;font-size:48px;line-height:1.25;font-family:serif;-inkscape-font-specification:serif;font-variant-ligatures:normal;font-variant-caps:normal;font-variant-numeric:normal;font-feature-settings:normal;text-align:start;letter-spacing:0px;word-spacing:0px;writing-mode:lr-tb;text-anchor:start;fill:#000000;fill-opacity:1;stroke:none"
     xml:space="preserve"><tspan
       y="126.1325"
       x="-23.876041"
       id="tspan863"
       sodipodi:role="line" /></text>
  <g
     id="Artboard_outline"
     data-name="Artboard outline"
     transform="translate(-3838.6305,-909.04318)">
    <rect
       style="fill:none"
       y="0"
       class="cls-1"
       x="-0.0049000001"
       width="6962.3647"
       height="3000"
       id="rect887" />
  </g>
  <text
     xml:space="preserve"
     style="font-style:normal;font-variant:normal;font-weight:normal;font-stretch:normal;font-size:10.66666698px;line-height:1.25;font-family:serif;-inkscape-font-specification:serif;font-variant-ligatures:normal;font-variant-caps:normal;font-variant-numeric:normal;font-feature-settings:normal;text-align:start;letter-spacing:0px;word-spacing:0px;writing-mode:lr-tb;text-anchor:start;fill:#000000;fill-opacity:1;stroke:none"
     x="143.06963"
     y="137.80008"
     id="text1075"><tspan
       sodipodi:role="line"
       id="tspan1073"
       x="143.06963"
       y="147.50542" /></text>
  <text
     xml:space="preserve"
     style="font-style:normal;font-variant:normal;font-weight:normal;font-stretch:normal;font-size:10.66666698px;line-height:1.25;font-family:serif;-inkscape-font-specification:serif;font-variant-ligatures:normal;font-variant-caps:normal;font-variant-numeric:normal;font-feature-settings:normal;text-align:start;letter-spacing:0px;word-spacing:0px;writing-mode:lr-tb;text-anchor:start;fill:#646464;fill-opacity:1;stroke:none"
     x="130.17694"
     y="117.70829"
     id="text1053"><tspan
       sodipodi:role="line"
       id="tspan1051"
       x="130.17694"
       y="117.70829"
       style="font-style:normal;font-variant:normal;font-weight:normal;font-stretch:normal;font-family:arial;-inkscape-font-specification:arial;fill:#646464;fill-opacity:1">offical sponsor</tspan></text>
  <g
     id="g1117"
     transform="translate(-107.67698,7.126955)">
    <text
       transform="scale(1.0093925,0.99069494)"
       xml:space="preserve"
       style="font-style:normal;font-variant:normal;font-weight:normal;font-stretch:normal;font-size:30.31994247px;line-height:1.25;font-family:serif;-inkscape-font-specification:serif;font-variant-ligatures:normal;font-variant-caps:normal;font-variant-numeric:normal;font-feature-settings:normal;text-align:start;letter-spacing:0px;word-spacing:0px;writing-mode:lr-tb;text-anchor:start;fill:#646464;fill-opacity:1;stroke:none;stroke-width:1"
       x="177.2482"
       y="111.37709"
       id="text861-83"><tspan
         sodipodi:role="line"
         id="tspan859-8"
         x="177.2482"
         y="111.37709"
         style="font-style:normal;font-variant:normal;font-weight:normal;font-stretch:normal;font-size:8.42220592px;font-family:Arial;-inkscape-font-specification:Arial;fill:#646464;fill-opacity:1;stroke-width:1">2023</tspan></text>
    <rect
       style="opacity:1;fill:none;fill-opacity:1;stroke:#969696;stroke-width:0.79999995;stroke-linecap:butt;stroke-linejoin:bevel;stroke-miterlimit:4;stroke-dasharray:none;stroke-dashoffset:0;stroke-opacity:1"
       id="rect885-3"
       width="25.055155"
       height="11.93352"
       x="175.74567"
       y="101.42632"
       rx="2.3"
       ry="2.3" />
  </g>
  <g
     id="g1084"
     transform="translate(-52.798475,-8.137633)">
    <text
       transform="scale(1.0093925,0.99069492)"
       xml:space="preserve"
       style="font-style:normal;font-variant:normal;font-weight:normal;font-stretch:normal;font-size:30.31994247px;line-height:1.25;font-family:serif;-inkscape-font-specification:serif;font-variant-ligatures:normal;font-variant-caps:normal;font-variant-numeric:normal;font-feature-settings:normal;text-align:start;letter-spacing:0px;word-spacing:0px;writing-mode:lr-tb;text-anchor:start;fill:#646464;fill-opacity:1;stroke:none;stroke-width:1"
       x="154.01909"
       y="126.78505"
       id="text861-83-7"><tspan
         sodipodi:role="line"
         id="tspan859-8-8"
         x="154.01909"
         y="126.78505"
         style="font-style:normal;font-variant:normal;font-weight:normal;font-stretch:normal;font-size:8.42220592px;font-family:Arial;-inkscape-font-specification:Arial;fill:#646464;fill-opacity:1;stroke-width:1">2024</tspan></text>
    <rect
       style="opacity:1;fill:none;fill-opacity:1;stroke:#969696;stroke-width:0.79999995;stroke-linecap:butt;stroke-linejoin:bevel;stroke-miterlimit:4;stroke-dasharray:none;stroke-dashoffset:0;stroke-opacity:1"
       id="rect885-3-6"
       width="25.055155"
       height="11.93352"
       x="152.29837"
       y="116.69091"
       rx="2.3"
       ry="2.3" />
  </g>
  <g
     id="g1051"
     transform="translate(-2.9999989)">
    <g
       id="g898"
       style="fill:none;stroke-width:1.22847176"
       transform="matrix(0.81401953,0,0,0.81401953,16.951512,6.7162476)">
      <path
         style="fill:#285daa;fill-opacity:1;stroke-width:1.22847176"
         inkscape:connector-curvature="0"
         d="m 46.737611,80.381298 -0.935577,-2.115261 -0.427122,2.115261 -1.383055,6.976349 h -2.257656 l 3.091542,-14.949291 h 0.244096 l 4.108547,8.074633 1.220294,2.705134 1.220387,-2.705134 4.027119,-8.074633 h 0.223739 l 3.21359,14.949291 h -2.237298 l -1.505104,-6.976349 -0.447479,-2.115261 -0.813529,2.115261 -3.620354,6.976349 h -0.122049 z"
         id="path2-4" />
      <path
         style="fill:#285daa;fill-opacity:1;stroke-width:1.22847176"
         inkscape:connector-curvature="0"
         d="m 65.074005,87.56103 c -0.84064,0 -1.620304,-0.196628 -2.33899,-0.58979 -0.705083,-0.406859 -1.274516,-0.976292 -1.708486,-1.70858 -0.420367,-0.745704 -0.630504,-1.61355 -0.630504,-2.60335 0,-0.976291 0.183026,-1.830534 0.54917,-2.562729 0.379653,-0.732232 0.91522,-1.301731 1.606795,-1.708514 0.691575,-0.406784 1.505104,-0.610175 2.440681,-0.610175 0.542415,0 1.050871,0.09492 1.525461,0.284754 0.47459,0.189826 0.8746,0.427121 1.20003,0.711866 0.325431,0.271189 0.542322,0.542378 0.650861,0.813567 l 0.04062,-1.566119 h 2.094988 v 9.335687 H 68.43 l -0.04071,-1.647509 c -0.230493,0.488193 -0.650767,0.922069 -1.261007,1.301722 -0.610147,0.366144 -1.294874,0.54917 -2.054274,0.54917 z m 0.366145,-1.830535 c 0.772909,0 1.423769,-0.264359 1.952582,-0.793172 0.528813,-0.542415 0.793172,-1.247499 0.793172,-2.115344 v -0.142312 c 0,-0.583129 -0.122048,-1.105093 -0.36605,-1.566175 -0.244097,-0.460987 -0.576281,-0.820283 -0.996649,-1.077982 -0.420367,-0.257605 -0.881354,-0.386407 -1.383055,-0.386407 -0.867846,0 -1.53897,0.284716 -2.01356,0.854243 -0.47459,0.555924 -0.711932,1.281364 -0.711932,2.176321 0,0.908466 0.230588,1.647415 0.691575,2.216942 0.47459,0.555924 1.152562,0.833886 2.033917,0.833886 z"
         id="path4-5" />
      <path
         style="fill:#285daa;fill-opacity:1;stroke-width:1.22847176"
         inkscape:connector-curvature="0"
         d="m 73.499266,78.02196 h 2.115251 v 1.728834 c 0.745704,-1.315268 1.911868,-1.972902 3.498306,-1.972902 1.315231,0 2.379704,0.420348 3.193233,1.261026 0.813623,0.827169 1.220388,2.027106 1.220388,3.600035 0,0.976292 -0.203383,1.837289 -0.610147,2.583087 -0.393256,0.745797 -0.935671,1.322078 -1.627152,1.728843 -0.677972,0.406764 -1.437279,0.610147 -2.278013,0.610147 -0.786418,0 -1.471238,-0.135557 -2.054273,-0.406765 -0.569433,-0.28481 -1.016912,-0.684727 -1.342342,-1.200031 l 0.02036,6.345846 h -2.135608 z m 5.00341,7.688178 c 0.881355,0 1.559327,-0.277962 2.033917,-0.833886 0.47459,-0.569526 0.711838,-1.294873 0.711838,-2.176322 0,-0.921974 -0.237248,-1.654169 -0.711838,-2.196584 -0.461081,-0.555924 -1.139053,-0.833886 -2.033917,-0.833886 -0.488192,0 -0.949179,0.122048 -1.383055,0.36605 -0.420368,0.230588 -0.7594,0.569527 -1.017006,1.017005 -0.244002,0.433876 -0.36605,0.942332 -0.36605,1.525461 v 0.142311 c 0,0.583036 0.122048,1.105094 0.36605,1.566175 0.257606,0.447385 0.596638,0.799927 1.017006,1.057626 0.420273,0.244002 0.881354,0.36605 1.383055,0.36605 z"
         id="path6-0" />
      <path
         style="fill:#95befa;stroke-width:1.22847176"
         inkscape:connector-curvature="0"
         d="m 85.910838,72.408243 h 2.298276 v 12.915394 h 4.291573 v 2.033916 h -6.589849 z"
         id="path8-3" />
      <path
         style="fill:#95befa;stroke-width:1.22847176"
         inkscape:connector-curvature="0"
         d="m 94.710407,78.021847 h 2.277919 v 9.335706 h -2.277919 z m 1.118602,-1.749162 c -0.420367,0 -0.772909,-0.142377 -1.057625,-0.427122 -0.284716,-0.284754 -0.427122,-0.637295 -0.427122,-1.057644 0,-0.379662 0.142406,-0.705083 0.427122,-0.976272 0.284716,-0.271189 0.637258,-0.406784 1.057625,-0.406784 0.406765,0 0.752552,0.135595 1.037269,0.406784 0.28481,0.271189 0.427121,0.59661 0.427121,0.976272 0,0.420349 -0.142311,0.77289 -0.427121,1.057644 -0.271114,0.284745 -0.616902,0.427122 -1.037269,0.427122 z"
         id="path10-61" />
      <path
         style="fill:#95befa;stroke-width:1.22847176"
         inkscape:connector-curvature="0"
         d="m 105.5619,87.560936 c -0.7593,0 -1.44403,-0.183026 -2.05418,-0.54917 -0.59664,-0.379653 -1.01025,-0.813529 -1.24074,-1.301722 l -0.0406,1.647509 h -2.11535 v -14.94931 h 2.15597 v 5.755981 l -0.10169,1.586476 c 0.23049,-0.542397 0.67797,-1.003421 1.34243,-1.383084 0.67797,-0.393228 1.41017,-0.589837 2.19659,-0.589837 0.92207,0 1.72209,0.210174 2.40006,0.630513 0.69148,0.406784 1.22029,0.983065 1.58644,1.728815 0.36605,0.732195 0.54917,1.586438 0.54917,2.56273 0,0.989893 -0.21699,1.850891 -0.65087,2.583086 -0.42036,0.732195 -0.98989,1.294967 -1.70848,1.688129 -0.70508,0.393256 -1.47799,0.589884 -2.31873,0.589884 z m -0.36605,-1.830535 c 0.88136,0 1.55933,-0.277962 2.03392,-0.833886 0.47459,-0.569526 0.71184,-1.301721 0.71184,-2.196678 0,-0.908466 -0.23725,-1.640661 -0.71184,-2.196585 -0.46099,-0.569527 -1.13896,-0.854243 -2.03392,-0.854243 -0.77291,0 -1.42377,0.271207 -1.95258,0.813529 -0.52881,0.528813 -0.79317,1.227142 -0.79317,2.094987 v 0.142312 c 0,0.583035 0.12195,1.105093 0.36605,1.566175 0.2576,0.460987 0.58988,0.820283 0.99665,1.077982 0.42036,0.257605 0.88135,0.386407 1.38305,0.386407 z"
         id="path12-0" />
      <path
         style="fill:#95befa;stroke-width:1.22847176"
         inkscape:connector-curvature="0"
         d="m 112.52174,78.021847 h 2.19668 v 1.830544 c 0.21689,-0.623749 0.56943,-1.125451 1.05762,-1.505113 0.4881,-0.379663 1.04403,-0.569499 1.66778,-0.569499 0.43387,0 0.73219,0.04068 0.89495,0.122039 l -0.30507,2.216932 c -0.12205,-0.08133 -0.3865,-0.122048 -0.79327,-0.122048 -0.63725,0 -1.22038,0.203476 -1.7492,0.610241 -0.51521,0.406765 -0.77281,1.057625 -0.77281,1.952582 v 4.800028 h -2.19668 z"
         id="path14-63" />
      <path
         style="fill:#95befa;stroke-width:1.22847176"
         inkscape:connector-curvature="0"
         d="m 124.30544,87.560936 c -1.11166,0 -2.04039,-0.216985 -2.78619,-0.650861 -0.7458,-0.447479 -1.29459,-1.037268 -1.64732,-1.769557 -0.35273,-0.745704 -0.5291,-1.559327 -0.5291,-2.440681 0,-0.9898 0.20357,-1.857646 0.61071,-2.60335 0.42028,-0.745816 0.99628,-1.315305 1.728,-1.708533 0.73267,-0.406783 1.56008,-0.610175 2.48224,-0.610175 1.43719,0 2.501,0.400001 3.19239,1.200012 0.70546,0.786418 1.05819,1.89836 1.05819,3.335638 0,0.366051 -0.0206,0.745798 -0.061,1.13896 h -6.71218 c 0.14916,0.827131 0.44091,1.423769 0.87432,1.78982 0.44748,0.366144 1.06476,0.54917 1.85089,0.54917 0.65105,0 1.18671,-0.05422 1.60699,-0.162669 0.42027,-0.108445 0.80677,-0.257605 1.1595,-0.447478 l 0.67075,1.566081 c -0.33866,0.216985 -0.79927,0.406858 -1.38278,0.569526 -0.58256,0.162763 -1.28802,0.244097 -2.11543,0.244097 z m 1.97284,-5.634008 c 0.0141,-0.840641 -0.16886,-1.430524 -0.54879,-1.769464 -0.37994,-0.352541 -0.92217,-0.528812 -1.62669,-0.528812 -1.42405,0 -2.24489,0.76606 -2.4616,2.298276 z"
         id="path16-2" />
      <g
         id="g849"
         transform="matrix(1.1558277,0,0,1.1558277,9.8128512,100.73582)"
         style="opacity:1;fill:none;stroke-width:1.06285024">
        <path
           id="path6-6-0"
           d="m 18.635037,-26.371502 c -2.907387,-0.01886 -5.286887,2.181572 -5.304629,4.904883 -0.01568,2.411446 1.176724,3.5887 2.467973,4.863504 0.900225,0.888732 1.84843,1.824853 2.468797,3.259625 0.04185,0.03401 0.06985,0.05671 0.08187,0.06743 a 0.30437795,0.30437795 0 0 0 0.200286,0.0758 0.30484949,0.30484949 0 0 0 0.201346,-0.07315 c 0.0032,-0.0029 0.0092,-0.0054 0.0165,-0.0085 0.02004,-0.0086 0.05051,-0.02168 0.06625,-0.05794 0.618305,-1.421099 1.580007,-2.344607 2.498446,-3.2265 1.30787,-1.255883 2.527916,-2.427479 2.543538,-4.831617 0.01775,-2.723369 -2.332938,-4.954511 -5.240383,-4.973491 z m -0.05069,7.800952 c 1.439606,0.0094 2.614443,-1.167646 2.623933,-2.628943 0.0095,-1.461297 -1.149905,-2.653523 -2.58957,-2.662895 -1.439666,-0.0094 -2.614444,1.167647 -2.623993,2.628944 -0.0095,1.461297 1.149905,2.653523 2.589571,2.662894 z"
           style="clip-rule:evenodd;fill:#95befa;fill-opacity:1;fill-rule:evenodd;stroke-width:1.06285024"
           inkscape:connector-curvature="0" />
        <path
           id="path8-2"
           d="m 16.699962,-12.357383 c -0.24019,-0.0016 -0.436645,0.26406 -0.438767,0.593253 l -0.01084,1.666237 c -0.0022,0.3291944 0.190796,0.5973244 0.431045,0.5989154 l 3.677114,0.02394 c 0.24019,0.0016 0.436644,-0.264061 0.438766,-0.5932544 l 0.01085,-1.666241 c 0.0022,-0.329248 -0.190796,-0.597379 -0.431045,-0.598911 z"
           style="clip-rule:evenodd;fill:#285daa;fill-opacity:1;fill-rule:evenodd;stroke-width:1.06285024"
           inkscape:connector-curvature="0" />
      </g>
    </g>
    <g
       transform="matrix(0.47008485,0,0,0.47008485,135.76483,63.208873)"
       style="fill:#0094ff;stroke-width:3.17619157"
       id="logo-4">
      <path
         inkscape:connector-curvature="0"
         style="stroke-width:2.12727475"
         id="intermediaire-8"
         d="m 23.147208,18.375634 c 0,1.738694 -1.408877,3.147209 -3.146975,3.147209 -1.738097,0 -3.147441,-1.408515 -3.147441,-3.147209 0,-1.738226 1.409344,-3.147208 3.147441,-3.147208 1.738098,0 3.146975,1.408982 3.146975,3.147208 M 31.227604,3.448115 V 7.766424 18.43785 c 0,0.517917 -0.163774,3.337999 -3.407522,7.985256 -0.300952,0.431131 -0.628499,0.877659 -0.984509,1.338185 -0.198302,0.257559 -0.418067,0.518851 -0.6285,0.778743 -0.495987,0.612168 -1.019036,1.229003 -1.581746,1.851903 -0.94205,1.041434 -1.967152,2.094532 -3.082774,3.152762 L 20.0028,35.003733 19.9972,35.009333 18.452781,33.5447 C 13.984229,29.312243 8.7663307,22.815883 8.7663307,18.43785 c 0,-0.103584 0.011665,-0.205767 0.014464,-0.309351 0.0042,-0.177305 0.012131,-0.35321 0.024729,-0.528182 0.007,-0.09845 0.012131,-0.197368 0.022396,-0.295353 0.027995,-0.290686 0.069522,-0.578107 0.1199141,-0.862262 0.007,-0.03593 0.012598,-0.07232 0.019597,-0.108249 0.4222658,-2.253173 1.5224902,-4.270717 3.0832402,-5.827734 0.176838,-0.179171 0.358809,-0.35461 0.549645,-0.5216499 0.06206,-0.053658 0.128313,-0.1007839 0.190836,-0.1525756 0.07046,-0.058791 0.142311,-0.1147817 0.2137,-0.1712393 0.212766,-0.1689063 0.429731,-0.3298805 0.652295,-0.4824561 0.0238,-0.016331 0.04806,-0.033128 0.07186,-0.048992 0.656495,-0.4423292 1.348918,-0.8216685 2.080068,-1.1151549 0.07465,-0.029862 0.151642,-0.045726 0.227696,-0.067189 1.208007,-0.4502613 2.513998,-0.6970884 3.876914,-0.6970884 1.236935,0 2.239641,1.0022396 2.239641,2.2396416 0,1.2369346 -1.002706,2.2391756 -2.239641,2.2391756 -0.914987,0 -1.786581,0.185703 -2.580721,0.521183 -0.0098,0.0037 -0.02006,0.0089 -0.03033,0.01307 -0.160508,0.06859 -0.31635,0.146043 -0.470325,0.226764 -0.05552,0.02986 -0.111516,0.05879 -0.166573,0.09005 -0.106384,0.06019 -0.2095,0.12458 -0.312617,0.190369 -0.06952,0.04433 -0.140911,0.08632 -0.208567,0.133446 -0.04479,0.03033 -0.08585,0.06532 -0.129712,0.09705 -0.201102,0.146977 -0.393804,0.302819 -0.576242,0.469859 -0.03173,0.02846 -0.06392,0.05692 -0.09565,0.08632 -0.10405,0.09938 -0.2053,0.202034 -0.302818,0.30795 -0.01446,0.0154 -0.02893,0.03173 -0.04386,0.04759 -1.097891,1.211738 -1.737588,2.808416 -1.737588,4.525008 0,0.431598 0.107782,0.923385 0.32988,1.502893 0.02706,0.07092 0.06112,0.146043 0.09612,0.221631 0.03686,0.07652 0.06906,0.154909 0.10685,0.230963 1.034434,2.308697 3.47611,5.401269 5.525849,7.62598 l 0.649963,0.705954 v 0 c 0.326614,-0.351344 0.99384,-1.018571 0.99384,-1.018571 0.279956,-0.310283 0.558511,-0.621967 0.829601,-0.935983 1.487029,-1.722658 4.944476,-5.98311 4.944476,-8.332867 V 6.6550019 1.1660134 C 24.630459,0.41340052 22.363755,0 20,0 8.9543673,0 0,8.9543673 0,20 0,31.046099 8.9543673,40 20,40 31.045633,40 40,31.046099 40,20 40,13.116835 36.521557,7.0464726 31.227604,3.448115" />
      <path
         inkscape:connector-curvature="0"
         style="fill-rule:nonzero;stroke-width:4.74231958"
         id="Jawg-1"
         d="m 62.132,8.628 h 4.488 v 15.708 c 0,2.278 -0.68,4.012 -2.074,5.27 -1.394,1.258 -3.026,1.904 -4.93,1.904 -1.802,0 -3.366,-0.578 -4.726,-1.7 -1.394,-1.122 -2.176,-2.686 -2.38,-4.726 l 4.352,-0.816 c 0.204,2.04 1.088,3.06 2.686,3.06 1.53,0 2.584,-1.054 2.584,-3.094 z M 76.665111,27.6 c 1.19,0 2.244,-0.442 3.128,-1.326 0.884,-0.85 1.326,-2.006 1.326,-3.434 0,-2.754 -1.938,-4.692 -4.352,-4.692 -1.19,0 -2.21,0.442 -3.06,1.292 -0.85,0.884 -1.258,2.04 -1.258,3.468 0,1.428 0.408,2.55 1.224,3.4 0.816,0.85 1.802,1.292 2.992,1.292 z m 11.186,-0.476 1.326,2.618 c -0.714,1.054 -1.836,1.564 -3.332,1.564 -1.938,0 -3.706,-1.326 -3.876,-3.196 -1.122,1.938 -3.196,3.23 -5.882,3.23 -2.176,0 -4.046,-0.748 -5.61,-2.244 -1.564,-1.496 -2.346,-3.536 -2.346,-6.086 0,-2.652 0.816,-4.726 2.482,-6.256 1.666,-1.53 3.604,-2.278 5.814,-2.278 2.346,0 3.944,0.748 4.828,2.278 v -1.87 h 4.318 v 11.492 c 0,0.782 0.374,1.19 1.088,1.19 0.476,0 0.884,-0.136 1.19,-0.442 z m 15.247109,-12.24 3.502,9.86 3.162,-9.86 h 4.828 L 108.60622,31 h -4.114 l -3.502,-9.418 L 97.488222,31 h -4.114 l -5.916,-16.116 h 4.794 l 3.162,9.826 3.468,-9.826 z m 19.15711,12.308 c 2.482,0 4.556,-1.734 4.556,-4.556 0,-2.822 -2.074,-4.522 -4.556,-4.522 -2.448,0 -4.216,1.632 -4.216,4.59 0,2.992 1.87,4.488 4.216,4.488 z m 4.59,-12.308 h 4.318 v 15.13 c 0,2.652 -0.884,4.726 -2.618,6.222 -1.768,1.462 -3.876,2.21 -6.324,2.21 -3.842,0 -7.174,-2.006 -8.398,-5.508 l 3.978,-1.53 c 0.646,2.176 2.55,3.332 4.692,3.332 2.55,0 4.386,-1.666 4.386,-4.42 v -2.04 c -1.054,1.7 -2.788,2.55 -5.168,2.55 -2.142,0 -4.012,-0.714 -5.61,-2.142 -1.598,-1.394 -2.38,-3.4 -2.38,-5.95 0,-2.584 0.816,-4.624 2.482,-6.086 1.632,-1.462 3.57,-2.176 5.78,-2.176 2.346,0 3.944,0.782 4.862,2.38 z" />
      <path
         inkscape:connector-curvature="0"
         style="fill-rule:nonzero;stroke-width:4.74231958"
         id="Maps-2"
         d="M 135.06,31 V 8.628 h 2.788 l 8.228,14.212 8.228,-14.212 h 2.788 V 31 h -2.516 V 13.422 l -7.412,12.546 h -2.176 L 137.576,13.422 V 31 Z m 29.05111,-3.604 c 2.312,2.176 5.508,2.176 7.82,0 1.122,-1.054 1.7,-2.55 1.7,-4.42 0,-1.938 -0.578,-3.434 -1.768,-4.556 -1.19,-1.088 -2.55,-1.632 -4.046,-1.632 -1.462,0 -2.754,0.544 -3.808,1.598 -1.088,1.088 -1.632,2.584 -1.632,4.454 0,1.938 0.578,3.468 1.734,4.556 z m 14.552,1.394 0.816,1.666 c -0.612,0.544 -1.36,0.816 -2.21,0.816 -1.768,0 -3.332,-1.088 -3.502,-3.128 -1.088,1.87 -3.434,3.162 -5.916,3.162 -2.074,0 -3.876,-0.748 -5.474,-2.278 -1.598,-1.496 -2.414,-3.57 -2.414,-6.188 0,-2.618 0.816,-4.658 2.414,-6.154 1.598,-1.462 3.4,-2.21 5.474,-2.21 2.21,0 4.454,1.02 5.78,2.822 v -2.414 h 2.414 v 12.274 c 0,1.224 0.68,1.938 1.53,1.938 0.306,0 0.68,-0.102 1.088,-0.306 z m 10.21511,0.238 c 1.53,0 2.856,-0.544 4.046,-1.666 1.156,-1.088 1.734,-2.618 1.734,-4.556 0,-1.87 -0.544,-3.298 -1.632,-4.352 -1.088,-1.054 -2.38,-1.564 -3.876,-1.564 -1.53,0 -2.89,0.544 -4.012,1.632 -1.156,1.122 -1.734,2.618 -1.734,4.556 0,1.87 0.544,3.298 1.632,4.352 1.054,1.054 2.346,1.598 3.842,1.598 z m 0.578,-14.416 c 2.074,0 3.842,0.714 5.372,2.108 1.496,1.428 2.244,3.434 2.244,6.018 0,2.686 -0.816,4.794 -2.414,6.29 -1.632,1.53 -3.536,2.278 -5.712,2.278 -2.414,0 -4.284,-0.85 -5.542,-2.55 v 9.316 h -2.414 V 14.884 h 2.414 v 2.856 c 1.496,-2.074 3.502,-3.128 6.052,-3.128 z m 21.84311,11.866 c 0,1.53 -0.612,2.72 -1.836,3.57 -1.258,0.85 -2.754,1.292 -4.556,1.292 -2.55,0 -5.1,-0.952 -6.834,-2.72 l 1.7,-1.87 c 1.224,1.496 3.4,2.346 5.44,2.346 2.142,0 3.604,-0.918 3.604,-2.312 0,-0.85 -0.544,-1.292 -1.19,-1.7 -0.34,-0.204 -1.462,-0.476 -1.836,-0.578 -0.17,-0.034 -0.544,-0.136 -1.088,-0.272 -1.734,-0.408 -2.618,-0.714 -3.876,-1.428 -1.258,-0.714 -1.904,-1.87 -1.904,-3.502 0,-1.598 0.612,-2.788 1.802,-3.604 1.19,-0.816 2.584,-1.224 4.216,-1.224 2.04,0 3.876,0.612 5.508,1.802 l -1.224,1.802 c -1.224,-0.986 -2.686,-1.462 -4.42,-1.462 -2.04,0 -3.468,0.918 -3.468,2.55 0,1.632 1.258,2.244 3.808,2.822 2.074,0.476 3.434,0.884 4.08,1.19 1.394,0.714 2.074,1.836 2.074,3.298 z" />
    </g>
  </g>
</svg>
