<?xml version="1.0" encoding="UTF-8" standalone="no"?>
<svg
   id="maplibre"
   width="266.5748"
   height="161.47096"
   viewBox="0 0 266.5748 161.47096"
   version="1.1"
   sodipodi:docname="maplibre-mappedin-logo.svg"
   inkscape:version="1.3.2 (091e20e, 2023-11-25)"
   style="fill:none"
   inkscape:export-filename="maplibre-mappedin-logo.png"
   inkscape:export-xdpi="535.08075"
   inkscape:export-ydpi="535.08075"
   xml:space="preserve"
   xmlns:inkscape="http://www.inkscape.org/namespaces/inkscape"
   xmlns:sodipodi="http://sodipodi.sourceforge.net/DTD/sodipodi-0.dtd"
   xmlns="http://www.w3.org/2000/svg"
   xmlns:svg="http://www.w3.org/2000/svg"
   xmlns:rdf="http://www.w3.org/1999/02/22-rdf-syntax-ns#"
   xmlns:cc="http://creativecommons.org/ns#"
   xmlns:dc="http://purl.org/dc/elements/1.1/"><metadata
     id="metadata27"><rdf:RDF><cc:Work
         rdf:about=""><dc:format>image/svg+xml</dc:format><dc:type
           rdf:resource="http://purl.org/dc/dcmitype/StillImage" /></cc:Work></rdf:RDF></metadata><defs
     id="defs25"><style
       id="style872">.cls-1{fill:none;}.cls-2{fill:#1c2b33;}.cls-3{clip-path:url(#clip-path);}.cls-4{clip-path:url(#clip-path-2);}.cls-5{fill:url(#linear-gradient);}</style><clipPath
       id="clip-path"><path
         id="path874"
         d="m 2079.9949,1000 c -123.3911,0 -219.8478,92.936 -307.164,210.9931 C 1652.8424,1058.2153 1552.4949,1000 1432.4089,1000 c -244.8276,0 -432.4138,318.6207 -432.4138,655.8621 0,211.0344 102.0956,344.1379 273.1035,344.1379 123.0805,0 211.6,-58.0259 368.9655,-333.1034 0,0 65.5973,-115.8413 110.7249,-195.6386 q 23.72,38.2978 49.9647,82.5351 l 73.7931,124.1379 C 2020.294,1918.4789 2100.3854,2000 2245.5123,2000 c 166.5959,0 259.31,-134.9233 259.31,-350.3448 C 2504.8227,1296.5517 2313.0069,1000 2079.9949,1000 Z m -557.9308,592.4138 c -127.5862,200 -171.7242,244.8276 -242.7587,244.8276 -73.1034,0 -116.5517,-64.1784 -116.5517,-178.6207 0,-244.8276 122.069,-495.1724 267.5862,-495.1724 78.8013,0 144.6539,45.51 245.5224,189.9131 -95.7792,146.9109 -153.7982,239.0524 -153.7982,239.0524 z m 481.5283,-25.178 -88.23,-147.1481 q -35.8152,-58.2482 -68.8384,-107.23 c 79.52,-122.7353 145.1135,-183.8919 223.1261,-183.8919 162.0691,0 291.7243,238.6207 291.7243,531.7241 0,111.7242 -36.5935,176.5518 -112.4139,176.5518 -72.6705,-3e-4 -107.3867,-47.9943 -245.3681,-270.0059 z"
         class="cls-1"
         inkscape:connector-curvature="0"
         style="fill:none" /></clipPath><clipPath
       id="clip-path-2"><rect
         id="rect877"
         height="1010"
         width="1514.828"
         y="994.99982"
         x="994.99487"
         class="cls-1"
         style="fill:none" /></clipPath><linearGradient
       gradientUnits="userSpaceOnUse"
       y2="987.27722"
       x2="1449.0802"
       y1="1532.9408"
       x1="1865.507"
       id="linear-gradient"
       gradientTransform="translate(-3855.3184,-955.45267)"><stop
         id="stop880"
         stop-color="#0869e1"
         offset="0.1336" /><stop
         id="stop882"
         stop-color="#0064e0"
         offset="0.8727" /></linearGradient><clipPath
       id="clip0_355_200"><rect
         width="200"
         height="47.7273"
         fill="white"
         id="rect3" /></clipPath><clipPath
       id="a"><path
         fill="#fff"
         d="M0 0h1355.33v317.795H0z"
         id="path6-9" /></clipPath></defs><sodipodi:namedview
     pagecolor="#ffffff"
     bordercolor="#666666"
     borderopacity="1"
     objecttolerance="10"
     gridtolerance="10"
     guidetolerance="10"
     inkscape:pageopacity="0"
     inkscape:pageshadow="2"
     inkscape:window-width="1440"
     inkscape:window-height="847"
     id="namedview23"
     showgrid="false"
     inkscape:zoom="2.3983795"
     inkscape:cx="103.19468"
     inkscape:cy="57.538851"
     inkscape:window-x="0"
     inkscape:window-y="25"
     inkscape:window-maximized="1"
     inkscape:current-layer="maplibre"
     fit-margin-top="0"
     fit-margin-left="0"
     fit-margin-right="0"
     fit-margin-bottom="0"
     inkscape:showpageshadow="0"
     inkscape:pagecheckerboard="0"
     inkscape:deskcolor="#505050" /><rect
     style="fill:#ffffff"
     id="rect2"
     width="271.85022"
     height="169.28096"
     x="-2.0847416"
     y="-4.5864296" /><text
     id="text865"
     y="82.458488"
     x="-23.876041"
     style="font-style:normal;font-variant:normal;font-weight:normal;font-stretch:normal;font-size:48px;line-height:1.25;font-family:serif;-inkscape-font-specification:serif;font-variant-ligatures:normal;font-variant-caps:normal;font-variant-numeric:normal;font-feature-settings:normal;text-align:start;letter-spacing:0px;word-spacing:0px;writing-mode:lr-tb;text-anchor:start;fill:#000000;fill-opacity:1;stroke:none"
     xml:space="preserve" /><g
     id="Artboard_outline"
     data-name="Artboard outline"
     transform="translate(-3838.6305,-909.04318)"><rect
       style="fill:none"
       y="0"
       class="cls-1"
       x="-0.0049000001"
       width="6962.3647"
       height="3000"
       id="rect887" /></g><text
     xml:space="preserve"
     style="font-style:normal;font-variant:normal;font-weight:normal;font-stretch:normal;font-size:10.6667px;line-height:1.25;font-family:serif;-inkscape-font-specification:serif;font-variant-ligatures:normal;font-variant-caps:normal;font-variant-numeric:normal;font-feature-settings:normal;text-align:start;letter-spacing:0px;word-spacing:0px;writing-mode:lr-tb;text-anchor:start;fill:#000000;fill-opacity:1;stroke:none"
     x="143.06963"
     y="137.80008"
     id="text1075" /><g
     style="fill:none"
     id="g1"
     transform="matrix(0.56723194,0,0,0.56723194,138.88293,61.323335)"><g
       clip-path="url(#clip0_355_200)"
       id="g3"
       inkscape:label="g3"><path
         d="m 28.2477,14.2261 h -4.9492 c -1.2491,0 -1.8491,0.554 -1.8491,1.7591 V 31.142 L 11.3765,15.5591 c -0.7,-1.0807 -1.1492,-1.2818 -2.54916,-1.333 H 3.95446 c -1.3,0 -1.89831,0.554 -1.89831,1.7591 v 28.7813 c 0,1.2051 0.59831,1.7591 1.89831,1.7591 h 4.94915 c 1.29829,0 1.89829,-0.554 1.89829,-1.7591 V 29.6847 l 10.122,15.5079 c 0.7509,1.1318 1.1509,1.333 2.5492,1.333 h 4.8 c 1.2983,0 1.8983,-0.554 1.8983,-1.7591 V 15.9852 c -0.0508,-1.2051 -0.6491,-1.7591 -1.9237,-1.7591 z"
         fill="#293136"
         id="path1" /><path
         d="M 6.42889,10.9602 C 9.43837,10.9602 11.878,8.50669 11.878,5.48011 11.878,2.45353 9.43837,0 6.42889,0 3.4194,0 0.979736,2.45353 0.979736,5.48011 c 0,3.02658 2.439664,5.48009 5.449154,5.48009 z"
         fill="#293136"
         id="path2-3" /><path
         d="m 62.7697,25.0449 c 1.4407,-1.8546 3.2882,-2.8398 5.7661,-2.8398 4.4967,0 7.2051,3.1296 7.2051,7.246 v 9.7978 c 0.0577,0.4636 -0.2305,0.6954 -0.6915,0.6954 h -1.5559 c -0.461,0 -0.7492,-0.2318 -0.6916,-0.6954 v -9.7398 c 0,-2.3182 -1.9033,-4.2904 -4.3237,-4.2904 -2.3644,0 -4.2661,1.9143 -4.2661,4.0586 v 9.9716 c 0.0576,0.4636 -0.2305,0.6954 -0.6915,0.6954 H 61.963 c -0.4611,0 -0.6916,-0.2318 -0.6916,-0.6954 v -9.7978 c 0,-2.3181 -1.9017,-4.2324 -4.2661,-4.2324 -2.305,0 -4.2661,1.8563 -4.2661,4.0586 v 10.0295 c 0.0577,0.4637 -0.2305,0.6955 -0.7491,0.6955 h -1.4983 c -0.461,0 -0.7492,-0.2318 -0.7492,-0.6955 V 23.25 c -0.0576,-0.4636 0.2305,-0.7534 0.7492,-0.7534 h 1.4407 c 0.4033,0 0.5762,0.1739 0.5762,0.5216 v 1.217 c 1.2119,-1.275 2.7102,-1.9704 4.4966,-1.9704 2.4221,-0.058 4.3238,0.9272 5.7644,2.7818 z m 15.3356,6.2028 c 0,-4.9261 3.9763,-9.0426 8.9933,-9.0426 2.4203,0 4.4949,0.9852 6.2254,2.9557 v -1.9705 c 0,-0.4636 0.2305,-0.6375 0.6915,-0.6375 h 1.3831 c 0.461,0 0.6915,0.2319 0.6915,0.7534 v 16.0586 c 0,0.4636 -0.2305,0.6954 -0.6915,0.6954 h -1.3831 c -0.461,0 -0.6915,-0.2318 -0.6915,-0.6375 V 37.4523 C 91.6511,39.3648 89.5765,40.35 87.1545,40.35 82.0816,40.2341 78.1036,36.1773 78.1036,31.2477 Z m 14.9882,0 c 0,-3.4193 -2.6526,-6.029 -6.0543,-6.029 -3.2847,0 -5.9373,2.6677 -5.9373,6.029 0,3.4211 2.6526,6.0307 5.9967,6.0307 0.7875,5e-4 1.5674,-0.1552 2.295,-0.4582 0.7277,-0.3029 1.3888,-0.7471 1.9456,-1.3072 0.5568,-0.5602 0.9983,-1.2252 1.2993,-1.957 0.3011,-0.7319 0.4556,-1.5163 0.455,-2.3083 z m 8.8775,6.1466 v 8.9864 c 0.058,0.4636 -0.23,0.7534 -0.693,0.7534 h -1.5557 c -0.461,0 -0.7492,-0.2318 -0.7492,-0.7534 V 23.1903 c 0,-0.4636 0.2305,-0.7534 0.7492,-0.7534 h 1.4407 c 0.463,-0.0579 0.751,0.2318 0.751,0.6375 v 1.9125 c 1.671,-1.9125 3.746,-2.8397 6.11,-2.8397 4.958,0 8.993,4.1147 8.993,9.0426 0,4.9278 -3.978,9.0443 -8.993,9.0443 -2.422,0 -4.441,-0.9273 -6.053,-2.8398 z m 5.995,-12.1756 c -3.286,0 -5.937,2.6677 -5.937,6.029 0,3.4211 2.651,6.0307 5.995,6.0307 3.402,0 5.995,-2.6676 5.995,-6.0307 0,-3.3613 -2.651,-6.029 -6.053,-6.029 z m 14.124,12.1756 v 8.9864 c 0.058,0.4636 -0.23,0.7534 -0.691,0.7534 h -1.558 c -0.461,0 -0.749,-0.2318 -0.749,-0.7534 V 23.1903 c 0,-0.4636 0.23,-0.7534 0.749,-0.7534 h 1.441 c 0.462,-0.0579 0.75,0.2318 0.75,0.6375 v 1.9125 c 1.672,-1.9125 3.746,-2.8397 6.111,-2.8397 4.957,0 8.993,4.1147 8.993,9.0426 0,4.9278 -3.978,9.0443 -8.993,9.0443 -2.421,0 -4.382,-0.9273 -6.053,-2.8398 z m 5.995,-12.1756 c -3.286,0 -5.937,2.6677 -5.937,6.029 0,3.4211 2.651,6.0307 5.995,6.0307 3.401,0 5.995,-2.6676 5.995,-6.0307 0,-3.3613 -2.651,-6.029 -6.051,-6.029 z m 26.864,7.1319 h -12.915 c 0.288,2.8977 2.941,5.1017 6.11,5.1017 1.729,0 3.229,-0.4057 4.555,-1.3926 0.288,-0.1739 0.576,-0.2898 0.633,-0.2898 0.231,0 0.404,0.1159 0.577,0.4074 l 0.576,0.9852 c 0.117,0.1739 0.175,0.2898 0.175,0.4057 0,0.2318 -0.173,0.4636 -0.577,0.7534 -1.845,1.275 -3.92,1.9704 -6.112,1.9704 -5.303,0 -9.108,-3.9409 -9.108,-9.0443 0,-5.0437 3.92,-9.0426 8.82,-9.0426 4.843,0 8.014,3.5932 8.014,8.8125 0,0.5796 0,1.333 -0.749,1.333 z M 142.036,30.0324 H 152.7 c -0.288,-3.1892 -2.247,-5.1034 -5.073,-5.1034 -1.406,-0.0386 -2.773,0.4705 -3.814,1.4211 -1.042,0.9506 -1.679,2.2693 -1.777,3.6806 z m 15.276,1.2153 c 0,-4.9261 3.978,-9.0426 8.993,-9.0426 2.422,0 4.382,0.9273 5.995,2.8398 v -8.8125 c -0.057,-0.4637 0.231,-0.7534 0.692,-0.7534 h 1.557 c 0.461,0 0.75,0.2318 0.75,0.7534 v 23.0744 c 0,0.4637 -0.231,0.6955 -0.75,0.6955 h -1.44 c -0.463,0.0579 -0.751,-0.2318 -0.751,-0.6375 v -1.9705 c -1.729,1.9125 -3.746,2.8977 -6.11,2.8977 -4.958,-0.0579 -8.936,-4.1147 -8.936,-9.0443 z m 14.932,0 c 0,-3.4193 -2.652,-6.029 -6.054,-6.029 -3.286,0 -5.937,2.6677 -5.937,6.029 0,3.4211 2.651,6.0307 5.995,6.0307 0.789,0.0054 1.571,-0.1468 2.301,-0.448 0.73,-0.3012 1.393,-0.7452 1.95,-1.3063 0.558,-0.5611 1,-1.2281 1.299,-1.9622 0.299,-0.7342 0.45,-1.5208 0.445,-2.3142 z M 178.7,19.0739 c -0.005,-0.2145 0.033,-0.4279 0.113,-0.6271 0.079,-0.1992 0.198,-0.3801 0.348,-0.5318 0.151,-0.1517 0.331,-0.2711 0.529,-0.3508 0.198,-0.0797 0.411,-0.1182 0.624,-0.1131 0.212,-4e-4 0.422,0.0412 0.618,0.1226 0.196,0.0814 0.374,0.2009 0.524,0.3517 0.15,0.1508 0.269,0.3299 0.349,0.5269 0.081,0.1971 0.123,0.4083 0.122,0.6216 0.005,0.2145 -0.033,0.4278 -0.112,0.627 -0.079,0.1992 -0.198,0.3801 -0.349,0.5318 -0.151,0.1518 -0.331,0.2711 -0.529,0.3508 -0.198,0.0798 -0.41,0.1182 -0.623,0.1131 -0.922,0.0579 -1.614,-0.6375 -1.614,-1.6227 z m 0.116,20.175 V 23.1903 c 0,-0.4636 0.23,-0.7534 0.691,-0.7534 h 1.556 c 0.461,0 0.749,0.2318 0.692,0.7534 v 16.0586 c 0.057,0.4636 -0.231,0.6954 -0.692,0.6954 h -1.556 c -0.461,0 -0.691,-0.2318 -0.691,-0.6954 z m 9.108,-16.2324 v 1.1591 c 1.268,-1.333 2.766,-1.9705 4.553,-1.9705 4.44,0 7.149,3.0716 7.149,7.1881 v 9.8557 c 0.057,0.4636 -0.231,0.6954 -0.692,0.6954 h -1.556 c -0.462,0 -0.693,-0.2318 -0.693,-0.6954 v -9.7978 c 0,-2.3181 -1.902,-4.2324 -4.266,-4.2324 -2.305,0 -4.264,1.8563 -4.264,4.0586 v 10.0295 c 0.057,0.4637 -0.231,0.6955 -0.751,0.6955 h -1.556 c -0.461,0 -0.749,-0.2318 -0.749,-0.6955 V 23.1903 c -0.058,-0.4636 0.23,-0.6954 0.749,-0.6954 h 1.44 c 0.404,0 0.636,0.1738 0.636,0.5216 z"
         fill="#293136"
         id="path3" /></g></g><g
     style="fill:none"
     id="g2"
     transform="matrix(0.07694036,0,0,0.07694036,14.203252,65.731963)"><g
       clip-path="url(#a)"
       id="g5"><path
         fill="#285daa"
         d="m 292.72,162.643 -12.174,-27.525 -5.558,27.525 -17.998,90.78 H 227.613 L 267.842,58.894 h 3.176 l 53.462,105.072 15.88,35.201 15.88,-35.201 52.403,-105.072 h 2.912 l 41.817,194.529 h -29.114 l -19.585,-90.78 -5.822,-27.525 -10.587,27.525 -47.11,90.78 h -1.588 z m 238.604,93.427 c -10.94,0 -21.085,-2.559 -30.437,-7.676 -9.175,-5.293 -16.585,-12.704 -22.232,-22.232 -5.469,-9.704 -8.204,-20.996 -8.204,-33.877 0,-12.704 2.382,-23.819 7.146,-33.347 4.94,-9.528 11.91,-16.939 20.908,-22.232 8.999,-5.294 19.585,-7.94 31.76,-7.94 7.058,0 13.674,1.235 19.85,3.705 6.175,2.47 11.38,5.558 15.615,9.263 4.235,3.529 7.058,7.058 8.469,10.587 l 0.53,-20.379 h 27.26 v 121.481 h -26.996 l -0.529,-21.438 c -3,6.352 -8.469,11.998 -16.409,16.939 -7.94,4.764 -16.851,7.146 -26.731,7.146 z m 4.764,-23.82 c 10.057,0 18.526,-3.441 25.407,-10.322 6.882,-7.058 10.322,-16.233 10.322,-27.525 v -1.853 c 0,-7.587 -1.588,-14.38 -4.764,-20.379 -3.176,-5.999 -7.498,-10.675 -12.968,-14.027 -5.47,-3.353 -11.469,-5.029 -17.997,-5.029 -11.293,0 -20.027,3.705 -26.202,11.116 -6.176,7.234 -9.263,16.674 -9.263,28.319 0,11.822 2.999,21.438 8.998,28.849 6.176,7.234 14.998,10.851 26.467,10.851 z M 640.957,131.942 h 27.525 v 22.496 c 9.704,-17.115 24.879,-25.672 45.522,-25.672 17.115,0 30.966,5.47 41.553,16.409 10.586,10.763 15.88,26.378 15.88,46.846 0,12.704 -2.647,23.908 -7.94,33.612 -5.117,9.705 -12.175,17.203 -21.174,22.497 -8.822,5.293 -18.702,7.94 -29.642,7.94 -10.234,0 -19.144,-1.765 -26.731,-5.294 -7.411,-3.705 -13.233,-8.91 -17.468,-15.615 l 0.265,82.576 h -27.79 z m 65.107,100.043 c 11.469,0 20.291,-3.617 26.467,-10.851 6.175,-7.411 9.263,-16.85 9.263,-28.319 0,-11.998 -3.088,-21.526 -9.263,-28.584 -5.999,-7.234 -14.821,-10.851 -26.467,-10.851 -6.352,0 -12.351,1.588 -17.997,4.764 -5.47,2.999 -9.881,7.41 -13.233,13.233 -3.176,5.646 -4.764,12.263 -4.764,19.85 v 1.852 c 0,7.587 1.588,14.381 4.764,20.38 3.352,5.822 7.763,10.41 13.233,13.762 5.47,3.176 11.469,4.764 17.997,4.764 z"
         id="path1-2" /><path
         fill="#95befa"
         d="m 802.464,58.894 h 29.907 v 168.062 h 55.845 v 26.467 h -85.752 z m 114.505,73.048 h 29.642 v 121.481 h -29.642 z m 14.556,-22.762 c -5.469,0 -10.057,-1.852 -13.762,-5.558 -3.705,-3.705 -5.558,-8.292 -5.558,-13.762 0,-4.94 1.853,-9.175 5.558,-12.704 3.705,-3.529 8.293,-5.293 13.762,-5.293 5.294,0 9.793,1.764 13.498,5.293 3.706,3.529 5.558,7.763 5.558,12.704 0,5.47 -1.852,10.057 -5.558,13.762 -3.529,3.706 -8.028,5.558 -13.498,5.558 z m 126.655,146.889 c -9.89,0 -18.8,-2.382 -26.74,-7.146 -7.76,-4.94 -13.14,-10.586 -16.14,-16.938 l -0.53,21.438 H 987.246 V 58.894 h 28.054 v 74.9 l -1.32,20.644 c 3,-7.058 8.82,-13.057 17.46,-17.997 8.83,-5.117 18.35,-7.675 28.59,-7.675 12,0 22.41,2.734 31.23,8.204 9,5.294 15.88,12.792 20.64,22.497 4.77,9.528 7.15,20.644 7.15,33.347 0,12.881 -2.82,24.085 -8.47,33.613 -5.47,9.528 -12.88,16.85 -22.23,21.967 -9.18,5.117 -19.23,7.675 -30.17,7.675 z m -4.77,-23.819 c 11.47,0 20.29,-3.618 26.47,-10.852 6.17,-7.41 9.26,-16.938 9.26,-28.584 0,-11.821 -3.09,-21.349 -9.26,-28.583 -6,-7.411 -14.82,-11.116 -26.47,-11.116 -10.06,0 -18.52,3.529 -25.41,10.586 -6.88,6.882 -10.32,15.968 -10.32,27.261 v 1.852 c 0,7.588 1.59,14.381 4.77,20.38 3.35,5.999 7.67,10.674 12.96,14.027 5.47,3.352 11.47,5.029 18,5.029 z m 95.33,-100.308 h 28.58 v 23.819 c 2.83,-8.116 7.42,-14.644 13.77,-19.585 6.35,-4.94 13.58,-7.41 21.7,-7.41 5.65,0 9.53,0.529 11.64,1.588 l -3.97,28.848 c -1.58,-1.059 -5.02,-1.588 -10.32,-1.588 -8.29,0 -15.88,2.647 -22.76,7.94 -6.7,5.293 -10.06,13.763 -10.06,25.408 v 62.461 h -28.58 z m 153.34,124.127 c -14.47,0 -26.55,-2.823 -36.26,-8.469 -9.7,-5.823 -16.85,-13.498 -21.44,-23.026 -4.58,-9.704 -6.88,-20.291 -6.88,-31.76 0,-12.88 2.65,-24.172 7.94,-33.877 5.47,-9.704 12.97,-17.115 22.5,-22.231 9.53,-5.294 20.29,-7.94 32.29,-7.94 18.7,0 32.55,5.205 41.55,15.615 9.18,10.234 13.76,24.702 13.76,43.405 0,4.764 -0.26,9.704 -0.79,14.821 h -87.34 c 1.94,10.763 5.73,18.527 11.38,23.291 5.82,4.764 13.85,7.146 24.08,7.146 8.47,0 15.44,-0.706 20.91,-2.118 5.47,-1.411 10.5,-3.352 15.09,-5.822 l 8.73,20.379 c -4.41,2.823 -10.41,5.293 -17.99,7.41 -7.59,2.118 -16.77,3.176 -27.53,3.176 z m 25.67,-73.312 c 0.18,-10.939 -2.2,-18.615 -7.14,-23.026 -4.94,-4.587 -12,-6.881 -21.18,-6.881 -18.52,0 -29.2,9.969 -32.02,29.907 z"
         id="path2-4" /><path
         fill="#95befa"
         fill-rule="evenodd"
         d="M 91.32,0.578 C 41.994,0.258 1.624,37.589 1.323,83.793 c -0.266,40.912 19.964,60.885 41.871,82.513 15.273,15.078 31.36,30.96 41.885,55.302 0.71,0.577 1.185,0.962 1.389,1.144 a 5.169,5.169 0 0 0 3.398,1.286 5.172,5.172 0 0 0 3.416,-1.241 c 0.055,-0.049 0.156,-0.092 0.28,-0.145 0.34,-0.146 0.857,-0.368 1.124,-0.983 10.49,-24.11 26.806,-39.778 42.388,-54.74 22.189,-21.307 42.888,-41.184 43.153,-81.972 C 180.528,38.753 140.647,0.9 91.32,0.578 Z m -0.86,132.349 c 24.424,0.159 44.356,-19.81 44.517,-44.602 0.161,-24.793 -19.509,-45.019 -43.934,-45.178 -24.425,-0.159 -44.356,19.81 -44.518,44.602 -0.161,24.792 19.509,45.019 43.934,45.178 z"
         clip-rule="evenodd"
         id="path3-8" /><path
         fill="#285daa"
         fill-rule="evenodd"
         d="m 58.49,238.337 c -4.075,-0.026 -7.408,4.48 -7.445,10.065 l -0.183,28.269 c -0.037,5.585 3.237,10.134 7.313,10.161 l 62.385,0.406 c 4.075,0.026 7.408,-4.48 7.444,-10.065 l 0.184,-28.269 c 0.037,-5.585 -3.237,-10.135 -7.313,-10.161 z m 54.01,18.164 -45.866,-0.298 -0.084,12.871 45.866,0.298 z"
         clip-rule="evenodd"
         id="path4-3" /><path
         fill="#285daa"
         d="m 62.952,251.463 53.027,0.345 -0.144,22.163 -53.027,-0.345 z"
         id="path5" /></g></g></svg>
