<svg width="222" height="47" viewBox="0 0 222 47" fill="none" xmlns="http://www.w3.org/2000/svg">
<path d="M34.4725 1.70896C32.988 -0.704044 25.7586 -0.341368 18.7324 1.42849C19.9752 2.11032 21.1019 3.07262 22.0255 4.23802C25.923 9.09787 25.159 16.245 20.2605 20.1426C16.7691 22.9521 12.1075 23.3148 8.33569 21.5497C12.9538 28.8178 19.7817 36.0471 21.7063 35.6844C25.1977 34.9977 37.4029 6.44792 34.4725 1.70896Z" fill="#18345C"></path>
<path d="M19.5738 6.003C16.6434 2.51164 11.4209 2.02807 7.92951 4.95849C4.43815 7.88891 3.95459 13.0679 6.885 16.6028C9.81542 20.0942 15.038 20.5777 18.5293 17.6473C22.0207 14.7169 22.4656 9.49919 19.5738 6.003ZM18.0071 13.0728C16.4403 14.359 14.1095 14.1559 12.828 12.5892C11.5418 11.0224 11.7449 8.69163 13.3116 7.41018C14.8784 6.12389 17.2092 6.32699 18.4906 7.89375C19.7721 9.41698 19.5738 11.7478 18.0071 13.0728Z" fill="#F6B801"></path>
<path d="M60.4256 22.9472C60.4256 24.2286 60.1886 25.3505 59.7099 26.3176C59.2312 27.2848 58.588 28.0923 57.7708 28.7355C56.9536 29.3834 56.0009 29.867 54.9081 30.1958C53.8152 30.5198 52.6498 30.6842 51.4071 30.6842C50.5656 30.6842 49.7871 30.6165 49.0618 30.4763C48.3412 30.3361 47.7029 30.1717 47.1517 29.9782C46.6004 29.7848 46.1362 29.5817 45.7687 29.3689C45.3963 29.1562 45.1304 28.9676 44.9708 28.8032C44.8064 28.6387 44.6903 28.4066 44.6226 28.0971C44.5549 27.7877 44.5211 27.3476 44.5211 26.7722C44.5211 26.3853 44.5356 26.0565 44.5597 25.7954C44.5839 25.5342 44.6274 25.3166 44.6806 25.1571C44.7387 24.9926 44.8112 24.8766 44.9079 24.8089C44.9998 24.7412 45.111 24.7073 45.2367 24.7073C45.4108 24.7073 45.6623 24.8089 45.9814 25.0168C46.3006 25.2248 46.7116 25.452 47.2145 25.7035C47.7174 25.9549 48.3171 26.1822 49.0134 26.3902C49.7097 26.5981 50.5173 26.6996 51.4312 26.6996C52.0357 26.6996 52.5725 26.6271 53.0512 26.482C53.5299 26.337 53.9313 26.1339 54.2649 25.8679C54.5986 25.6068 54.8501 25.2779 55.029 24.8911C55.2031 24.5042 55.2901 24.069 55.2901 23.5903C55.2901 23.039 55.1402 22.5651 54.8404 22.1686C54.5406 21.7721 54.1489 21.4239 53.6653 21.1144C53.1817 20.8049 52.6305 20.5196 52.0164 20.2488C51.4022 19.9781 50.7687 19.6927 50.1159 19.3929C49.4631 19.0931 48.8296 18.7498 48.2155 18.3678C47.6014 17.9858 47.0501 17.5264 46.5665 16.9944C46.083 16.4625 45.6913 15.829 45.3915 15.1037C45.0917 14.3783 44.9418 13.5031 44.9418 12.4876C44.9418 11.3222 45.1594 10.297 45.5897 9.4121C46.025 8.52717 46.6052 7.79215 47.3403 7.21187C48.0753 6.62675 48.9409 6.19154 49.937 5.9014C50.9332 5.61126 51.9922 5.46619 53.1092 5.46619C53.6847 5.46619 54.2649 5.50971 54.8404 5.59675C55.4158 5.68379 55.9574 5.80468 56.4603 5.95459C56.9633 6.1045 57.4081 6.27374 57.795 6.46234C58.1818 6.65093 58.443 6.80567 58.5687 6.9314C58.6944 7.05712 58.7766 7.16351 58.825 7.25055C58.8685 7.33759 58.9072 7.45365 58.9362 7.59872C58.9652 7.74379 58.9894 7.92755 59.0039 8.14515C59.0184 8.36276 59.0232 8.63839 59.0232 8.96238C59.0232 9.32506 59.0136 9.63454 58.9942 9.88599C58.9749 10.1374 58.9459 10.3454 58.8975 10.505C58.854 10.6694 58.7911 10.7854 58.7089 10.8628C58.6267 10.9402 58.5155 10.974 58.3801 10.974C58.2399 10.974 58.0223 10.887 57.7225 10.7129C57.4226 10.5388 57.0503 10.3454 56.6102 10.1374C56.1702 9.92951 55.6625 9.74092 55.087 9.57167C54.5116 9.40243 53.8733 9.31538 53.1866 9.31538C52.645 9.31538 52.1759 9.38308 51.7746 9.51365C51.3732 9.64421 51.0347 9.82797 50.7687 10.0601C50.498 10.2922 50.2997 10.5727 50.1643 10.8966C50.0337 11.2255 49.966 11.5688 49.966 11.9315C49.966 12.4731 50.1111 12.9373 50.4061 13.3338C50.701 13.7304 51.0976 14.0785 51.5908 14.388C52.0841 14.6975 52.6498 14.9828 53.2736 15.2536C53.9023 15.5244 54.5406 15.8097 55.1934 16.1095C55.8462 16.4093 56.4845 16.7527 57.1132 17.1347C57.7418 17.5167 58.2979 17.9761 58.7863 18.508C59.2747 19.0399 59.6712 19.6686 59.971 20.3891C60.2757 21.1193 60.4256 21.9655 60.4256 22.9472Z" fill="#F6B801"></path>
<path d="M89.8653 29.6107C89.8653 29.7365 89.8266 29.8477 89.7541 29.9396C89.6767 30.0314 89.551 30.1137 89.3769 30.1765C89.2028 30.2394 88.961 30.2877 88.6612 30.3168C88.3614 30.3458 87.9794 30.3651 87.5151 30.3651C87.0364 30.3651 86.6496 30.3506 86.3497 30.3168C86.0499 30.2829 85.8081 30.2394 85.6244 30.1765C85.4406 30.1137 85.3149 30.0363 85.2472 29.9396C85.1795 29.8477 85.1457 29.7365 85.1457 29.6107V19.6541C85.1457 19.0883 85.0925 18.5757 84.9861 18.1115C84.8797 17.6473 84.7153 17.2508 84.4977 16.9171C84.2801 16.5834 84.0044 16.3271 83.6708 16.1434C83.3371 15.9596 82.9406 15.8726 82.4764 15.8726C81.9106 15.8726 81.34 16.0902 80.7645 16.5302C80.1891 16.9703 79.5605 17.6086 78.8835 18.45V29.6107C78.8835 29.7365 78.8448 29.8477 78.7722 29.9396C78.6949 30.0314 78.5691 30.1137 78.3854 30.1765C78.2016 30.2394 77.9598 30.2877 77.66 30.3168C77.3602 30.3458 76.983 30.3651 76.5285 30.3651C76.0643 30.3651 75.6822 30.3506 75.3824 30.3168C75.0826 30.2829 74.8408 30.2394 74.6571 30.1765C74.4733 30.1137 74.3476 30.0363 74.2702 29.9396C74.1929 29.8477 74.159 29.7365 74.159 29.6107V19.6541C74.159 19.0883 74.1058 18.5757 73.9994 18.1115C73.893 17.6473 73.7335 17.2508 73.5207 16.9171C73.3079 16.5834 73.0323 16.3271 72.6938 16.1434C72.3553 15.9596 71.9588 15.8726 71.5091 15.8726C70.9336 15.8726 70.3533 16.0902 69.7779 16.5302C69.2024 16.9703 68.5786 17.6086 67.9161 18.45V29.6107C67.9161 29.7365 67.8775 29.8477 67.8049 29.9396C67.7276 30.0314 67.6018 30.1137 67.4181 30.1765C67.2343 30.2394 66.9925 30.2877 66.6927 30.3168C66.3929 30.3458 66.0109 30.3651 65.5467 30.3651C65.0824 30.3651 64.7004 30.3506 64.4006 30.3168C64.1008 30.2829 63.859 30.2394 63.6753 30.1765C63.4915 30.1137 63.3658 30.0363 63.2884 29.9396C63.211 29.8477 63.1772 29.7365 63.1772 29.6107V12.8213C63.1772 12.6955 63.2062 12.5843 63.2739 12.4925C63.3368 12.4006 63.448 12.3184 63.6124 12.2555C63.7768 12.1926 63.9847 12.1443 64.241 12.1153C64.4973 12.0863 64.8213 12.0669 65.2082 12.0669C65.6095 12.0669 65.9432 12.0814 66.2043 12.1153C66.4654 12.1491 66.6734 12.1926 66.8184 12.2555C66.9635 12.3184 67.0651 12.3957 67.1279 12.4925C67.1908 12.5843 67.2198 12.6955 67.2198 12.8213V14.7604C68.1483 13.7546 69.0719 13.005 69.9955 12.5021C70.9191 11.9992 71.8814 11.7478 72.8872 11.7478C73.5787 11.7478 74.1977 11.8203 74.749 11.9654C75.3002 12.1104 75.7935 12.3184 76.2287 12.5843C76.6639 12.8551 77.0362 13.1791 77.3505 13.5515C77.6649 13.9286 77.926 14.3493 78.1388 14.8136C78.6417 14.272 79.1349 13.8078 79.6185 13.4209C80.102 13.034 80.5808 12.7149 81.0498 12.4683C81.5189 12.2217 81.9928 12.0427 82.4619 11.9218C82.9309 11.8009 83.4145 11.7429 83.9029 11.7429C85.0199 11.7429 85.9629 11.9315 86.7269 12.3087C87.491 12.6859 88.1099 13.1985 88.579 13.8416C89.048 14.4896 89.3865 15.2439 89.5848 16.1095C89.7879 16.9751 89.8846 17.8939 89.8846 18.8562V29.6107H89.8653Z" fill="#F6B801"></path>
<path d="M108.047 29.6688C108.047 29.8429 107.985 29.9831 107.859 30.0847C107.733 30.1862 107.535 30.2587 107.264 30.3023C106.993 30.3458 106.597 30.37 106.07 30.37C105.504 30.37 105.093 30.3458 104.837 30.3023C104.58 30.2587 104.397 30.1862 104.29 30.0847C104.184 29.9831 104.131 29.8477 104.131 29.6688V28.3341C103.439 29.074 102.651 29.6543 101.766 30.0653C100.881 30.4812 99.8993 30.6843 98.821 30.6843C97.9312 30.6843 97.1092 30.5682 96.3645 30.3361C95.6198 30.104 94.9718 29.7607 94.4254 29.3013C93.8789 28.8419 93.4582 28.2761 93.1536 27.5991C92.8538 26.9221 92.7039 26.1291 92.7039 25.2296C92.7039 24.2528 92.8973 23.4018 93.2793 22.6812C93.6613 21.9607 94.2319 21.3611 94.9911 20.892C95.7503 20.423 96.6933 20.0748 97.8248 19.8475C98.9564 19.6203 100.267 19.509 101.761 19.509H103.4V18.4935C103.4 17.9665 103.347 17.5071 103.241 17.1105C103.134 16.714 102.96 16.3852 102.714 16.1241C102.467 15.8581 102.143 15.6647 101.737 15.5389C101.331 15.4132 100.823 15.3504 100.223 15.3504C99.4351 15.3504 98.7291 15.4374 98.1053 15.6115C97.4863 15.7856 96.9351 15.9838 96.4563 16.1966C95.9776 16.4094 95.5811 16.6028 95.2619 16.7817C94.9428 16.9558 94.6816 17.0477 94.4785 17.0477C94.3383 17.0477 94.2174 17.0042 94.111 16.9171C94.0047 16.8301 93.9176 16.7043 93.8499 16.5399C93.7822 16.3755 93.729 16.1773 93.6903 15.9355C93.6516 15.6985 93.6323 15.4326 93.6323 15.1473C93.6323 14.7604 93.6613 14.4509 93.7242 14.2236C93.787 13.9964 93.9079 13.7933 94.082 13.6095C94.2561 13.4258 94.5656 13.2275 95.0056 13.005C95.4457 12.7874 95.9583 12.5795 96.5482 12.3958C97.1382 12.2072 97.7813 12.0524 98.4777 11.9364C99.174 11.8155 99.8945 11.7574 100.634 11.7574C101.955 11.7574 103.076 11.888 104.015 12.1443C104.948 12.4006 105.717 12.7971 106.321 13.329C106.926 13.861 107.361 14.5476 107.636 15.389C107.912 16.2304 108.052 17.2266 108.052 18.3823V29.6688H108.047ZM103.4 22.4781H101.592C100.828 22.4781 100.175 22.5362 99.6334 22.6474C99.0918 22.7586 98.6566 22.9279 98.3132 23.1551C97.9747 23.3824 97.7281 23.6532 97.5685 23.9724C97.4138 24.2915 97.3316 24.659 97.3316 25.0749C97.3316 25.7761 97.554 26.3322 97.9989 26.7335C98.4438 27.1349 99.0628 27.338 99.851 27.338C100.518 27.338 101.128 27.1687 101.689 26.8302C102.245 26.4917 102.815 25.9937 103.391 25.3409V22.4781H103.4Z" fill="#F6B801"></path>
<path d="M122.791 14.3832C122.791 14.8329 122.777 15.2052 122.753 15.4954C122.729 15.7855 122.69 16.008 122.642 16.1724C122.593 16.3368 122.525 16.448 122.443 16.5109C122.361 16.5737 122.26 16.6027 122.134 16.6027C122.032 16.6027 121.921 16.5834 121.795 16.535C121.67 16.4915 121.529 16.4432 121.37 16.3948C121.215 16.3465 121.041 16.2981 120.852 16.2546C120.664 16.2111 120.456 16.1869 120.233 16.1869C119.972 16.1869 119.706 16.2401 119.445 16.3465C119.184 16.4528 118.908 16.6173 118.628 16.8445C118.347 17.0718 118.052 17.3716 117.743 17.7488C117.434 18.126 117.105 18.5902 116.757 19.1415V29.6059C116.757 29.7316 116.718 29.8428 116.645 29.9347C116.568 30.0266 116.442 30.1088 116.258 30.1716C116.075 30.2345 115.833 30.2829 115.533 30.3119C115.233 30.3409 114.851 30.3602 114.387 30.3602C113.923 30.3602 113.541 30.3457 113.241 30.3119C112.941 30.278 112.699 30.2345 112.516 30.1716C112.332 30.1088 112.206 30.0314 112.129 29.9347C112.051 29.8428 112.018 29.7316 112.018 29.6059V12.8212C112.018 12.6955 112.047 12.5843 112.114 12.4924C112.177 12.4005 112.288 12.3183 112.453 12.2555C112.617 12.1926 112.825 12.1443 113.081 12.1152C113.338 12.0862 113.662 12.0669 114.049 12.0669C114.45 12.0669 114.784 12.0814 115.045 12.1152C115.306 12.1491 115.514 12.1926 115.659 12.2555C115.804 12.3183 115.905 12.3957 115.968 12.4924C116.031 12.5843 116.06 12.6955 116.06 12.8212V14.9103C116.5 14.2816 116.911 13.7642 117.303 13.358C117.69 12.9518 118.062 12.6278 118.415 12.3909C118.768 12.1539 119.116 11.9847 119.469 11.8928C119.822 11.8009 120.171 11.7526 120.524 11.7526C120.688 11.7526 120.862 11.7622 121.051 11.7816C121.239 11.8009 121.433 11.8299 121.636 11.8735C121.834 11.917 122.013 11.9653 122.163 12.0234C122.313 12.0814 122.424 12.1394 122.492 12.2023C122.559 12.2651 122.613 12.3328 122.642 12.4102C122.671 12.4876 122.7 12.5891 122.724 12.7197C122.748 12.8503 122.767 13.0485 122.782 13.3145C122.782 13.5708 122.791 13.9286 122.791 14.3832Z" fill="#F6B801"></path>
<path d="M136.612 27.952C136.612 28.5033 136.578 28.9289 136.51 29.2238C136.443 29.5188 136.351 29.7267 136.239 29.8428C136.128 29.9637 135.959 30.0701 135.741 30.162C135.524 30.2538 135.263 30.336 134.968 30.4086C134.673 30.4763 134.354 30.5295 134.01 30.5681C133.667 30.6068 133.319 30.6262 132.966 30.6262C132.023 30.6262 131.21 30.5053 130.519 30.2683C129.827 30.0314 129.257 29.6639 128.807 29.1658C128.357 28.6726 128.024 28.0439 127.811 27.2944C127.598 26.54 127.492 25.6503 127.492 24.6203V16.0176H125.475C125.238 16.0176 125.055 15.8725 124.929 15.5776C124.803 15.2826 124.74 14.7893 124.74 14.0978C124.74 13.7352 124.755 13.4257 124.789 13.1742C124.818 12.9228 124.866 12.7245 124.929 12.5794C124.992 12.4344 125.069 12.3328 125.166 12.27C125.262 12.2071 125.369 12.1781 125.495 12.1781H127.492V8.43526C127.492 8.30953 127.526 8.19831 127.593 8.09677C127.661 7.99522 127.787 7.91301 127.97 7.84047C128.154 7.77278 128.396 7.71958 128.705 7.69057C129.015 7.66155 129.392 7.64221 129.847 7.64221C130.311 7.64221 130.698 7.65672 131.002 7.69057C131.312 7.71958 131.549 7.77278 131.728 7.84047C131.902 7.90817 132.028 7.99522 132.105 8.09677C132.182 8.19831 132.216 8.30953 132.216 8.43526V12.1829H135.867C135.993 12.1829 136.104 12.2168 136.196 12.2748C136.288 12.3377 136.37 12.4392 136.433 12.5843C136.496 12.7293 136.544 12.9276 136.573 13.1791C136.602 13.4305 136.621 13.7352 136.621 14.1027C136.621 14.7942 136.559 15.2874 136.433 15.5824C136.307 15.8774 136.123 16.0224 135.886 16.0224H132.216V23.9094C132.216 24.8234 132.361 25.5149 132.651 25.9694C132.942 26.4288 133.454 26.6561 134.194 26.6561C134.445 26.6561 134.673 26.6367 134.871 26.5884C135.074 26.5449 135.248 26.4965 135.408 26.4385C135.562 26.3805 135.698 26.3321 135.804 26.2886C135.911 26.2451 136.007 26.2209 136.094 26.2209C136.172 26.2209 136.239 26.2451 136.312 26.2886C136.38 26.3321 136.433 26.4191 136.472 26.5497C136.51 26.6803 136.544 26.8592 136.573 27.0865C136.592 27.3137 136.612 27.6039 136.612 27.952Z" fill="#F6B801"></path>
<path d="M167.932 29.5721C167.932 29.6978 167.899 29.809 167.831 29.9106C167.763 30.0121 167.637 30.0944 167.454 30.1572C167.27 30.2201 167.028 30.2684 166.728 30.3071C166.429 30.3458 166.047 30.3652 165.582 30.3652C165.133 30.3652 164.755 30.3458 164.451 30.3071C164.151 30.2684 163.909 30.2201 163.735 30.1572C163.561 30.0944 163.435 30.0121 163.358 29.9106C163.281 29.809 163.247 29.6978 163.247 29.5721V9.75067H163.208L156.148 29.5528C156.1 29.7172 156.017 29.8526 155.901 29.959C155.79 30.0653 155.635 30.1524 155.442 30.2153C155.248 30.2781 155.002 30.3168 154.697 30.3361C154.393 30.3555 154.03 30.3652 153.604 30.3652C153.179 30.3652 152.811 30.3506 152.511 30.3168C152.212 30.2829 151.96 30.2346 151.767 30.1669C151.573 30.0992 151.419 30.0121 151.307 29.9106C151.196 29.809 151.119 29.693 151.08 29.5528L144.267 9.75067H144.228V29.5721C144.228 29.6978 144.194 29.809 144.126 29.9106C144.059 30.0121 143.928 30.0944 143.74 30.1572C143.551 30.2201 143.309 30.2684 143.014 30.3071C142.719 30.3458 142.342 30.3652 141.873 30.3652C141.423 30.3652 141.046 30.3458 140.741 30.3071C140.442 30.2684 140.2 30.2201 140.016 30.1572C139.832 30.0944 139.707 30.0121 139.639 29.9106C139.571 29.809 139.537 29.6978 139.537 29.5721V7.86959C139.537 7.23128 139.707 6.73804 140.045 6.39955C140.384 6.06105 140.833 5.8918 141.399 5.8918H144.639C145.214 5.8918 145.713 5.94016 146.128 6.03203C146.544 6.12391 146.902 6.28349 147.202 6.50109C147.502 6.7187 147.753 7.00884 147.956 7.36668C148.159 7.72452 148.333 8.16457 148.483 8.69166L153.754 23.2035H153.832L159.291 8.7255C159.456 8.19842 159.634 7.75353 159.828 7.39086C160.021 7.02818 160.249 6.73321 160.505 6.50593C160.761 6.27865 161.066 6.11908 161.419 6.0272C161.772 5.93532 162.178 5.88696 162.642 5.88696H165.974C166.312 5.88696 166.603 5.93048 166.849 6.01753C167.096 6.10457 167.294 6.23513 167.454 6.40438C167.608 6.57363 167.729 6.78156 167.812 7.02335C167.894 7.26997 167.932 7.5456 167.932 7.85992V29.5721Z" fill="#18345C"></path>
<path d="M186.497 29.6688C186.497 29.8429 186.434 29.9831 186.308 30.0847C186.182 30.1862 185.984 30.2587 185.713 30.3023C185.442 30.3458 185.046 30.37 184.519 30.37C183.953 30.37 183.542 30.3458 183.286 30.3023C183.029 30.2587 182.846 30.1862 182.739 30.0847C182.633 29.9831 182.58 29.8477 182.58 29.6688V28.3341C181.888 29.074 181.1 29.6543 180.215 30.0653C179.33 30.4812 178.348 30.6843 177.27 30.6843C176.38 30.6843 175.558 30.5682 174.814 30.3361C174.069 30.104 173.421 29.7607 172.874 29.3013C172.328 28.8419 171.907 28.2761 171.603 27.5991C171.303 26.9221 171.153 26.1291 171.153 25.2296C171.153 24.2528 171.346 23.4018 171.728 22.6812C172.11 21.9607 172.681 21.3611 173.44 20.892C174.199 20.423 175.142 20.0748 176.274 19.8475C177.405 19.6203 178.716 19.509 180.21 19.509H181.849V18.4935C181.849 17.9665 181.796 17.5071 181.69 17.1105C181.583 16.714 181.409 16.3852 181.163 16.1241C180.916 15.8581 180.592 15.6647 180.186 15.5389C179.78 15.4132 179.272 15.3504 178.672 15.3504C177.884 15.3504 177.178 15.4374 176.554 15.6115C175.935 15.7856 175.384 15.9838 174.905 16.1966C174.427 16.4094 174.03 16.6028 173.711 16.7817C173.392 16.9558 173.131 17.0477 172.928 17.0477C172.787 17.0477 172.667 17.0042 172.56 16.9171C172.454 16.8301 172.367 16.7043 172.299 16.5399C172.231 16.3755 172.178 16.1773 172.139 15.9355C172.101 15.6985 172.081 15.4326 172.081 15.1473C172.081 14.7604 172.11 14.4509 172.173 14.2236C172.236 13.9964 172.357 13.7933 172.531 13.6095C172.705 13.4258 173.015 13.2275 173.455 13.005C173.895 12.7874 174.407 12.5795 174.997 12.3958C175.587 12.2072 176.23 12.0524 176.927 11.9364C177.623 11.8155 178.344 11.7574 179.083 11.7574C180.404 11.7574 181.525 11.888 182.464 12.1443C183.397 12.4006 184.166 12.7971 184.77 13.329C185.375 13.861 185.81 14.5476 186.086 15.389C186.361 16.2304 186.501 17.2266 186.501 18.3823V29.6688H186.497ZM181.845 22.4781H180.036C179.272 22.4781 178.619 22.5362 178.078 22.6474C177.536 22.7586 177.101 22.9279 176.758 23.1551C176.419 23.3824 176.172 23.6532 176.013 23.9724C175.858 24.2915 175.776 24.659 175.776 25.0749C175.776 25.7761 175.998 26.3322 176.443 26.7335C176.888 27.1349 177.507 27.338 178.295 27.338C178.963 27.338 179.572 27.1687 180.133 26.8302C180.689 26.4917 181.26 25.9937 181.835 25.3409V22.4781H181.845Z" fill="#18345C"></path>
<path d="M207.353 20.9694C207.353 22.4636 207.193 23.8079 206.874 25.0071C206.555 26.2064 206.086 27.2267 205.472 28.0681C204.858 28.9095 204.089 29.5575 203.175 30.0072C202.261 30.457 201.212 30.6842 200.032 30.6842C199.543 30.6842 199.093 30.6359 198.687 30.544C198.281 30.4521 197.885 30.3071 197.503 30.1088C197.121 29.9154 196.739 29.6736 196.361 29.3834C195.984 29.0933 195.597 28.7548 195.196 28.3679V36.2743C195.196 36.4 195.157 36.5112 195.085 36.6128C195.007 36.7143 194.882 36.7965 194.698 36.8691C194.514 36.9368 194.272 36.99 193.973 37.0286C193.673 37.0673 193.291 37.0867 192.826 37.0867C192.362 37.0867 191.98 37.0673 191.68 37.0286C191.381 36.99 191.139 36.9368 190.955 36.8691C190.771 36.8014 190.646 36.7143 190.568 36.6128C190.491 36.5112 190.457 36.4 190.457 36.2743V12.8212C190.457 12.6955 190.486 12.5843 190.554 12.4924C190.617 12.4005 190.728 12.3183 190.883 12.2555C191.037 12.1926 191.245 12.1443 191.501 12.1152C191.758 12.0862 192.082 12.0669 192.469 12.0669C192.846 12.0669 193.16 12.0814 193.421 12.1152C193.678 12.1491 193.885 12.1926 194.04 12.2555C194.195 12.3183 194.306 12.3957 194.369 12.4924C194.432 12.5843 194.461 12.6955 194.461 12.8212V14.799C194.949 14.2961 195.428 13.8561 195.902 13.4741C196.371 13.092 196.855 12.7729 197.343 12.5166C197.831 12.2603 198.339 12.0669 198.857 11.9412C199.379 11.8154 199.93 11.7526 200.52 11.7526C201.748 11.7526 202.798 11.9943 203.663 12.4779C204.529 12.9615 205.235 13.624 205.781 14.4654C206.328 15.3068 206.724 16.2836 206.976 17.4006C207.227 18.5128 207.353 19.7024 207.353 20.9694ZM202.42 21.3079C202.42 20.5922 202.367 19.9055 202.261 19.2479C202.154 18.5902 201.971 18.0003 201.714 17.4877C201.458 16.9751 201.12 16.5641 200.699 16.2546C200.278 15.9451 199.756 15.7952 199.127 15.7952C198.813 15.7952 198.504 15.8435 198.194 15.9354C197.885 16.0273 197.575 16.182 197.251 16.3948C196.932 16.6076 196.603 16.8832 196.265 17.2217C195.926 17.5602 195.568 17.9809 195.191 18.4838V24.0158C195.858 24.8572 196.492 25.5052 197.092 25.9646C197.696 26.424 198.32 26.6513 198.973 26.6513C199.587 26.6513 200.114 26.4965 200.544 26.1822C200.979 25.8679 201.332 25.4569 201.608 24.9491C201.884 24.4414 202.087 23.8659 202.217 23.2276C202.353 22.5893 202.42 21.951 202.42 21.3079Z" fill="#18345C"></path>
<path d="M222 24.867C222 25.8196 221.821 26.661 221.463 27.3912C221.105 28.1214 220.603 28.7258 219.95 29.2191C219.297 29.7075 218.523 30.075 217.633 30.3216C216.744 30.5682 215.777 30.6891 214.737 30.6891C214.108 30.6891 213.509 30.6408 212.938 30.5489C212.367 30.457 211.855 30.3361 211.405 30.191C210.955 30.046 210.578 29.9009 210.274 29.751C209.974 29.6011 209.751 29.4609 209.616 29.3255C209.476 29.1949 209.369 28.987 209.297 28.7065C209.219 28.426 209.186 28.0053 209.186 27.454C209.186 27.0914 209.2 26.7964 209.224 26.5788C209.248 26.3612 209.287 26.1823 209.335 26.0517C209.384 25.9211 209.447 25.8341 209.524 25.7857C209.601 25.7422 209.693 25.718 209.805 25.718C209.94 25.718 210.148 25.7954 210.414 25.955C210.685 26.1097 211.018 26.2838 211.42 26.4724C211.821 26.661 212.29 26.8351 212.822 26.9995C213.354 27.1639 213.963 27.2461 214.64 27.2461C215.066 27.2461 215.448 27.2026 215.781 27.1155C216.115 27.0285 216.4 26.9028 216.647 26.7384C216.894 26.574 217.077 26.366 217.203 26.1194C217.329 25.8679 217.392 25.5778 217.392 25.2538C217.392 24.8766 217.276 24.5526 217.044 24.2867C216.811 24.0159 216.502 23.7838 216.12 23.5807C215.738 23.3824 215.303 23.1938 214.819 23.0149C214.336 22.8408 213.842 22.6426 213.33 22.4298C212.822 22.217 212.324 21.9704 211.845 21.6948C211.362 21.4191 210.931 21.0806 210.544 20.6793C210.162 20.2779 209.853 19.7943 209.621 19.2286C209.389 18.6628 209.273 17.9858 209.273 17.1976C209.273 16.3949 209.427 15.655 209.742 14.9877C210.056 14.3155 210.506 13.7401 211.096 13.2662C211.686 12.7874 212.406 12.4199 213.252 12.154C214.099 11.8928 215.051 11.7574 216.105 11.7574C216.632 11.7574 217.145 11.7961 217.638 11.8687C218.132 11.946 218.581 12.0379 218.983 12.1491C219.384 12.2604 219.722 12.3861 219.998 12.5166C220.274 12.6472 220.472 12.7633 220.593 12.8551C220.714 12.947 220.796 13.0437 220.849 13.1356C220.898 13.2275 220.936 13.3435 220.96 13.4741C220.985 13.6047 221.009 13.7691 221.028 13.9625C221.047 14.1559 221.057 14.3977 221.057 14.6879C221.057 15.0264 221.047 15.302 221.028 15.5148C221.009 15.7275 220.98 15.8968 220.936 16.0225C220.893 16.1482 220.835 16.2304 220.757 16.2788C220.68 16.3223 220.593 16.3465 220.496 16.3465C220.385 16.3465 220.206 16.2788 219.969 16.1482C219.732 16.0177 219.432 15.8774 219.074 15.7227C218.717 15.5728 218.301 15.4326 217.832 15.2972C217.363 15.1666 216.826 15.0989 216.221 15.0989C215.796 15.0989 215.424 15.1424 215.109 15.2295C214.795 15.3165 214.539 15.4422 214.336 15.6066C214.132 15.7711 213.983 15.9596 213.886 16.1821C213.784 16.3997 213.736 16.6366 213.736 16.8881C213.736 17.275 213.857 17.6038 214.094 17.8649C214.331 18.1309 214.645 18.363 215.037 18.5612C215.424 18.7643 215.868 18.9481 216.362 19.127C216.855 19.3011 217.358 19.4945 217.866 19.7025C218.373 19.9104 218.876 20.1522 219.369 20.4278C219.863 20.7034 220.308 21.0419 220.694 21.4433C221.081 21.8447 221.396 22.3234 221.637 22.8843C221.879 23.4404 222 24.1029 222 24.867Z" fill="#18345C"></path>
<path d="M14.6464 32.7733C14.2837 32.3864 13.9162 31.9851 13.5487 31.5789C9.68499 31.8206 6.62884 32.164 5.27485 32.517C4.41894 32.7443 3.57753 33.0247 2.828 33.3729L18.0991 36.0035C17.1658 35.2781 16.0342 34.2433 14.6464 32.7733Z" fill="#F6B801"></path>
<path d="M4.53986 42.6332C9.1676 46.9998 12.7847 47.9089 17.2045 46.081C20.8699 44.5675 26.3149 42.0916 30.725 39.9156L14.893 37.1882L4.53986 42.6332Z" fill="#F6B801"></path>
<path d="M23.3795 36.9174L24.9995 37.1979L35.6428 31.5934C33.1089 31.3903 30.3235 31.279 27.4898 31.2404C25.6088 34.6834 24.279 36.2163 23.3795 36.9174Z" fill="#F6B801"></path>
<path d="M33.2878 38.6244C34.6273 37.9329 35.7733 37.3043 36.6099 36.8014C39.6564 34.9541 42.9253 32.8845 38.6119 31.9657L27.7654 37.6718L33.2878 38.6244Z" fill="#F6B801"></path>
<path d="M0.772739 34.7511C-0.242753 35.8391 -0.397495 37.2608 1.16443 39.0645C1.89462 39.9059 2.59095 40.67 3.26795 41.3663L12.1269 36.7047L0.772739 34.7511Z" fill="#F6B801"></path>
</svg>
